<?xml version="1.0" encoding="UTF-8" standalone="no"?><svg xmlns="http://www.w3.org/2000/svg" xmlns:xlink="http://www.w3.org/1999/xlink" contentScriptType="application/ecmascript" contentStyleType="text/css" height="117px" preserveAspectRatio="none" style="width:234px;height:117px;" version="1.1" viewBox="0 0 234 117" width="234px" zoomAndPan="magnify"><defs><filter height="300%" id="f4147jyyu61tm" width="300%" x="-1" y="-1"><feGaussianBlur result="blurOut" stdDeviation="2.0"/><feColorMatrix in="blurOut" result="blurOut2" type="matrix" values="0 0 0 0 0 0 0 0 0 0 0 0 0 0 0 0 0 0 .4 0"/><feOffset dx="4.0" dy="4.0" in="blurOut2" result="blurOut3"/><feBlend in="SourceGraphic" in2="blurOut3" mode="normal"/></filter></defs><g><!--MD5=[4e8ecd94af36cce41665c9f079adf9fd]
entity backend--><polygon fill="#FEFECE" filter="url(#f4147jyyu61tm)" points="6,43,16,33,106,33,106,70.6094,96,80.6094,6,80.6094,6,43" style="stroke: #000000; stroke-width: 1.5;"/><line style="stroke: #000000; stroke-width: 1.5;" x1="96" x2="105" y1="43" y2="34"/><line style="stroke: #000000; stroke-width: 1.5;" x1="6" x2="96" y1="43" y2="43"/><line style="stroke: #000000; stroke-width: 1.5;" x1="96" x2="96" y1="43" y2="80.6094"/><text fill="#000000" font-family="sans-serif" font-size="14" lengthAdjust="spacingAndGlyphs" textLength="60" x="21" y="67.5332">Back End</text><!--MD5=[7468467f3b6b392f1d176d828c753b77]
entity db--><path d="M141.5,18 C141.5,8 182,8 182,8 C182,8 222.5,8 222.5,18 L222.5,95.8281 C222.5,105.8281 182,105.8281 182,105.8281 C182,105.8281 141.5,105.8281 141.5,95.8281 L141.5,18 " fill="#FEFECE" filter="url(#f4147jyyu61tm)" style="stroke: #000000; stroke-width: 1.5;"/><path d="M141.5,18 C141.5,28 182,28 182,28 C182,28 222.5,28 222.5,18 " fill="none" style="stroke: #000000; stroke-width: 1.5;"/><text fill="#000000" font-family="sans-serif" font-size="14" lengthAdjust="spacingAndGlyphs" textLength="61" x="151.5" y="46.5332">Database</text><path d="M141.5,44.6094 C141.5,54.6094 182,54.6094 182,54.6094 C182,54.6094 222.5,54.6094 222.5,44.6094 " fill="none" style="stroke: #000000; stroke-width: 1.0;"/><text fill="#000000" font-family="sans-serif" font-size="14" lengthAdjust="spacingAndGlyphs" textLength="46" x="157.5" y="68.1426">USERS</text><path d="M141.5,70.2188 C141.5,80.2188 182,80.2188 182,80.2188 C182,80.2188 222.5,80.2188 222.5,70.2188 " fill="none" style="stroke: #000000; stroke-width: 1.0; stroke-dasharray: 1.0,2.0;"/><text fill="#000000" font-family="sans-serif" font-size="14" lengthAdjust="spacingAndGlyphs" textLength="20" x="157.5" y="93.752">. . .</text><!--MD5=[164906b3333609339db5c9ea3f301200]
link backend to db--><path d="M111.433,57 C119.715,57 127.998,57 136.28,57 " fill="none" id="backend-db" style="stroke: #A80036; stroke-width: 1.0;"/><polygon fill="#A80036" points="141.437,57,132.437,53,136.437,57,132.437,61,141.437,57" style="stroke: #A80036; stroke-width: 1.0;"/><polygon fill="#A80036" points="106.203,57,115.203,61,111.203,57,115.203,53,106.203,57" style="stroke: #A80036; stroke-width: 1.0;"/><!--MD5=[175d7e287ee97f28fd20b21de0705f84]
@startuml

node backend [
    Back End
]

database db [
    Database
    - - - -
    USERS
    ....
    . . .
]

backend <-> db

@enduml

PlantUML version 1.2019.12(Sun Nov 03 05:24:54 EST 2019)
(APACHE source distribution)
Java Runtime: OpenJDK Runtime Environment
JVM: OpenJDK 64-Bit Server VM
Java Version: 13.0.1+9
Operating System: Windows 10
Default Encoding: Cp1252
Language: en
Country: US
--></g></svg>