<?xml version="1.0" encoding="UTF-8" standalone="no"?><svg xmlns="http://www.w3.org/2000/svg" xmlns:xlink="http://www.w3.org/1999/xlink" contentScriptType="application/ecmascript" contentStyleType="text/css" height="451px" preserveAspectRatio="none" style="width:645px;height:451px;" version="1.1" viewBox="0 0 645 451" width="645px" zoomAndPan="magnify"><defs><filter height="300%" id="f64vjypug6no7" width="300%" x="-1" y="-1"><feGaussianBlur result="blurOut" stdDeviation="2.0"/><feColorMatrix in="blurOut" result="blurOut2" type="matrix" values="0 0 0 0 0 0 0 0 0 0 0 0 0 0 0 0 0 0 .4 0"/><feOffset dx="4.0" dy="4.0" in="blurOut2" result="blurOut3"/><feBlend in="SourceGraphic" in2="blurOut3" mode="normal"/></filter></defs><g><!--MD5=[4887c039ab7c4e2fd2bceb0aa78af1d1]
cluster Operating System--><rect fill="#FFFFFF" filter="url(#f64vjypug6no7)" height="90" style="stroke: #000000; stroke-width: 1.5;" width="298" x="234" y="350"/><text fill="#000000" font-family="sans-serif" font-size="14" font-weight="bold" lengthAdjust="spacingAndGlyphs" textLength="124" x="321" y="366.5332">Operating System</text><!--MD5=[61c41a14a0f790ada34cbd71756aea65]
cluster Driver--><rect fill="#FFFFFF" filter="url(#f64vjypug6no7)" height="90" style="stroke: #000000; stroke-width: 1.5;" width="612" x="22" y="236"/><text fill="#000000" font-family="sans-serif" font-size="14" font-weight="bold" lengthAdjust="spacingAndGlyphs" textLength="44" x="306" y="252.5332">Driver</text><!--MD5=[933b4e6a54b0f1add2bb187149f1914f]
cluster Minikube Node--><rect fill="#FFFFFF" filter="url(#f64vjypug6no7)" height="188" style="stroke: #000000; stroke-width: 1.5;" width="280" x="218" y="24"/><text fill="#000000" font-family="sans-serif" font-size="14" font-weight="bold" lengthAdjust="spacingAndGlyphs" textLength="106" x="305" y="40.5332">Minikube Node</text><!--MD5=[5949fba844c239063e365cf8f1edeb91]
entity Windows--><rect fill="#FEFECE" filter="url(#f64vjypug6no7)" height="37.6094" style="stroke: #000000; stroke-width: 1.5;" width="76" x="440" y="386"/><text fill="#000000" font-family="sans-serif" font-size="14" lengthAdjust="spacingAndGlyphs" textLength="56" x="450" y="410.5332">Windows</text><!--MD5=[46321cb1e7f5dcfba913b052d7465d6d]
entity MacOS--><rect fill="#FEFECE" filter="url(#f64vjypug6no7)" height="37.6094" style="stroke: #000000; stroke-width: 1.5;" width="66" x="339" y="386"/><text fill="#000000" font-family="sans-serif" font-size="14" lengthAdjust="spacingAndGlyphs" textLength="46" x="349" y="410.5332">MacOS</text><!--MD5=[7453483e40b7d823ca17f971f918f6f5]
entity Linux--><rect fill="#FEFECE" filter="url(#f64vjypug6no7)" height="37.6094" style="stroke: #000000; stroke-width: 1.5;" width="53" x="250.5" y="386"/><text fill="#000000" font-family="sans-serif" font-size="14" lengthAdjust="spacingAndGlyphs" textLength="33" x="260.5" y="410.5332">Linux</text><!--MD5=[51cf7ba54943de7db56b08eb61ff70d9]
entity hyperv--><rect fill="#FEFECE" filter="url(#f64vjypug6no7)" height="37.6094" style="stroke: #000000; stroke-width: 1.5;" width="71" x="546.5" y="272"/><text fill="#000000" font-family="sans-serif" font-size="14" lengthAdjust="spacingAndGlyphs" textLength="51" x="556.5" y="296.5332">Hyper-V</text><!--MD5=[cec8e3ec4ee5e8fc987ab14798725791]
entity VirtualBox--><rect fill="#FEFECE" filter="url(#f64vjypug6no7)" height="37.6094" style="stroke: #000000; stroke-width: 1.5;" width="83" x="428.5" y="272"/><text fill="#000000" font-family="sans-serif" font-size="14" lengthAdjust="spacingAndGlyphs" textLength="63" x="438.5" y="296.5332">VirtualBox</text><!--MD5=[4ae52bd1c49eb63cdc031aa5457de07e]
entity docker_h--><rect fill="#FEFECE" filter="url(#f64vjypug6no7)" height="37.6094" style="stroke: #000000; stroke-width: 1.5;" width="214" x="179" y="272"/><text fill="#000000" font-family="sans-serif" font-size="14" lengthAdjust="spacingAndGlyphs" textLength="194" x="189" y="296.5332">Docker (on host, experimental)</text><!--MD5=[8159fcd6e2fa83a29240b826e0e66191]
entity none--><rect fill="#FEFECE" filter="url(#f64vjypug6no7)" height="37.6094" style="stroke: #000000; stroke-width: 1.5;" width="105" x="38.5" y="272"/><text fill="#000000" font-family="sans-serif" font-size="14" lengthAdjust="spacingAndGlyphs" textLength="85" x="48.5" y="296.5332">None (native)</text><!--MD5=[efad8c5f8aea933782aa32ac1688ea17]
entity linux--><rect fill="#FEFECE" filter="url(#f64vjypug6no7)" height="37.6094" style="stroke: #000000; stroke-width: 1.5;" width="77" x="312.5" y="158"/><text fill="#000000" font-family="sans-serif" font-size="14" lengthAdjust="spacingAndGlyphs" textLength="57" x="322.5" y="182.5332">Linux VM</text><!--MD5=[648cf3a753394be15047f18f3217c3f5]
entity docker_vm--><rect fill="#FEFECE" filter="url(#f64vjypug6no7)" height="37.6094" style="stroke: #000000; stroke-width: 1.5;" width="119" x="362.5" y="60"/><text fill="#000000" font-family="sans-serif" font-size="14" lengthAdjust="spacingAndGlyphs" textLength="99" x="372.5" y="84.5332">Docker (on VM)</text><!--MD5=[003bc8d3bcf70ea39831b7d42e34a0c6]
entity Kubernetes--><rect fill="#FEFECE" filter="url(#f64vjypug6no7)" height="37.6094" style="stroke: #000000; stroke-width: 1.5;" width="93" x="234.5" y="60"/><text fill="#000000" font-family="sans-serif" font-size="14" lengthAdjust="spacingAndGlyphs" textLength="73" x="244.5" y="84.5332">Kubernetes</text><!--MD5=[21c814f67586f512cb280b88fcb812ac]
link docker_vm to Kubernetes--><path d="M362.225,92.92 C352.38,93.526 342.535,93.297 332.689,92.236 " fill="none" id="docker_vm-&gt;Kubernetes" style="stroke: #A80036; stroke-width: 1.0;"/><polygon fill="#A80036" points="327.541,91.604,335.9872,96.6697,332.5038,92.2126,336.9609,88.7292,327.541,91.604" style="stroke: #A80036; stroke-width: 1.0;"/><!--MD5=[aac2b50cdda6f653c8b4d1dc40930b6d]
link Kubernetes to docker_vm--><path d="M327.541,66.396 C337.386,65.043 347.232,64.524 357.077,64.839 " fill="none" id="Kubernetes-&gt;docker_vm" style="stroke: #A80036; stroke-width: 1.0;"/><polygon fill="#A80036" points="362.225,65.08,353.4211,60.6652,357.2304,64.8471,353.0485,68.6565,362.225,65.08" style="stroke: #A80036; stroke-width: 1.0;"/><!--MD5=[61ee5011a98f23db3bfd74d2ffeb1d2f]
link Kubernetes to linux--><path d="M294.166,98.057 C305.631,113.779 322.298,136.638 334.621,153.537 " fill="none" id="Kubernetes-&gt;linux" style="stroke: #A80036; stroke-width: 1.0;"/><polygon fill="#A80036" points="337.655,157.698,335.5847,148.0692,334.7092,153.6579,329.1205,152.7825,337.655,157.698" style="stroke: #A80036; stroke-width: 1.0;"/><!--MD5=[2429fe5dffe58fa5db05ba05b5271a53]
link docker_vm to linux--><path d="M408.645,98.057 C397.018,113.779 380.112,136.638 367.613,153.537 " fill="none" id="docker_vm-&gt;linux" style="stroke: #A80036; stroke-width: 1.0;"/><polygon fill="#A80036" points="364.536,157.698,373.1034,152.8401,367.509,153.6779,366.6712,148.0834,364.536,157.698" style="stroke: #A80036; stroke-width: 1.0;"/><!--MD5=[5edf94aa7ec180d28548fcbfef4ee39c]
link linux to hyperv--><path d="M389.778,182.258 C427.746,187.884 485.995,200.516 529,228 C544.759,238.071 558.364,254.253 567.843,267.559 " fill="none" id="linux-&gt;hyperv" style="stroke: #A80036; stroke-width: 1.0;"/><polygon fill="#A80036" points="570.897,271.948,569.0402,262.2758,568.0413,267.8437,562.4733,266.8449,570.897,271.948" style="stroke: #A80036; stroke-width: 1.0;"/><!--MD5=[570d7572131a235c6c0f6836be9d583c]
link linux to VirtualBox--><path d="M374.038,196.158 C385.428,205.393 399.221,216.972 411,228 C424.546,240.682 438.916,255.745 450.083,267.848 " fill="none" id="linux-&gt;VirtualBox" style="stroke: #A80036; stroke-width: 1.0;"/><polygon fill="#A80036" points="453.741,271.831,450.5986,262.4969,450.3586,268.1487,444.7069,267.9087,453.741,271.831" style="stroke: #A80036; stroke-width: 1.0;"/><!--MD5=[fa5d3fa7a0d28069a5d3fc92fe9475a2]
link linux to docker_h--><path d="M340.267,196.495 C329.003,215.903 311.284,246.434 299.179,267.292 " fill="none" id="linux-&gt;docker_h" style="stroke: #A80036; stroke-width: 1.0;"/><polygon fill="#A80036" points="296.534,271.85,304.5115,266.0742,299.044,267.5257,297.5926,262.0582,296.534,271.85" style="stroke: #A80036; stroke-width: 1.0;"/><!--MD5=[69550a8e51fd988df643352bf0180396]
link linux to none--><path d="M312.301,182.79 C272.48,188.922 209.576,202.022 161,228 C141.764,238.287 123.437,254.856 110.364,268.278 " fill="none" id="linux-&gt;none" style="stroke: #A80036; stroke-width: 1.0;"/><polygon fill="#A80036" points="106.819,271.972,115.9366,268.2478,110.2809,268.3643,110.1643,262.7087,106.819,271.972" style="stroke: #A80036; stroke-width: 1.0;"/><!--MD5=[ee50a71dbecb023f22fd879c0f0e3f4a]
link hyperv to Windows--><path d="M564.827,310.495 C546.577,330.147 517.737,361.2059 498.358,382.0763 " fill="none" id="hyperv-&gt;Windows" style="stroke: #A80036; stroke-width: 1.0;"/><polygon fill="#A80036" points="494.854,385.8496,503.9091,381.9759,498.2561,382.1855,498.0465,376.5325,494.854,385.8496" style="stroke: #A80036; stroke-width: 1.0;"/><!--MD5=[425fc68495d6b832a8fbe3927c5d322a]
link VirtualBox to Windows--><path d="M471.321,310.495 C472.696,329.74 474.852,359.9221 476.34,380.7643 " fill="none" id="VirtualBox-&gt;Windows" style="stroke: #A80036; stroke-width: 1.0;"/><polygon fill="#A80036" points="476.704,385.8496,480.0525,376.5874,476.3477,380.8623,472.0728,377.1575,476.704,385.8496" style="stroke: #A80036; stroke-width: 1.0;"/><!--MD5=[b18ccc98b4c62d629804a3ee1dfee623]
link docker_h to Windows--><path d="M355.752,310.034 C378.363,317.766 402.801,328.254 423,342 C438.497,352.546 452.464,368.4143 462.446,381.4569 " fill="none" id="docker_h-&gt;Windows" style="stroke: #A80036; stroke-width: 1.0;"/><polygon fill="#A80036" points="465.675,385.76,463.4718,376.1607,462.6737,381.761,457.0734,380.9629,465.675,385.76" style="stroke: #A80036; stroke-width: 1.0;"/><!--MD5=[7ff911a01b44d8c122459573ac6ba320]
link VirtualBox to MacOS--><path d="M452.294,310.252 C443.359,319.608 432.442,331.265 423,342 C411.587,354.975 399.266,369.9252 389.594,381.8934 " fill="none" id="VirtualBox-&gt;MacOS" style="stroke: #A80036; stroke-width: 1.0;"/><polygon fill="#A80036" points="386.421,385.8307,395.1832,381.3337,389.5587,381.9378,388.9546,376.3133,386.421,385.8307" style="stroke: #A80036; stroke-width: 1.0;"/><!--MD5=[e62d40de2c5dbcd141eef73fc7570754]
link docker_h to MacOS--><path d="M300.201,310.495 C315.229,330.066 338.942,360.9483 354.966,381.8159 " fill="none" id="docker_h-&gt;MacOS" style="stroke: #A80036; stroke-width: 1.0;"/><polygon fill="#A80036" points="358.063,385.8496,355.7541,376.2752,355.0178,381.8839,349.409,381.1476,358.063,385.8496" style="stroke: #A80036; stroke-width: 1.0;"/><!--MD5=[c5017562508b7a9c52a5e752e20755d3]
link VirtualBox to Linux--><path d="M450.253,310.103 C439.462,318.892 425.388,328.68 411,334 C373.75,347.773 356.538,322.394 322,342 C306.412,350.849 294.765,367.5627 287.23,381.409 " fill="none" id="VirtualBox-&gt;Linux" style="stroke: #A80036; stroke-width: 1.0;"/><polygon fill="#A80036" points="284.833,385.9792,292.5566,379.868,287.1561,381.5516,285.4725,376.1511,284.833,385.9792" style="stroke: #A80036; stroke-width: 1.0;"/><!--MD5=[84d7913a0efe775a4ae401e3a56ba832]
link docker_h to Linux--><path d="M284.514,310.495 C282.967,329.74 280.542,359.9221 278.867,380.7643 " fill="none" id="docker_h-&gt;Linux" style="stroke: #A80036; stroke-width: 1.0;"/><polygon fill="#A80036" points="278.459,385.8496,283.1673,377.1991,278.8597,380.8657,275.193,376.558,278.459,385.8496" style="stroke: #A80036; stroke-width: 1.0;"/><!--MD5=[7d65906fde6ffbe2afe2a9642d0e66ca]
link none to Linux--><path d="M121.298,310.244 C155.582,330.888 211.145,364.3456 245.798,385.2117 " fill="none" id="none-&gt;Linux" style="stroke: #A80036; stroke-width: 1.0;"/><polygon fill="#A80036" points="250.335,387.9438,244.6893,379.8737,246.0519,385.364,240.5616,386.7266,250.335,387.9438" style="stroke: #A80036; stroke-width: 1.0;"/><!--MD5=[91b6e51a37cc9c18efe9d106138ce9cd]
@startuml

rectangle "Operating System" {
    rectangle Windows
    rectangle MacOS
    rectangle Linux
}

rectangle "Driver" {
    rectangle hyperv [
        Hyper-V
    ]
    rectangle VirtualBox
    rectangle docker_h [
        Docker (on host, experimental)
    ]
    rectangle none [
        None (native)
    ]
}

rectangle "Minikube Node" {
    rectangle linux [
        Linux VM
    ]
    rectangle docker_vm [
        Docker (on VM)
    ]
    rectangle Kubernetes
}

docker_vm -> Kubernetes
Kubernetes -> docker_vm
Kubernetes - -> linux
docker_vm - -> linux
linux - -> hyperv
linux - -> VirtualBox
linux - -> docker_h
linux - -> none
hyperv - -> Windows
VirtualBox - -> Windows
docker_h - -> Windows
VirtualBox - -> MacOS
docker_h - -> MacOS
VirtualBox - -> Linux
docker_h - -> Linux
none - -> Linux

@enduml

PlantUML version 1.2019.12(Sun Nov 03 05:24:54 EST 2019)
(APACHE source distribution)
Java Runtime: OpenJDK Runtime Environment
JVM: OpenJDK 64-Bit Server VM
Java Version: 13.0.1+9
Operating System: Windows 10
Default Encoding: Cp1252
Language: en
Country: US
--></g></svg>