<?xml version="1.0" encoding="UTF-8" standalone="no"?><svg xmlns="http://www.w3.org/2000/svg" xmlns:xlink="http://www.w3.org/1999/xlink" contentScriptType="application/ecmascript" contentStyleType="text/css" height="158px" preserveAspectRatio="none" style="width:194px;height:158px;" version="1.1" viewBox="0 0 194 158" width="194px" zoomAndPan="magnify"><defs><filter height="300%" id="f10poomvndt2wg" width="300%" x="-1" y="-1"><feGaussianBlur result="blurOut" stdDeviation="2.0"/><feColorMatrix in="blurOut" result="blurOut2" type="matrix" values="0 0 0 0 0 0 0 0 0 0 0 0 0 0 0 0 0 0 .4 0"/><feOffset dx="4.0" dy="4.0" in="blurOut2" result="blurOut3"/><feBlend in="SourceGraphic" in2="blurOut3" mode="normal"/></filter></defs><g><!--MD5=[044fbd4e7b446c79fd032b45e870dad4]
class one1--><rect fill="#FEFECE" filter="url(#f10poomvndt2wg)" height="39.9688" id="one1" style="stroke: #A80036; stroke-width: 1.5;" width="31" x="6" y="8"/><text fill="#000000" font-family="sans-serif" font-size="12" lengthAdjust="spacingAndGlyphs" textLength="25" x="9" y="24.1387">One</text><line style="stroke: #A80036; stroke-width: 1.5;" x1="7" x2="36" y1="31.9688" y2="31.9688"/><line style="stroke: #A80036; stroke-width: 1.5;" x1="7" x2="36" y1="39.9688" y2="39.9688"/><!--MD5=[c0a791520f9ff40beb2d59f2387259a6]
class one2--><rect fill="#FEFECE" filter="url(#f10poomvndt2wg)" height="39.9688" id="one2" style="stroke: #A80036; stroke-width: 1.5;" width="31" x="6" y="108"/><text fill="#000000" font-family="sans-serif" font-size="12" lengthAdjust="spacingAndGlyphs" textLength="25" x="9" y="124.1387">One</text><line style="stroke: #A80036; stroke-width: 1.5;" x1="7" x2="36" y1="131.9688" y2="131.9688"/><line style="stroke: #A80036; stroke-width: 1.5;" x1="7" x2="36" y1="139.9688" y2="139.9688"/><!--MD5=[4a5647b1f723707339e5985186eb92fa]
class one3--><rect fill="#FEFECE" filter="url(#f10poomvndt2wg)" height="39.9688" id="one3" style="stroke: #A80036; stroke-width: 1.5;" width="31" x="76" y="8"/><text fill="#000000" font-family="sans-serif" font-size="12" lengthAdjust="spacingAndGlyphs" textLength="25" x="79" y="24.1387">One</text><line style="stroke: #A80036; stroke-width: 1.5;" x1="77" x2="106" y1="31.9688" y2="31.9688"/><line style="stroke: #A80036; stroke-width: 1.5;" x1="77" x2="106" y1="39.9688" y2="39.9688"/><!--MD5=[0d0a1b8bc3c27a88a009dd699a6b595c]
class many1--><rect fill="#FEFECE" filter="url(#f10poomvndt2wg)" height="39.9688" id="many1" style="stroke: #A80036; stroke-width: 1.5;" width="38" x="72.5" y="108"/><text fill="#000000" font-family="sans-serif" font-size="12" lengthAdjust="spacingAndGlyphs" textLength="32" x="75.5" y="124.1387">Many</text><line style="stroke: #A80036; stroke-width: 1.5;" x1="73.5" x2="109.5" y1="131.9688" y2="131.9688"/><line style="stroke: #A80036; stroke-width: 1.5;" x1="73.5" x2="109.5" y1="139.9688" y2="139.9688"/><!--MD5=[c5a1b05c921a276377943aff88ec232d]
class many2--><rect fill="#FEFECE" filter="url(#f10poomvndt2wg)" height="39.9688" id="many2" style="stroke: #A80036; stroke-width: 1.5;" width="38" x="145.5" y="8"/><text fill="#000000" font-family="sans-serif" font-size="12" lengthAdjust="spacingAndGlyphs" textLength="32" x="148.5" y="24.1387">Many</text><line style="stroke: #A80036; stroke-width: 1.5;" x1="146.5" x2="182.5" y1="31.9688" y2="31.9688"/><line style="stroke: #A80036; stroke-width: 1.5;" x1="146.5" x2="182.5" y1="39.9688" y2="39.9688"/><!--MD5=[9e98b68421a454beaaa1a4b3750d5e43]
class many3--><rect fill="#FEFECE" filter="url(#f10poomvndt2wg)" height="39.9688" id="many3" style="stroke: #A80036; stroke-width: 1.5;" width="38" x="145.5" y="108"/><text fill="#000000" font-family="sans-serif" font-size="12" lengthAdjust="spacingAndGlyphs" textLength="32" x="148.5" y="124.1387">Many</text><line style="stroke: #A80036; stroke-width: 1.5;" x1="146.5" x2="182.5" y1="131.9688" y2="131.9688"/><line style="stroke: #A80036; stroke-width: 1.5;" x1="146.5" x2="182.5" y1="139.9688" y2="139.9688"/><!--MD5=[f64ce936ba0ae044f1521988a9f34b3d]
link one1 to one2--><path d="M21.5,55.2365 C21.5,55.2365 21.5,100.7936 21.5,100.7936 " fill="none" id="one1-one2" style="stroke: #A80036; stroke-width: 1.0;"/><line style="stroke: #A80036; stroke-width: 1.0;" x1="25.5" x2="17.5" y1="103.7936" y2="103.7936"/><line style="stroke: #A80036; stroke-width: 1.0;" x1="25.5" x2="17.5" y1="100.7936" y2="100.7936"/><line style="stroke: #A80036; stroke-width: 1.0;" x1="21.5" x2="21.5" y1="99.7936" y2="107.7936"/><line style="stroke: #A80036; stroke-width: 1.0;" x1="17.5" x2="25.5" y1="52.2365" y2="52.2365"/><line style="stroke: #A80036; stroke-width: 1.0;" x1="17.5" x2="25.5" y1="55.2365" y2="55.2365"/><line style="stroke: #A80036; stroke-width: 1.0;" x1="21.5" x2="21.5" y1="56.2365" y2="48.2365"/><!--MD5=[a666989c38345bac2a230846b554f51f]
link one3 to many1--><path d="M91.5,56.2365 C91.5,56.2365 91.5,99.7936 91.5,99.7936 " fill="none" id="one3-many1" style="stroke: #A80036; stroke-width: 1.0;"/><line style="stroke: #A80036; stroke-width: 1.0;" x1="91.5" x2="97.5" y1="99.7936" y2="107.7936"/><line style="stroke: #A80036; stroke-width: 1.0;" x1="91.5" x2="85.5" y1="99.7936" y2="107.7936"/><line style="stroke: #A80036; stroke-width: 1.0;" x1="91.5" x2="91.5" y1="99.7936" y2="107.7936"/><line style="stroke: #A80036; stroke-width: 1.0;" x1="95.5" x2="87.5" y1="97.7936" y2="97.7936"/><line style="stroke: #A80036; stroke-width: 1.0;" x1="87.5" x2="95.5" y1="52.2365" y2="52.2365"/><line style="stroke: #A80036; stroke-width: 1.0;" x1="87.5" x2="95.5" y1="55.2365" y2="55.2365"/><line style="stroke: #A80036; stroke-width: 1.0;" x1="91.5" x2="91.5" y1="56.2365" y2="48.2365"/><!--MD5=[703fefe2ad4269b5ad2c8e1e769c2f43]
link many2 to many3--><path d="M164.5,56.2365 C164.5,56.2365 164.5,99.7936 164.5,99.7936 " fill="none" id="many2-many3" style="stroke: #A80036; stroke-width: 1.0;"/><line style="stroke: #A80036; stroke-width: 1.0;" x1="164.5" x2="170.5" y1="99.7936" y2="107.7936"/><line style="stroke: #A80036; stroke-width: 1.0;" x1="164.5" x2="158.5" y1="99.7936" y2="107.7936"/><line style="stroke: #A80036; stroke-width: 1.0;" x1="164.5" x2="164.5" y1="99.7936" y2="107.7936"/><line style="stroke: #A80036; stroke-width: 1.0;" x1="168.5" x2="160.5" y1="97.7936" y2="97.7936"/><line style="stroke: #A80036; stroke-width: 1.0;" x1="164.5" x2="158.5" y1="56.2365" y2="48.2365"/><line style="stroke: #A80036; stroke-width: 1.0;" x1="164.5" x2="170.5" y1="56.2365" y2="48.2365"/><line style="stroke: #A80036; stroke-width: 1.0;" x1="164.5" x2="164.5" y1="56.2365" y2="48.2365"/><line style="stroke: #A80036; stroke-width: 1.0;" x1="160.5" x2="168.5" y1="58.2365" y2="58.2365"/><!--MD5=[6ff4202113037f9031a0fa5c5beb561a]
@startuml

hide circle

skinparam linetype ortho

entity one1 as "One"
entity one2 as "One"
entity one3 as "One"
entity many1 as "Many"
entity many2 as "Many"
entity many3 as "Many"

one1 ||- -|| one2
one3 ||- -|{ many1
many2 }|- -|{ many3

@enduml

PlantUML version 1.2020.06(Sun Apr 05 12:38:32 UTC 2020)
(APACHE source distribution)
Java Runtime: OpenJDK Runtime Environment
JVM: OpenJDK 64-Bit Server VM
Java Version: 11.0.7+10-post-Debian-3deb10u1
Operating System: Linux
Default Encoding: ANSI_X3.4-1968
Language: en
Country: US
--></g></svg>