<?xml version="1.0" encoding="UTF-8" standalone="no"?><svg xmlns="http://www.w3.org/2000/svg" xmlns:xlink="http://www.w3.org/1999/xlink" contentScriptType="application/ecmascript" contentStyleType="text/css" height="417px" preserveAspectRatio="none" style="width:407px;height:417px;" version="1.1" viewBox="0 0 407 417" width="407px" zoomAndPan="magnify"><defs><filter height="300%" id="f1sba10uax5anu" width="300%" x="-1" y="-1"><feGaussianBlur result="blurOut" stdDeviation="2.0"/><feColorMatrix in="blurOut" result="blurOut2" type="matrix" values="0 0 0 0 0 0 0 0 0 0 0 0 0 0 0 0 0 0 .4 0"/><feOffset dx="4.0" dy="4.0" in="blurOut2" result="blurOut3"/><feBlend in="SourceGraphic" in2="blurOut3" mode="normal"/></filter></defs><g><!--MD5=[23cbaadc18b1780d966e07254adaec4d]
cluster frontend--><rect fill="#FFFFFF" filter="url(#f1sba10uax5anu)" height="81" style="stroke: #000000; stroke-width: 1.5;" width="291" x="22" y="16"/><text fill="#000000" font-family="sans-serif" font-size="14" font-weight="bold" lengthAdjust="spacingAndGlyphs" textLength="76" x="129.5" y="30.9951">Front End</text><!--MD5=[135e7372cb9a1f200be92e6210a104ab]
cluster messaging--><rect fill="#FFFFFF" filter="url(#f1sba10uax5anu)" height="134" style="stroke: #000000; stroke-width: 1.5;" width="382" x="14" y="144"/><text fill="#000000" font-family="sans-serif" font-size="14" font-weight="bold" lengthAdjust="spacingAndGlyphs" textLength="84" x="163" y="158.9951">Messaging</text><!--MD5=[105e245a3a27a3f411b44191febd87d4]
cluster Back End--><rect fill="#FFFFFF" filter="url(#f1sba10uax5anu)" height="81" style="stroke: #000000; stroke-width: 1.5;" width="287" x="39" y="325"/><text fill="#000000" font-family="sans-serif" font-size="14" font-weight="bold" lengthAdjust="spacingAndGlyphs" textLength="71" x="147" y="339.9951">Back End</text><!--MD5=[0de984c77489102c797a85f6193ba078]
entity frontend1--><polygon fill="#FEFECE" filter="url(#f1sba10uax5anu)" points="30,53,40,43,150,43,150,79.2969,140,89.2969,30,89.2969,30,53" style="stroke: #000000; stroke-width: 1.5;"/><line style="stroke: #000000; stroke-width: 1.5;" x1="140" x2="149" y1="53" y2="44"/><line style="stroke: #000000; stroke-width: 1.5;" x1="30" x2="140" y1="53" y2="53"/><line style="stroke: #000000; stroke-width: 1.5;" x1="140" x2="140" y1="53" y2="89.2969"/><text fill="#000000" font-family="sans-serif" font-size="14" lengthAdjust="spacingAndGlyphs" textLength="80" x="45" y="75.9951">Front End 1</text><!--MD5=[13b0d8ecb7946c1ac154279ab65955d3]
entity frontend2--><polygon fill="#FEFECE" filter="url(#f1sba10uax5anu)" points="185,53,195,43,305,43,305,79.2969,295,89.2969,185,89.2969,185,53" style="stroke: #000000; stroke-width: 1.5;"/><line style="stroke: #000000; stroke-width: 1.5;" x1="295" x2="304" y1="53" y2="44"/><line style="stroke: #000000; stroke-width: 1.5;" x1="185" x2="295" y1="53" y2="53"/><line style="stroke: #000000; stroke-width: 1.5;" x1="295" x2="295" y1="53" y2="89.2969"/><text fill="#000000" font-family="sans-serif" font-size="14" lengthAdjust="spacingAndGlyphs" textLength="80" x="200" y="75.9951">Front End 2</text><!--MD5=[d0cdc767bc436457347309f89c3e8f52]
entity Requests--><path d="M166.5,171 L243.5,171 C248.5,171 248.5,220.5938 248.5,220.5938 C248.5,220.5938 248.5,270.1875 243.5,270.1875 L166.5,270.1875 C161.5,270.1875 161.5,220.5938 161.5,220.5938 C161.5,220.5938 161.5,171 166.5,171 " fill="#FEFECE" filter="url(#f1sba10uax5anu)" style="stroke: #A80036; stroke-width: 1.5;"/><path d="M243.5,171 C238.5,171 238.5,220.5938 238.5,220.5938 C238.5,270.1875 243.5,270.1875 243.5,270.1875 " fill="none" style="stroke: #A80036; stroke-width: 1.5;"/><text fill="#000000" font-family="sans-serif" font-size="14" lengthAdjust="spacingAndGlyphs" textLength="67" x="166.5" y="188.9951">Requests</text><line style="stroke: #A80036; stroke-width: 1.0;" x1="162.5" x2="240.3529" y1="192.2969" y2="192.2969"/><line style="stroke: #A80036; stroke-width: 1.0;" x1="162.5" x2="240.1512" y1="194.2969" y2="194.2969"/><text fill="#000000" font-family="sans-serif" font-size="14" lengthAdjust="spacingAndGlyphs" textLength="26" x="172.5" y="209.292">FE1</text><line style="stroke: #A80036; stroke-width: 1.0;" x1="162.5" x2="237.9033" y1="216.5938" y2="216.5938"/><text fill="#000000" font-family="sans-serif" font-size="14" lengthAdjust="spacingAndGlyphs" textLength="26" x="172.5" y="233.5889">FE2</text><line style="stroke: #A80036; stroke-width: 1.0;" x1="162.5" x2="239.5463" y1="240.8906" y2="240.8906"/><text fill="#000000" font-family="sans-serif" font-size="14" lengthAdjust="spacingAndGlyphs" textLength="20" x="172.5" y="257.8857">. . .</text><!--MD5=[9d60f5fd90d26ed0c888e94079f8175c]
entity response1--><path d="M27,207.5 L121,207.5 C126,207.5 126,220.6484 126,220.6484 C126,220.6484 126,233.7969 121,233.7969 L27,233.7969 C22,233.7969 22,220.6484 22,220.6484 C22,220.6484 22,207.5 27,207.5 " fill="#FEFECE" filter="url(#f1sba10uax5anu)" style="stroke: #A80036; stroke-width: 1.5;"/><path d="M121,207.5 C116,207.5 116,220.6484 116,220.6484 C116,233.7969 121,233.7969 121,233.7969 " fill="none" style="stroke: #A80036; stroke-width: 1.5;"/><text fill="#000000" font-family="sans-serif" font-size="14" lengthAdjust="spacingAndGlyphs" textLength="84" x="27" y="225.4951">Response 1</text><!--MD5=[fa0bae4e1d9d4e9c4af0ad6e7d43d4c4]
entity response2--><path d="M289,207.5 L383,207.5 C388,207.5 388,220.6484 388,220.6484 C388,220.6484 388,233.7969 383,233.7969 L289,233.7969 C284,233.7969 284,220.6484 284,220.6484 C284,220.6484 284,207.5 289,207.5 " fill="#FEFECE" filter="url(#f1sba10uax5anu)" style="stroke: #A80036; stroke-width: 1.5;"/><path d="M383,207.5 C378,207.5 378,220.6484 378,220.6484 C378,233.7969 383,233.7969 383,233.7969 " fill="none" style="stroke: #A80036; stroke-width: 1.5;"/><text fill="#000000" font-family="sans-serif" font-size="14" lengthAdjust="spacingAndGlyphs" textLength="84" x="289" y="225.4951">Response 2</text><!--MD5=[432e4cfc5c157794d0150037c71e5359]
entity backend1--><polygon fill="#FEFECE" filter="url(#f1sba10uax5anu)" points="47,362,57,352,165,352,165,388.2969,155,398.2969,47,398.2969,47,362" style="stroke: #000000; stroke-width: 1.5;"/><line style="stroke: #000000; stroke-width: 1.5;" x1="155" x2="164" y1="362" y2="353"/><line style="stroke: #000000; stroke-width: 1.5;" x1="47" x2="155" y1="362" y2="362"/><line style="stroke: #000000; stroke-width: 1.5;" x1="155" x2="155" y1="362" y2="398.2969"/><text fill="#000000" font-family="sans-serif" font-size="14" lengthAdjust="spacingAndGlyphs" textLength="78" x="62" y="384.9951">Back End 1</text><!--MD5=[a010b37bdcc06e7756167d7cd04ea573]
entity backend2--><polygon fill="#FEFECE" filter="url(#f1sba10uax5anu)" points="200,362,210,352,318,352,318,388.2969,308,398.2969,200,398.2969,200,362" style="stroke: #000000; stroke-width: 1.5;"/><line style="stroke: #000000; stroke-width: 1.5;" x1="308" x2="317" y1="362" y2="353"/><line style="stroke: #000000; stroke-width: 1.5;" x1="200" x2="308" y1="362" y2="362"/><line style="stroke: #000000; stroke-width: 1.5;" x1="308" x2="308" y1="362" y2="398.2969"/><text fill="#000000" font-family="sans-serif" font-size="14" lengthAdjust="spacingAndGlyphs" textLength="78" x="215" y="384.9951">Back End 2</text><!--MD5=[37c507d355b091051c75733bd6143787]
link frontend1 to Requests--><path d="M107.2167,89.1302 C122.4427,109.586 145.242,140.2164 164.9961,166.7556 " fill="none" id="frontend1-&gt;Requests" style="stroke: #A80036; stroke-width: 1.0;"/><polygon fill="#A80036" points="168.1388,170.9777,165.9737,161.3698,165.1534,166.9668,159.5563,166.1465,168.1388,170.9777" style="stroke: #A80036; stroke-width: 1.0;"/><text fill="#000000" font-family="sans-serif" font-size="13" lengthAdjust="spacingAndGlyphs" textLength="23" x="142" y="132.0669">FE1</text><!--MD5=[3bcc761738a9ac0da514f5c0c95633d2]
link frontend2 to Requests--><path d="M239.0116,89.1302 C233.7592,109.4177 225.9158,139.7129 219.0843,166.0995 " fill="none" id="frontend2-&gt;Requests" style="stroke: #A80036; stroke-width: 1.0;"/><polygon fill="#A80036" points="217.8213,170.9777,223.9495,163.2676,219.0746,166.1373,216.2049,161.2624,217.8213,170.9777" style="stroke: #A80036; stroke-width: 1.0;"/><text fill="#000000" font-family="sans-serif" font-size="13" lengthAdjust="spacingAndGlyphs" textLength="23" x="232" y="132.0669">FE2</text><!--MD5=[dbfb3e3016eb724aa90b60799503f467]
link response1 to frontend1--><path d="M75.3701,207.27 C77.9526,182.3328 83.5925,127.8721 87.0665,94.3267 " fill="none" id="response1-&gt;frontend1" style="stroke: #A80036; stroke-width: 1.0;"/><polygon fill="#A80036" points="87.6046,89.1302,82.6986,97.6702,87.0895,94.1036,90.6561,98.4944,87.6046,89.1302" style="stroke: #A80036; stroke-width: 1.0;"/><!--MD5=[f5a5a02c436950f59b1f1b6ad0fb32de]
link response2 to frontend2--><path d="M328.2076,207.27 C313.3987,182.1275 280.9133,126.9736 261.199,93.5027 " fill="none" id="response2-&gt;frontend2" style="stroke: #A80036; stroke-width: 1.0;"/><polygon fill="#A80036" points="258.6236,89.1302,259.7446,98.9151,261.1611,93.4384,266.6378,94.855,258.6236,89.1302" style="stroke: #A80036; stroke-width: 1.0;"/><!--MD5=[dcc15a092a587d826ba2d10bdd4b29c1]
link Requests to backend1--><path d="M173.1308,270.2352 C156.7717,295.7654 137.4572,325.9077 123.7556,347.2905 " fill="none" id="Requests-&gt;backend1" style="stroke: #A80036; stroke-width: 1.0;"/><polygon fill="#A80036" points="120.9201,351.7156,129.1438,346.2961,123.6178,347.5058,122.4081,341.9798,120.9201,351.7156" style="stroke: #A80036; stroke-width: 1.0;"/><text fill="#000000" font-family="sans-serif" font-size="13" lengthAdjust="spacingAndGlyphs" textLength="23" x="154" y="313.0669">FE1</text><!--MD5=[6cc3a80cb44881573b33f7f5bf5c05fe]
link Requests to backend2--><path d="M222.3832,270.2352 C231.2317,295.5518 241.6653,325.4035 249.1269,346.7519 " fill="none" id="Requests-&gt;backend2" style="stroke: #A80036; stroke-width: 1.0;"/><polygon fill="#A80036" points="250.8618,351.7156,251.6683,341.8998,249.2121,346.9956,244.1163,344.5394,250.8618,351.7156" style="stroke: #A80036; stroke-width: 1.0;"/><text fill="#000000" font-family="sans-serif" font-size="13" lengthAdjust="spacingAndGlyphs" textLength="23" x="240" y="313.0669">FE2</text><!--MD5=[b48c5efa6661ab6f42cbf8b45d90ded1]
link backend1 to response1--><path d="M101.2309,351.9741 C94.8289,321.0646 83.5875,266.7898 77.7525,238.6176 " fill="none" id="backend1-&gt;response1" style="stroke: #A80036; stroke-width: 1.0;"/><polygon fill="#A80036" points="76.7283,233.6726,74.6369,243.2968,77.7424,238.5687,82.4706,241.6742,76.7283,233.6726" style="stroke: #A80036; stroke-width: 1.0;"/><!--MD5=[a5caf8c9d72b4868694bdbd979e8fb69]
link backend2 to response2--><path d="M270.4757,351.9741 C285.9443,320.9364 313.1547,266.3389 327.1446,238.2683 " fill="none" id="backend2-&gt;response2" style="stroke: #A80036; stroke-width: 1.0;"/><polygon fill="#A80036" points="329.435,233.6726,321.8405,239.9435,327.2048,238.1476,329.0006,243.5119,329.435,233.6726" style="stroke: #A80036; stroke-width: 1.0;"/><!--MD5=[1d2e07006e1960c09273d6dc3a5eaf6f]
@startuml

rectangle "Front End" as frontend {
    node frontend1 as "Front End 1"
    node frontend2 as "Front End 2"
}

rectangle Messaging as messaging {
    queue Requests [
        Requests
        ====
        FE1
        - - - -
        FE2
        - - - -
        . . .
    ]
    queue response1 as "Response 1"
    queue response2 as "Response 2"
}

rectangle "Back End" {
    node backend1 as "Back End 1"
    node backend2 as "Back End 2"
}

frontend1 - -> Requests: FE1
frontend2 - -> Requests: FE2

response1 - -> frontend1
response2 - -> frontend2

Requests - -> backend1: FE1
Requests - -> backend2: FE2

backend1 - -> response1
backend2 - -> response2

@enduml

PlantUML version 1.2020.06(Sun Apr 05 12:38:32 UTC 2020)
(APACHE source distribution)
Java Runtime: OpenJDK Runtime Environment
JVM: OpenJDK 64-Bit Server VM
Java Version: 11.0.7+10-post-Debian-3deb10u1
Operating System: Linux
Default Encoding: ANSI_X3.4-1968
Language: en
Country: US
--></g></svg>