<?xml version="1.0" encoding="UTF-8" standalone="no"?><svg xmlns="http://www.w3.org/2000/svg" xmlns:xlink="http://www.w3.org/1999/xlink" contentScriptType="application/ecmascript" contentStyleType="text/css" height="224px" preserveAspectRatio="none" style="width:729px;height:224px;" version="1.1" viewBox="0 0 729 224" width="729px" zoomAndPan="magnify"><defs><filter height="300%" id="f139v12hste5i6" width="300%" x="-1" y="-1"><feGaussianBlur result="blurOut" stdDeviation="2.0"/><feColorMatrix in="blurOut" result="blurOut2" type="matrix" values="0 0 0 0 0 0 0 0 0 0 0 0 0 0 0 0 0 0 .4 0"/><feOffset dx="4.0" dy="4.0" in="blurOut2" result="blurOut3"/><feBlend in="SourceGraphic" in2="blurOut3" mode="normal"/></filter></defs><g><!--MD5=[105e245a3a27a3f411b44191febd87d4]
cluster Back End--><polygon fill="#FFFFFF" filter="url(#f139v12hste5i6)" points="14,26.5,24,16.5,485,16.5,485,82.5,475,92.5,14,92.5,14,26.5" style="stroke: #000000; stroke-width: 1.5;"/><line style="stroke: #000000; stroke-width: 1.5;" x1="475" x2="484" y1="26.5" y2="17.5"/><line style="stroke: #000000; stroke-width: 1.5;" x1="14" x2="475" y1="26.5" y2="26.5"/><line style="stroke: #000000; stroke-width: 1.5;" x1="475" x2="475" y1="26.5" y2="92.5"/><text fill="#000000" font-family="sans-serif" font-size="14" font-weight="bold" lengthAdjust="spacingAndGlyphs" textLength="71" x="210" y="42.4951">Back End</text><!--MD5=[a47f41603c9915c1ca3122c85d2837bf]
entity dblib--><rect fill="#FEFECE" filter="url(#f139v12hste5i6)" height="36.2969" style="stroke: #000000; stroke-width: 1.5;" width="272" x="205" y="48.5"/><text fill="#000000" font-family="sans-serif" font-size="14" lengthAdjust="spacingAndGlyphs" textLength="252" x="215" y="71.4951">mysql.connector / psycopg2 / mysqli</text><!--MD5=[91e8730eafef390581e5da16e1ad9577]
entity messaginglib--><rect fill="#FEFECE" filter="url(#f139v12hste5i6)" height="36.2969" style="stroke: #000000; stroke-width: 1.5;" width="147" x="22.5" y="48.5"/><text fill="#000000" font-family="sans-serif" font-size="14" lengthAdjust="spacingAndGlyphs" textLength="127" x="32.5" y="71.4951">pika / php-amqplib</text><!--MD5=[8e2e54331d73736ba4de0fe105a6947e]
entity Messaging--><polygon fill="#FEFECE" filter="url(#f139v12hste5i6)" points="38.5,176,48.5,166,153.5,166,153.5,202.2969,143.5,212.2969,38.5,212.2969,38.5,176" style="stroke: #000000; stroke-width: 1.5;"/><line style="stroke: #000000; stroke-width: 1.5;" x1="143.5" x2="152.5" y1="176" y2="167"/><line style="stroke: #000000; stroke-width: 1.5;" x1="38.5" x2="143.5" y1="176" y2="176"/><line style="stroke: #000000; stroke-width: 1.5;" x1="143.5" x2="143.5" y1="176" y2="212.2969"/><text fill="#000000" font-family="sans-serif" font-size="14" lengthAdjust="spacingAndGlyphs" textLength="75" x="53.5" y="198.9951">Messaging</text><!--MD5=[fa1e3283224feb76407c84b7e90ed808]
entity Database--><path d="M631,54 C631,44 674,44 674,44 C674,44 717,44 717,54 L717,79.2969 C717,89.2969 674,89.2969 674,89.2969 C674,89.2969 631,89.2969 631,79.2969 L631,54 " fill="#FEFECE" filter="url(#f139v12hste5i6)" style="stroke: #000000; stroke-width: 1.5;"/><path d="M631,54 C631,64 674,64 674,64 C674,64 717,64 717,54 " fill="none" style="stroke: #000000; stroke-width: 1.5;"/><text fill="#000000" font-family="sans-serif" font-size="14" lengthAdjust="spacingAndGlyphs" textLength="66" x="641" y="80.9951">Database</text><!--MD5=[a5ab7f835ce10d1ac1afc8af57b4bddb]
link messaginglib to Messaging--><path d="M96,89.6055 C96,109.8073 96,139.2063 96,160.7917 " fill="none" id="messaginglib-Messaging" style="stroke: #A80036; stroke-width: 1.0;"/><polygon fill="#A80036" points="96,165.8237,100,156.8237,96,160.8237,92,156.8237,96,165.8237" style="stroke: #A80036; stroke-width: 1.0;"/><polygon fill="#A80036" points="96,84.5753,92,93.5753,96,89.5753,100,93.5753,96,84.5753" style="stroke: #A80036; stroke-width: 1.0;"/><text fill="#000000" font-family="sans-serif" font-size="13" lengthAdjust="spacingAndGlyphs" textLength="38" x="97" y="132.0669">AMQP</text><!--MD5=[39adba467d2a9b16526fa9c87ac53ad3]
link dblib to Database--><path d="M482.5698,66.5 C533.557,66.5 587.7355,66.5 625.3924,66.5 " fill="none" id="dblib-Database" style="stroke: #A80036; stroke-width: 1.0;"/><polygon fill="#A80036" points="630.8261,66.5,621.8261,62.5,625.8261,66.5,621.8261,70.5,630.8261,66.5" style="stroke: #A80036; stroke-width: 1.0;"/><polygon fill="#A80036" points="477.4047,66.5,486.4047,70.5,482.4047,66.5,486.4047,62.5,477.4047,66.5" style="stroke: #A80036; stroke-width: 1.0;"/><text fill="#000000" font-family="sans-serif" font-size="13" lengthAdjust="spacingAndGlyphs" textLength="117" x="495.5" y="59.5669">DB proto over TCP</text><!--MD5=[53b129f17d8f930892dadbcc21b26443]
@startuml

node "Back End" {
    rectangle dblib [
        mysql.connector / psycopg2 / mysqli
    ]
    rectangle messaginglib [
        pika / php-amqplib
    ]
}

node Messaging
database Database

messaginglib <- -> Messaging : AMQP
dblib <-> Database : DB proto over TCP

@enduml

PlantUML version 1.2020.06(Sun Apr 05 12:38:32 UTC 2020)
(APACHE source distribution)
Java Runtime: OpenJDK Runtime Environment
JVM: OpenJDK 64-Bit Server VM
Java Version: 11.0.7+10-post-Debian-3deb10u1
Operating System: Linux
Default Encoding: ANSI_X3.4-1968
Language: en
Country: US
--></g></svg>