<?xml version="1.0" encoding="UTF-8" standalone="no"?><svg xmlns="http://www.w3.org/2000/svg" xmlns:xlink="http://www.w3.org/1999/xlink" contentScriptType="application/ecmascript" contentStyleType="text/css" height="245px" preserveAspectRatio="none" style="width:693px;height:245px;" version="1.1" viewBox="0 0 693 245" width="693px" zoomAndPan="magnify"><defs><filter height="300%" id="f139v12hste5i6" width="300%" x="-1" y="-1"><feGaussianBlur result="blurOut" stdDeviation="2.0"/><feColorMatrix in="blurOut" result="blurOut2" type="matrix" values="0 0 0 0 0 0 0 0 0 0 0 0 0 0 0 0 0 0 .4 0"/><feOffset dx="4.0" dy="4.0" in="blurOut2" result="blurOut3"/><feBlend in="SourceGraphic" in2="blurOut3" mode="normal"/></filter></defs><g><!--MD5=[105e245a3a27a3f411b44191febd87d4]
cluster Back End--><polygon fill="#FFFFFF" filter="url(#f139v12hste5i6)" points="22,34.5,32,24.5,473,24.5,473,109.5,463,119.5,22,119.5,22,34.5" style="stroke: #000000; stroke-width: 1.5;"/><line style="stroke: #000000; stroke-width: 1.5;" x1="463" x2="472" y1="34.5" y2="25.5"/><line style="stroke: #000000; stroke-width: 1.5;" x1="22" x2="463" y1="34.5" y2="34.5"/><line style="stroke: #000000; stroke-width: 1.5;" x1="463" x2="463" y1="34.5" y2="119.5"/><text fill="#000000" font-family="sans-serif" font-size="14" font-weight="bold" lengthAdjust="spacingAndGlyphs" textLength="65" x="211" y="52.0332">Back End</text><!--MD5=[a47f41603c9915c1ca3122c85d2837bf]
entity dblib--><rect fill="#FEFECE" filter="url(#f139v12hste5i6)" height="37.6094" style="stroke: #000000; stroke-width: 1.5;" width="247" x="209.5" y="65.5"/><text fill="#000000" font-family="sans-serif" font-size="14" lengthAdjust="spacingAndGlyphs" textLength="227" x="219.5" y="90.0332">mysql.connector / psycopg2 / mysqli</text><!--MD5=[91e8730eafef390581e5da16e1ad9577]
entity messaginglib--><rect fill="#FEFECE" filter="url(#f139v12hste5i6)" height="37.6094" style="stroke: #000000; stroke-width: 1.5;" width="136" x="38" y="65.5"/><text fill="#000000" font-family="sans-serif" font-size="14" lengthAdjust="spacingAndGlyphs" textLength="116" x="48" y="90.0332">pika / php-amqplib</text><!--MD5=[8e2e54331d73736ba4de0fe105a6947e]
entity Messaging--><polygon fill="#FEFECE" filter="url(#f139v12hste5i6)" points="52,196,62,186,160,186,160,223.6094,150,233.6094,52,233.6094,52,196" style="stroke: #000000; stroke-width: 1.5;"/><line style="stroke: #000000; stroke-width: 1.5;" x1="150" x2="159" y1="196" y2="187"/><line style="stroke: #000000; stroke-width: 1.5;" x1="52" x2="150" y1="196" y2="196"/><line style="stroke: #000000; stroke-width: 1.5;" x1="150" x2="150" y1="196" y2="233.6094"/><text fill="#000000" font-family="sans-serif" font-size="14" lengthAdjust="spacingAndGlyphs" textLength="68" x="67" y="220.5332">Messaging</text><!--MD5=[fa1e3283224feb76407c84b7e90ed808]
entity Database--><path d="M600.5,71 C600.5,61 641,61 641,61 C641,61 681.5,61 681.5,71 L681.5,97.6094 C681.5,107.6094 641,107.6094 641,107.6094 C641,107.6094 600.5,107.6094 600.5,97.6094 L600.5,71 " fill="#FEFECE" filter="url(#f139v12hste5i6)" style="stroke: #000000; stroke-width: 1.5;"/><path d="M600.5,71 C600.5,81 641,81 641,81 C641,81 681.5,81 681.5,71 " fill="none" style="stroke: #000000; stroke-width: 1.5;"/><text fill="#000000" font-family="sans-serif" font-size="14" lengthAdjust="spacingAndGlyphs" textLength="61" x="610.5" y="99.5332">Database</text><!--MD5=[a5ab7f835ce10d1ac1afc8af57b4bddb]
link messaginglib to Messaging--><path d="M106,108.794 C106,129.161 106,158.7998 106,180.5614 " fill="none" id="messaginglib-Messaging" style="stroke: #A80036; stroke-width: 1.0;"/><polygon fill="#A80036" points="106,185.6345,110,176.6345,106,180.6345,102,176.6345,106,185.6345" style="stroke: #A80036; stroke-width: 1.0;"/><polygon fill="#A80036" points="106,103.723,102,112.723,106,108.723,110,112.723,106,103.723" style="stroke: #A80036; stroke-width: 1.0;"/><text fill="#000000" font-family="sans-serif" font-size="13" lengthAdjust="spacingAndGlyphs" textLength="39" x="107" y="152.4951">AMQP</text><!--MD5=[39adba467d2a9b16526fa9c87ac53ad3]
link dblib to Database--><path d="M461.617,84.5 C509.07,84.5 559.83,84.5 595.199,84.5 " fill="none" id="dblib-Database" style="stroke: #A80036; stroke-width: 1.0;"/><polygon fill="#A80036" points="600.304,84.5,591.304,80.5,595.304,84.5,591.304,88.5,600.304,84.5" style="stroke: #A80036; stroke-width: 1.0;"/><polygon fill="#A80036" points="456.501,84.5,465.501,88.5,461.501,84.5,465.501,80.5,456.501,84.5" style="stroke: #A80036; stroke-width: 1.0;"/><text fill="#000000" font-family="sans-serif" font-size="13" lengthAdjust="spacingAndGlyphs" textLength="107" x="475" y="77.9951">DB proto over TCP</text><!--MD5=[9e7360b881cad40efd2a47d8b7545c3c]
@startuml

node "Back End" {
    rectangle dblib [
        mysql.connector / psycopg2 / mysqli
    ]
    rectangle messaginglib [
        pika / php-amqplib
    ]
}

node Messaging
database Database

messaginglib <- -> Messaging : AMQP
dblib <-> Database : DB proto over TCP

@enduml

PlantUML version 1.2019.12(Sun Nov 03 05:24:54 EST 2019)
(APACHE source distribution)
Java Runtime: OpenJDK Runtime Environment
JVM: OpenJDK 64-Bit Server VM
Java Version: 13.0.1+9
Operating System: Windows 10
Default Encoding: Cp1252
Language: en
Country: US
--></g></svg>