<?xml version="1.0" encoding="UTF-8" standalone="no"?><svg xmlns="http://www.w3.org/2000/svg" xmlns:xlink="http://www.w3.org/1999/xlink" contentScriptType="application/ecmascript" contentStyleType="text/css" height="491px" preserveAspectRatio="none" style="width:407px;height:491px;" version="1.1" viewBox="0 0 407 491" width="407px" zoomAndPan="magnify"><defs><filter height="300%" id="f1sba10uax5anu" width="300%" x="-1" y="-1"><feGaussianBlur result="blurOut" stdDeviation="2.0"/><feColorMatrix in="blurOut" result="blurOut2" type="matrix" values="0 0 0 0 0 0 0 0 0 0 0 0 0 0 0 0 0 0 .4 0"/><feOffset dx="4.0" dy="4.0" in="blurOut2" result="blurOut3"/><feBlend in="SourceGraphic" in2="blurOut3" mode="normal"/></filter></defs><g><!--MD5=[23cbaadc18b1780d966e07254adaec4d]
cluster frontend--><rect fill="#FFFFFF" filter="url(#f1sba10uax5anu)" height="100" style="stroke: #000000; stroke-width: 1.5;" width="298" x="52" y="24"/><text fill="#000000" font-family="sans-serif" font-size="14" font-weight="bold" lengthAdjust="spacingAndGlyphs" textLength="69" x="166.5" y="40.5332">Front End</text><!--MD5=[135e7372cb9a1f200be92e6210a104ab]
cluster messaging--><rect fill="#FFFFFF" filter="url(#f1sba10uax5anu)" height="156" style="stroke: #000000; stroke-width: 1.5;" width="374" x="22" y="174"/><text fill="#000000" font-family="sans-serif" font-size="14" font-weight="bold" lengthAdjust="spacingAndGlyphs" textLength="77" x="170.5" y="190.5332">Messaging</text><!--MD5=[105e245a3a27a3f411b44191febd87d4]
cluster Back End--><rect fill="#FFFFFF" filter="url(#f1sba10uax5anu)" height="100" style="stroke: #000000; stroke-width: 1.5;" width="291" x="54" y="380"/><text fill="#000000" font-family="sans-serif" font-size="14" font-weight="bold" lengthAdjust="spacingAndGlyphs" textLength="65" x="167" y="396.5332">Back End</text><!--MD5=[0de984c77489102c797a85f6193ba078]
entity frontend1--><polygon fill="#FEFECE" filter="url(#f1sba10uax5anu)" points="68.5,70,78.5,60,183.5,60,183.5,97.6094,173.5,107.6094,68.5,107.6094,68.5,70" style="stroke: #000000; stroke-width: 1.5;"/><line style="stroke: #000000; stroke-width: 1.5;" x1="173.5" x2="182.5" y1="70" y2="61"/><line style="stroke: #000000; stroke-width: 1.5;" x1="68.5" x2="173.5" y1="70" y2="70"/><line style="stroke: #000000; stroke-width: 1.5;" x1="173.5" x2="173.5" y1="70" y2="107.6094"/><text fill="#000000" font-family="sans-serif" font-size="14" lengthAdjust="spacingAndGlyphs" textLength="75" x="83.5" y="94.5332">Front End 1</text><!--MD5=[13b0d8ecb7946c1ac154279ab65955d3]
entity frontend2--><polygon fill="#FEFECE" filter="url(#f1sba10uax5anu)" points="218.5,70,228.5,60,333.5,60,333.5,97.6094,323.5,107.6094,218.5,107.6094,218.5,70" style="stroke: #000000; stroke-width: 1.5;"/><line style="stroke: #000000; stroke-width: 1.5;" x1="323.5" x2="332.5" y1="70" y2="61"/><line style="stroke: #000000; stroke-width: 1.5;" x1="218.5" x2="323.5" y1="70" y2="70"/><line style="stroke: #000000; stroke-width: 1.5;" x1="323.5" x2="323.5" y1="70" y2="107.6094"/><text fill="#000000" font-family="sans-serif" font-size="14" lengthAdjust="spacingAndGlyphs" textLength="75" x="233.5" y="94.5332">Front End 2</text><!--MD5=[d0cdc767bc436457347309f89c3e8f52]
entity Requests--><path d="M174,210 L244,210 C249,210 249,262.2188 249,262.2188 C249,262.2188 249,314.4375 244,314.4375 L174,314.4375 C169,314.4375 169,262.2188 169,262.2188 C169,262.2188 169,210 174,210 " fill="#FEFECE" filter="url(#f1sba10uax5anu)" style="stroke: #A80036; stroke-width: 1.5;"/><path d="M244,210 C239,210 239,262.2188 239,262.2188 C239,314.4375 244,314.4375 244,314.4375 " fill="none" style="stroke: #A80036; stroke-width: 1.5;"/><text fill="#000000" font-family="sans-serif" font-size="14" lengthAdjust="spacingAndGlyphs" textLength="60" x="174" y="229.5332">Requests</text><line style="stroke: #A80036; stroke-width: 1.0;" x1="170" x2="240.8351" y1="232.6094" y2="232.6094"/><line style="stroke: #A80036; stroke-width: 1.0;" x1="170" x2="240.6436" y1="234.6094" y2="234.6094"/><text fill="#000000" font-family="sans-serif" font-size="14" lengthAdjust="spacingAndGlyphs" textLength="26" x="180" y="251.1426">FE1</text><line style="stroke: #A80036; stroke-width: 1.0;" x1="170" x2="238.383" y1="258.2188" y2="258.2188"/><text fill="#000000" font-family="sans-serif" font-size="14" lengthAdjust="spacingAndGlyphs" textLength="26" x="180" y="276.752">FE2</text><line style="stroke: #A80036; stroke-width: 1.0;" x1="170" x2="240.0691" y1="283.8281" y2="283.8281"/><text fill="#000000" font-family="sans-serif" font-size="14" lengthAdjust="spacingAndGlyphs" textLength="20" x="180" y="302.3613">. . .</text><!--MD5=[9d60f5fd90d26ed0c888e94079f8175c]
entity response1--><path d="M43,248 L129,248 C134,248 134,261.8047 134,261.8047 C134,261.8047 134,275.6094 129,275.6094 L43,275.6094 C38,275.6094 38,261.8047 38,261.8047 C38,261.8047 38,248 43,248 " fill="#FEFECE" filter="url(#f1sba10uax5anu)" style="stroke: #A80036; stroke-width: 1.5;"/><path d="M129,248 C124,248 124,261.8047 124,261.8047 C124,275.6094 129,275.6094 129,275.6094 " fill="none" style="stroke: #A80036; stroke-width: 1.5;"/><text fill="#000000" font-family="sans-serif" font-size="14" lengthAdjust="spacingAndGlyphs" textLength="76" x="43" y="267.5332">Response 1</text><!--MD5=[fa0bae4e1d9d4e9c4af0ad6e7d43d4c4]
entity response2--><path d="M289,248 L375,248 C380,248 380,261.8047 380,261.8047 C380,261.8047 380,275.6094 375,275.6094 L289,275.6094 C284,275.6094 284,261.8047 284,261.8047 C284,261.8047 284,248 289,248 " fill="#FEFECE" filter="url(#f1sba10uax5anu)" style="stroke: #A80036; stroke-width: 1.5;"/><path d="M375,248 C370,248 370,261.8047 370,261.8047 C370,275.6094 375,275.6094 375,275.6094 " fill="none" style="stroke: #A80036; stroke-width: 1.5;"/><text fill="#000000" font-family="sans-serif" font-size="14" lengthAdjust="spacingAndGlyphs" textLength="76" x="289" y="267.5332">Response 2</text><!--MD5=[432e4cfc5c157794d0150037c71e5359]
entity backend1--><polygon fill="#FEFECE" filter="url(#f1sba10uax5anu)" points="70,426,80,416,182,416,182,453.6094,172,463.6094,70,463.6094,70,426" style="stroke: #000000; stroke-width: 1.5;"/><line style="stroke: #000000; stroke-width: 1.5;" x1="172" x2="181" y1="426" y2="417"/><line style="stroke: #000000; stroke-width: 1.5;" x1="70" x2="172" y1="426" y2="426"/><line style="stroke: #000000; stroke-width: 1.5;" x1="172" x2="172" y1="426" y2="463.6094"/><text fill="#000000" font-family="sans-serif" font-size="14" lengthAdjust="spacingAndGlyphs" textLength="72" x="85" y="450.5332">Back End 1</text><!--MD5=[a010b37bdcc06e7756167d7cd04ea573]
entity backend2--><polygon fill="#FEFECE" filter="url(#f1sba10uax5anu)" points="217,426,227,416,329,416,329,453.6094,319,463.6094,217,463.6094,217,426" style="stroke: #000000; stroke-width: 1.5;"/><line style="stroke: #000000; stroke-width: 1.5;" x1="319" x2="328" y1="426" y2="417"/><line style="stroke: #000000; stroke-width: 1.5;" x1="217" x2="319" y1="426" y2="426"/><line style="stroke: #000000; stroke-width: 1.5;" x1="319" x2="319" y1="426" y2="463.6094"/><text fill="#000000" font-family="sans-serif" font-size="14" lengthAdjust="spacingAndGlyphs" textLength="72" x="232" y="450.5332">Back End 2</text><!--MD5=[37c507d355b091051c75733bd6143787]
link frontend1 to Requests--><path d="M136.851,108.009 C148.41,132.52 167.138,172.231 182.616,205.052 " fill="none" id="frontend1-&gt;Requests" style="stroke: #A80036; stroke-width: 1.0;"/><polygon fill="#A80036" points="184.874,209.842,184.6532,199.9956,182.7414,205.3196,177.4174,203.4078,184.874,209.842" style="stroke: #A80036; stroke-width: 1.0;"/><text fill="#000000" font-family="sans-serif" font-size="13" lengthAdjust="spacingAndGlyphs" textLength="24" x="162" y="154.4951">FE1</text><!--MD5=[3bcc761738a9ac0da514f5c0c95633d2]
link frontend2 to Requests--><path d="M267.241,108.009 C257.91,132.52 242.793,172.231 230.298,205.052 " fill="none" id="frontend2-&gt;Requests" style="stroke: #A80036; stroke-width: 1.0;"/><polygon fill="#A80036" points="228.475,209.842,235.4149,202.8536,230.2536,205.169,227.9381,200.0078,228.475,209.842" style="stroke: #A80036; stroke-width: 1.0;"/><text fill="#000000" font-family="sans-serif" font-size="13" lengthAdjust="spacingAndGlyphs" textLength="24" x="256" y="154.4951">FE2</text><!--MD5=[dbfb3e3016eb724aa90b60799503f467]
link response1 to frontend1--><path d="M89.0476,247.591 C95.5505,218.978 110.904,151.424 119.636,113.002 " fill="none" id="response1-&gt;frontend1" style="stroke: #A80036; stroke-width: 1.0;"/><polygon fill="#A80036" points="120.771,108.009,114.8774,115.8998,119.6638,112.8849,122.6788,117.6713,120.771,108.009" style="stroke: #A80036; stroke-width: 1.0;"/><!--MD5=[f5a5a02c436950f59b1f1b6ad0fb32de]
link response2 to frontend2--><path d="M327.733,247.591 C318.629,218.978 297.135,151.424 284.91,113.002 " fill="none" id="response2-&gt;frontend2" style="stroke: #A80036; stroke-width: 1.0;"/><polygon fill="#A80036" points="283.321,108.009,282.2369,117.798,284.8364,112.7738,289.8606,115.3733,283.321,108.009" style="stroke: #A80036; stroke-width: 1.0;"/><!--MD5=[dcc15a092a587d826ba2d10bdd4b29c1]
link Requests to backend1--><path d="M184.77,314.38 C169.905,345.9 151.442,385.051 139.22,410.9667 " fill="none" id="Requests-&gt;backend1" style="stroke: #A80036; stroke-width: 1.0;"/><polygon fill="#A80036" points="137.013,415.647,144.4695,409.2126,139.1455,411.1246,137.2336,405.8006,137.013,415.647" style="stroke: #A80036; stroke-width: 1.0;"/><text fill="#000000" font-family="sans-serif" font-size="13" lengthAdjust="spacingAndGlyphs" textLength="24" x="169" y="360.4951">FE1</text><!--MD5=[6cc3a80cb44881573b33f7f5bf5c05fe]
link Requests to backend2--><path d="M227.683,314.38 C239.098,345.77 253.264,384.726 262.689,410.6434 " fill="none" id="Requests-&gt;backend2" style="stroke: #A80036; stroke-width: 1.0;"/><polygon fill="#A80036" points="264.508,415.647,265.1912,405.8219,262.7992,410.9481,257.6729,408.556,264.508,415.647" style="stroke: #A80036; stroke-width: 1.0;"/><text fill="#000000" font-family="sans-serif" font-size="13" lengthAdjust="spacingAndGlyphs" textLength="24" x="246" y="360.4951">FE2</text><!--MD5=[b48c5efa6661ab6f42cbf8b45d90ded1]
link backend1 to response1--><path d="M120.731,415.8158 C112.696,380.463 97.5425,313.787 90.1996,281.478 " fill="none" id="backend1-&gt;response1" style="stroke: #A80036; stroke-width: 1.0;"/><polygon fill="#A80036" points="89.0065,276.229,87.1014,285.8918,90.115,281.1046,94.9023,284.1182,89.0065,276.229" style="stroke: #A80036; stroke-width: 1.0;"/><!--MD5=[a5caf8c9d72b4868694bdbd979e8fb69]
link backend2 to response2--><path d="M280.772,415.8158 C292.672,380.317 315.16,313.235 325.939,281.079 " fill="none" id="backend2-&gt;response2" style="stroke: #A80036; stroke-width: 1.0;"/><polygon fill="#A80036" points="327.565,276.229,320.9104,283.4896,325.9749,280.9694,328.4951,286.0338,327.565,276.229" style="stroke: #A80036; stroke-width: 1.0;"/><!--MD5=[552abd642ccb3eb18d40b0974840cae0]
@startuml

rectangle "Front End" as frontend {
    node frontend1 as "Front End 1"
    node frontend2 as "Front End 2"
}

rectangle Messaging as messaging {
    queue Requests [
        Requests
        ====
        FE1
        - - - -
        FE2
        - - - -
        . . .
    ]
    queue response1 as "Response 1"
    queue response2 as "Response 2"
}

rectangle "Back End" {
    node backend1 as "Back End 1"
    node backend2 as "Back End 2"
}

frontend1 - -> Requests: FE1
frontend2 - -> Requests: FE2

response1 - -> frontend1
response2 - -> frontend2

Requests - -> backend1: FE1
Requests - -> backend2: FE2

backend1 - -> response1
backend2 - -> response2

@enduml

PlantUML version 1.2019.12(Sun Nov 03 05:24:54 EST 2019)
(APACHE source distribution)
Java Runtime: OpenJDK Runtime Environment
JVM: OpenJDK 64-Bit Server VM
Java Version: 13.0.1+9
Operating System: Windows 10
Default Encoding: Cp1252
Language: en
Country: US
--></g></svg>