<?xml version="1.0" encoding="UTF-8" standalone="no"?><svg xmlns="http://www.w3.org/2000/svg" xmlns:xlink="http://www.w3.org/1999/xlink" contentScriptType="application/ecmascript" contentStyleType="text/css" height="448px" preserveAspectRatio="none" style="width:369px;height:448px;" version="1.1" viewBox="0 0 369 448" width="369px" zoomAndPan="magnify"><defs><filter height="300%" id="f1rb3z3bjdfcvt" width="300%" x="-1" y="-1"><feGaussianBlur result="blurOut" stdDeviation="2.0"/><feColorMatrix in="blurOut" result="blurOut2" type="matrix" values="0 0 0 0 0 0 0 0 0 0 0 0 0 0 0 0 0 0 .4 0"/><feOffset dx="4.0" dy="4.0" in="blurOut2" result="blurOut3"/><feBlend in="SourceGraphic" in2="blurOut3" mode="normal"/></filter></defs><g><!--MD5=[1e3f95782aa025a0d60ac76fd50e5ec3]
entity machine1--><rect fill="#FEFECE" filter="url(#f1rb3z3bjdfcvt)" height="37.6094" style="stroke: #000000; stroke-width: 1.5;" width="129" x="117.5" y="8"/><text fill="#000000" font-family="sans-serif" font-size="14" lengthAdjust="spacingAndGlyphs" textLength="109" x="127.5" y="32.5332">Physical Machine</text><!--MD5=[d55a4441c2532ea01aee1c65284e9521]
entity hos--><rect fill="#FEFECE" filter="url(#f1rb3z3bjdfcvt)" height="37.6094" style="stroke: #000000; stroke-width: 1.5;" width="165" x="99.5" y="106"/><text fill="#000000" font-family="sans-serif" font-size="14" lengthAdjust="spacingAndGlyphs" textLength="145" x="109.5" y="130.5332">Host Operating System</text><!--MD5=[6857f13236cb144e56befd21da1781a5]
entity runtime--><rect fill="#FEFECE" filter="url(#f1rb3z3bjdfcvt)" height="37.6094" style="stroke: #000000; stroke-width: 1.5;" width="138" x="113" y="204"/><text fill="#000000" font-family="sans-serif" font-size="14" lengthAdjust="spacingAndGlyphs" textLength="118" x="123" y="228.5332">Container Runtime</text><!--MD5=[8e653cf1508c8de73e0d49c732987513]
entity container1--><rect fill="#FEFECE" filter="url(#f1rb3z3bjdfcvt)" height="37.6094" style="stroke: #000000; stroke-width: 1.5;" width="94" x="6" y="302"/><text fill="#000000" font-family="sans-serif" font-size="14" lengthAdjust="spacingAndGlyphs" textLength="74" x="16" y="326.5332">Container 1</text><!--MD5=[019f6774f902f72c488c9dcee70d4d6c]
entity app1--><rect fill="#FEFECE" filter="url(#f1rb3z3bjdfcvt)" height="37.6094" style="stroke: #000000; stroke-width: 1.5;" width="89" x="8.5" y="400"/><text fill="#000000" font-family="sans-serif" font-size="14" lengthAdjust="spacingAndGlyphs" textLength="69" x="18.5" y="424.5332">Application</text><!--MD5=[9f0d3a1f4493e59367b52fc0f20ff9bb]
entity container2--><rect fill="#FEFECE" filter="url(#f1rb3z3bjdfcvt)" height="37.6094" style="stroke: #000000; stroke-width: 1.5;" width="94" x="135" y="302"/><text fill="#000000" font-family="sans-serif" font-size="14" lengthAdjust="spacingAndGlyphs" textLength="74" x="145" y="326.5332">Container 2</text><!--MD5=[81be28259591a23f63462d93727ccfe3]
entity app2--><rect fill="#FEFECE" filter="url(#f1rb3z3bjdfcvt)" height="37.6094" style="stroke: #000000; stroke-width: 1.5;" width="89" x="137.5" y="400"/><text fill="#000000" font-family="sans-serif" font-size="14" lengthAdjust="spacingAndGlyphs" textLength="69" x="147.5" y="424.5332">Application</text><!--MD5=[10e6fcd240979d4457e8143441327951]
entity container3--><rect fill="#FEFECE" filter="url(#f1rb3z3bjdfcvt)" height="37.6094" style="stroke: #000000; stroke-width: 1.5;" width="94" x="264" y="302"/><text fill="#000000" font-family="sans-serif" font-size="14" lengthAdjust="spacingAndGlyphs" textLength="74" x="274" y="326.5332">Container 3</text><!--MD5=[640bfebe45159a20e5557f42971d9afe]
entity app3--><rect fill="#FEFECE" filter="url(#f1rb3z3bjdfcvt)" height="37.6094" style="stroke: #000000; stroke-width: 1.5;" width="89" x="266.5" y="400"/><text fill="#000000" font-family="sans-serif" font-size="14" lengthAdjust="spacingAndGlyphs" textLength="69" x="276.5" y="424.5332">Application</text><!--MD5=[ce1599b41b40f9482de6222d4f81328f]
link machine1 to hos--><path d="M182,46.057 C182,61.513 182,83.865 182,100.673 " fill="none" id="machine1-&gt;hos" style="stroke: #A80036; stroke-width: 1.0;"/><polygon fill="#A80036" points="182,105.698,186,96.698,182,100.698,178,96.698,182,105.698" style="stroke: #A80036; stroke-width: 1.0;"/><!--MD5=[4028b39768f97885f1df174e1ff3541a]
link hos to runtime--><path d="M182,144.057 C182,159.513 182,181.865 182,198.673 " fill="none" id="hos-&gt;runtime" style="stroke: #A80036; stroke-width: 1.0;"/><polygon fill="#A80036" points="182,203.698,186,194.698,182,198.698,178,194.698,182,203.698" style="stroke: #A80036; stroke-width: 1.0;"/><!--MD5=[ec068419c39f13e0142a4efefd2d87c4]
link runtime to container1--><path d="M157.736,242.057 C136.162,258.112 104.5875,281.609 81.7516,298.603 " fill="none" id="runtime-&gt;container1" style="stroke: #A80036; stroke-width: 1.0;"/><polygon fill="#A80036" points="77.5937,301.698,87.2019,299.534,81.6049,298.713,82.4259,293.1161,77.5937,301.698" style="stroke: #A80036; stroke-width: 1.0;"/><!--MD5=[816bdcb88f1ee62fbfd2c85573c0b259]
link runtime to container2--><path d="M182,242.057 C182,257.513 182,279.865 182,296.673 " fill="none" id="runtime-&gt;container2" style="stroke: #A80036; stroke-width: 1.0;"/><polygon fill="#A80036" points="182,301.698,186,292.698,182,296.698,178,292.698,182,301.698" style="stroke: #A80036; stroke-width: 1.0;"/><!--MD5=[7c301dc88fd8ebaccade9325b34adc4b]
link runtime to container3--><path d="M206.264,242.057 C227.838,258.112 259.412,281.609 282.248,298.603 " fill="none" id="runtime-&gt;container3" style="stroke: #A80036; stroke-width: 1.0;"/><polygon fill="#A80036" points="286.406,301.698,281.5746,293.1156,282.3951,298.7126,276.798,299.5331,286.406,301.698" style="stroke: #A80036; stroke-width: 1.0;"/><!--MD5=[abdda06e4b30a2fa58978625624bfa4b]
link container1 to app1--><path d="M53,340.0569 C53,355.5126 53,377.8647 53,394.6731 " fill="none" id="container1-&gt;app1" style="stroke: #A80036; stroke-width: 1.0;"/><polygon fill="#A80036" points="53,399.6977,57,390.6977,53,394.6977,49,390.6977,53,399.6977" style="stroke: #A80036; stroke-width: 1.0;"/><!--MD5=[93c18573ac054c1a63be28578e5678c9]
link container2 to app2--><path d="M182,340.0569 C182,355.5126 182,377.8647 182,394.6731 " fill="none" id="container2-&gt;app2" style="stroke: #A80036; stroke-width: 1.0;"/><polygon fill="#A80036" points="182,399.6977,186,390.6977,182,394.6977,178,390.6977,182,399.6977" style="stroke: #A80036; stroke-width: 1.0;"/><!--MD5=[78efe3b71870a914054f6972ba931463]
link container3 to app3--><path d="M311,340.0569 C311,355.5126 311,377.8647 311,394.6731 " fill="none" id="container3-&gt;app3" style="stroke: #A80036; stroke-width: 1.0;"/><polygon fill="#A80036" points="311,399.6977,315,390.6977,311,394.6977,307,390.6977,311,399.6977" style="stroke: #A80036; stroke-width: 1.0;"/><!--MD5=[5d8aded020b1c4f64dd1f84b3749b33a]
@startuml

rectangle machine1 as "Physical Machine"
rectangle hos as "Host Operating System"
rectangle runtime as "Container Runtime"

rectangle container1 as "Container 1"
rectangle app1 as "Application"

rectangle container2 as "Container 2"
rectangle app2 as "Application"

rectangle container3 as "Container 3"
rectangle app3 as "Application"

machine1 - -> hos
hos - -> runtime

runtime - -> container1
runtime - -> container2
runtime - -> container3

container1 - -> app1
container2 - -> app2
container3 - -> app3

@enduml

PlantUML version 1.2019.12(Sun Nov 03 05:24:54 EST 2019)
(APACHE source distribution)
Java Runtime: OpenJDK Runtime Environment
JVM: OpenJDK 64-Bit Server VM
Java Version: 13.0.1+9
Operating System: Windows 10
Default Encoding: Cp1252
Language: en
Country: US
--></g></svg>