<?xml version="1.0" encoding="UTF-8" standalone="no"?><svg xmlns="http://www.w3.org/2000/svg" xmlns:xlink="http://www.w3.org/1999/xlink" contentScriptType="application/ecmascript" contentStyleType="text/css" height="113px" preserveAspectRatio="none" style="width:244px;height:113px;" version="1.1" viewBox="0 0 244 113" width="244px" zoomAndPan="magnify"><defs><filter height="300%" id="f4147jyyu61tm" width="300%" x="-1" y="-1"><feGaussianBlur result="blurOut" stdDeviation="2.0"/><feColorMatrix in="blurOut" result="blurOut2" type="matrix" values="0 0 0 0 0 0 0 0 0 0 0 0 0 0 0 0 0 0 .4 0"/><feOffset dx="4.0" dy="4.0" in="blurOut2" result="blurOut3"/><feBlend in="SourceGraphic" in2="blurOut3" mode="normal"/></filter></defs><g><!--MD5=[4e8ecd94af36cce41665c9f079adf9fd]
entity backend--><polygon fill="#FEFECE" filter="url(#f4147jyyu61tm)" points="6,42,16,32,111,32,111,68.2969,101,78.2969,6,78.2969,6,42" style="stroke: #000000; stroke-width: 1.5;"/><line style="stroke: #000000; stroke-width: 1.5;" x1="101" x2="110" y1="42" y2="33"/><line style="stroke: #000000; stroke-width: 1.5;" x1="6" x2="101" y1="42" y2="42"/><line style="stroke: #000000; stroke-width: 1.5;" x1="101" x2="101" y1="42" y2="78.2969"/><text fill="#000000" font-family="sans-serif" font-size="14" lengthAdjust="spacingAndGlyphs" textLength="65" x="21" y="64.9951">Back End</text><!--MD5=[7468467f3b6b392f1d176d828c753b77]
entity db--><path d="M146.5,18 C146.5,8 189.5,8 189.5,8 C189.5,8 232.5,8 232.5,18 L232.5,91.8906 C232.5,101.8906 189.5,101.8906 189.5,101.8906 C189.5,101.8906 146.5,101.8906 146.5,91.8906 L146.5,18 " fill="#FEFECE" filter="url(#f4147jyyu61tm)" style="stroke: #000000; stroke-width: 1.5;"/><path d="M146.5,18 C146.5,28 189.5,28 189.5,28 C189.5,28 232.5,28 232.5,18 " fill="none" style="stroke: #000000; stroke-width: 1.5;"/><text fill="#000000" font-family="sans-serif" font-size="14" lengthAdjust="spacingAndGlyphs" textLength="66" x="156.5" y="44.9951">Database</text><path d="M146.5,43.2969 C146.5,53.2969 189.5,53.2969 189.5,53.2969 C189.5,53.2969 232.5,53.2969 232.5,43.2969 " fill="none" style="stroke: #000000; stroke-width: 1.0;"/><text fill="#000000" font-family="sans-serif" font-size="14" lengthAdjust="spacingAndGlyphs" textLength="47" x="162.5" y="65.292">USERS</text><path d="M146.5,67.5938 C146.5,77.5938 189.5,77.5938 189.5,77.5938 C189.5,77.5938 232.5,77.5938 232.5,67.5938 " fill="none" style="stroke: #000000; stroke-width: 1.0; stroke-dasharray: 1.0,2.0;"/><text fill="#000000" font-family="sans-serif" font-size="14" lengthAdjust="spacingAndGlyphs" textLength="20" x="162.5" y="89.5889">. . .</text><!--MD5=[164906b3333609339db5c9ea3f301200]
link backend to db--><path d="M116.4277,55 C124.6951,55 132.9626,55 141.23,55 " fill="none" id="backend-db" style="stroke: #A80036; stroke-width: 1.0;"/><polygon fill="#A80036" points="146.3777,55,137.3777,51,141.3777,55,137.3777,59,146.3777,55" style="stroke: #A80036; stroke-width: 1.0;"/><polygon fill="#A80036" points="111.207,55,120.207,59,116.207,55,120.207,51,111.207,55" style="stroke: #A80036; stroke-width: 1.0;"/><!--MD5=[b8c410e0f4c4ce469a980bc9522fc797]
@startuml

node backend [
    Back End
]

database db [
    Database
    - - - -
    USERS
    ....
    . . .
]

backend <-> db

@enduml

PlantUML version 1.2020.06(Sun Apr 05 12:38:32 UTC 2020)
(APACHE source distribution)
Java Runtime: OpenJDK Runtime Environment
JVM: OpenJDK 64-Bit Server VM
Java Version: 11.0.7+10-post-Debian-3deb10u1
Operating System: Linux
Default Encoding: ANSI_X3.4-1968
Language: en
Country: US
--></g></svg>