<?xml version="1.0" encoding="UTF-8" standalone="no"?><svg xmlns="http://www.w3.org/2000/svg" xmlns:xlink="http://www.w3.org/1999/xlink" contentScriptType="application/ecmascript" contentStyleType="text/css" height="243px" preserveAspectRatio="none" style="width:553px;height:243px;" version="1.1" viewBox="0 0 553 243" width="553px" zoomAndPan="magnify"><defs><filter height="300%" id="f1balfz4zhofgz" width="300%" x="-1" y="-1"><feGaussianBlur result="blurOut" stdDeviation="2.0"/><feColorMatrix in="blurOut" result="blurOut2" type="matrix" values="0 0 0 0 0 0 0 0 0 0 0 0 0 0 0 0 0 0 .4 0"/><feOffset dx="4.0" dy="4.0" in="blurOut2" result="blurOut3"/><feBlend in="SourceGraphic" in2="blurOut3" mode="normal"/></filter></defs><g><!--MD5=[0ab5e50cb7c4d5dbbc1bea50a8b4b262]
cluster Front End--><rect fill="#FFFFFF" filter="url(#f1balfz4zhofgz)" height="208" style="stroke: #000000; stroke-width: 1.5;" width="222" x="320" y="24"/><text fill="#000000" font-family="sans-serif" font-size="14" font-weight="bold" lengthAdjust="spacingAndGlyphs" textLength="69" x="396.5" y="40.5332">Front End</text><!--MD5=[4f96b4ca2c63f1a93e6dd3fb44a17ade]
cluster Messaging--><rect fill="#FFFFFF" filter="url(#f1balfz4zhofgz)" height="208" style="stroke: #000000; stroke-width: 1.5;" width="274" x="22" y="24"/><text fill="#000000" font-family="sans-serif" font-size="14" font-weight="bold" lengthAdjust="spacingAndGlyphs" textLength="77" x="120.5" y="40.5332">Messaging</text><!--MD5=[28423738f206770f1ec38b24a4f6494f]
entity flask1--><polygon fill="#FEFECE" filter="url(#f1balfz4zhofgz)" points="336.5,70,346.5,60,413.5,60,413.5,97.6094,403.5,107.6094,336.5,107.6094,336.5,70" style="stroke: #000000; stroke-width: 1.5;"/><line style="stroke: #000000; stroke-width: 1.5;" x1="403.5" x2="412.5" y1="70" y2="61"/><line style="stroke: #000000; stroke-width: 1.5;" x1="336.5" x2="403.5" y1="70" y2="70"/><line style="stroke: #000000; stroke-width: 1.5;" x1="403.5" x2="403.5" y1="70" y2="107.6094"/><text fill="#000000" font-family="sans-serif" font-size="14" lengthAdjust="spacingAndGlyphs" textLength="37" x="351.5" y="94.5332">flask1</text><!--MD5=[0300f2cf10541df261e0ebfb5165adea]
entity flask2--><polygon fill="#FEFECE" filter="url(#f1balfz4zhofgz)" points="448.5,70,458.5,60,525.5,60,525.5,97.6094,515.5,107.6094,448.5,107.6094,448.5,70" style="stroke: #000000; stroke-width: 1.5;"/><line style="stroke: #000000; stroke-width: 1.5;" x1="515.5" x2="524.5" y1="70" y2="61"/><line style="stroke: #000000; stroke-width: 1.5;" x1="448.5" x2="515.5" y1="70" y2="70"/><line style="stroke: #000000; stroke-width: 1.5;" x1="515.5" x2="515.5" y1="70" y2="107.6094"/><text fill="#000000" font-family="sans-serif" font-size="14" lengthAdjust="spacingAndGlyphs" textLength="37" x="463.5" y="94.5332">flask2</text><!--MD5=[b5dcb5d9e6346c6d884fdb1c9730294f]
entity flask3--><polygon fill="#FEFECE" filter="url(#f1balfz4zhofgz)" points="336.5,178,346.5,168,413.5,168,413.5,205.6094,403.5,215.6094,336.5,215.6094,336.5,178" style="stroke: #000000; stroke-width: 1.5;"/><line style="stroke: #000000; stroke-width: 1.5;" x1="403.5" x2="412.5" y1="178" y2="169"/><line style="stroke: #000000; stroke-width: 1.5;" x1="336.5" x2="403.5" y1="178" y2="178"/><line style="stroke: #000000; stroke-width: 1.5;" x1="403.5" x2="403.5" y1="178" y2="215.6094"/><text fill="#000000" font-family="sans-serif" font-size="14" lengthAdjust="spacingAndGlyphs" textLength="37" x="351.5" y="202.5332">flask3</text><!--MD5=[7dbf5e6aa5435c528b591d7e9092364e]
entity rabbitmq1--><polygon fill="#FEFECE" filter="url(#f1balfz4zhofgz)" points="38.5,70,48.5,60,141.5,60,141.5,97.6094,131.5,107.6094,38.5,107.6094,38.5,70" style="stroke: #000000; stroke-width: 1.5;"/><line style="stroke: #000000; stroke-width: 1.5;" x1="131.5" x2="140.5" y1="70" y2="61"/><line style="stroke: #000000; stroke-width: 1.5;" x1="38.5" x2="131.5" y1="70" y2="70"/><line style="stroke: #000000; stroke-width: 1.5;" x1="131.5" x2="131.5" y1="70" y2="107.6094"/><text fill="#000000" font-family="sans-serif" font-size="14" lengthAdjust="spacingAndGlyphs" textLength="63" x="53.5" y="94.5332">rabbitmq1</text><!--MD5=[a186fa2985135343a3323a00e7d511bd]
entity rabbitmq2--><polygon fill="#FEFECE" filter="url(#f1balfz4zhofgz)" points="176.5,70,186.5,60,279.5,60,279.5,97.6094,269.5,107.6094,176.5,107.6094,176.5,70" style="stroke: #000000; stroke-width: 1.5;"/><line style="stroke: #000000; stroke-width: 1.5;" x1="269.5" x2="278.5" y1="70" y2="61"/><line style="stroke: #000000; stroke-width: 1.5;" x1="176.5" x2="269.5" y1="70" y2="70"/><line style="stroke: #000000; stroke-width: 1.5;" x1="269.5" x2="269.5" y1="70" y2="107.6094"/><text fill="#000000" font-family="sans-serif" font-size="14" lengthAdjust="spacingAndGlyphs" textLength="63" x="191.5" y="94.5332">rabbitmq2</text><!--MD5=[8d94b57e40464d4581390a004e1c3d62]
entity rabbitmq3--><polygon fill="#FEFECE" filter="url(#f1balfz4zhofgz)" points="107.5,178,117.5,168,210.5,168,210.5,205.6094,200.5,215.6094,107.5,215.6094,107.5,178" style="stroke: #000000; stroke-width: 1.5;"/><line style="stroke: #000000; stroke-width: 1.5;" x1="200.5" x2="209.5" y1="178" y2="169"/><line style="stroke: #000000; stroke-width: 1.5;" x1="107.5" x2="200.5" y1="178" y2="178"/><line style="stroke: #000000; stroke-width: 1.5;" x1="200.5" x2="200.5" y1="178" y2="215.6094"/><text fill="#000000" font-family="sans-serif" font-size="14" lengthAdjust="spacingAndGlyphs" textLength="63" x="122.5" y="202.5332">rabbitmq3</text><!--MD5=[705d630da184b4a76d3896e34f5dc55a]
link rabbitmq1 to rabbitmq2--><path d="M146.901,84 C155.058,84 163.216,84 171.373,84 " fill="none" id="rabbitmq1-rabbitmq2" style="stroke: #A80036; stroke-width: 1.0;"/><polygon fill="#A80036" points="176.452,84,167.452,80,171.452,84,167.452,88,176.452,84" style="stroke: #A80036; stroke-width: 1.0;"/><polygon fill="#A80036" points="141.75,84,150.75,88,146.75,84,150.75,80,141.75,84" style="stroke: #A80036; stroke-width: 1.0;"/><!--MD5=[f1fb748fa318de4c77da51dc82aacd31]
link rabbitmq1 to rabbitmq3--><path d="M107.741,112.254 C117.95,127.938 130.746,147.595 140.999,163.346 " fill="none" id="rabbitmq1-rabbitmq3" style="stroke: #A80036; stroke-width: 1.0;"/><polygon fill="#A80036" points="143.819,167.6784,142.261,157.9536,141.0911,163.4881,135.5565,162.3182,143.819,167.6784" style="stroke: #A80036; stroke-width: 1.0;"/><polygon fill="#A80036" points="104.972,108,106.5314,117.7246,107.7005,112.1899,113.2352,113.359,104.972,108" style="stroke: #A80036; stroke-width: 1.0;"/><!--MD5=[23cb16f9f481308ffa22036480452a87]
link rabbitmq2 to rabbitmq3--><path d="M210.259,112.254 C200.05,127.938 187.254,147.595 177.001,163.346 " fill="none" id="rabbitmq2-rabbitmq3" style="stroke: #A80036; stroke-width: 1.0;"/><polygon fill="#A80036" points="174.181,167.6784,182.4435,162.3182,176.9089,163.4881,175.739,157.9536,174.181,167.6784" style="stroke: #A80036; stroke-width: 1.0;"/><polygon fill="#A80036" points="213.028,108,204.7648,113.359,210.2995,112.1899,211.4686,117.7246,213.028,108" style="stroke: #A80036; stroke-width: 1.0;"/><!--MD5=[22b8bfcf09b86702d94cacc5700619fa]
link flask1 to flask2--><!--MD5=[1e09e6fa525ffe4ce475329e70b56eb0]
link flask1 to flask3--><!--MD5=[e5b9490cefa2042dfc3ca8e7aaafc402]
@startuml
rectangle "Front End" {
    node flask1
    node flask2
    node flask3
}

rectangle Messaging {
    node rabbitmq1
    node rabbitmq2
    node rabbitmq3

    rabbitmq1 <-> rabbitmq2
    rabbitmq1 <- -> rabbitmq3
    rabbitmq2 <- -> rabbitmq3
}


@enduml

PlantUML version 1.2019.12(Sun Nov 03 05:24:54 EST 2019)
(APACHE source distribution)
Java Runtime: OpenJDK Runtime Environment
JVM: OpenJDK 64-Bit Server VM
Java Version: 13.0.1+9
Operating System: Windows 10
Default Encoding: Cp1252
Language: en
Country: US
--></g></svg>