<?xml version="1.0" encoding="UTF-8" standalone="no"?><svg xmlns="http://www.w3.org/2000/svg" xmlns:xlink="http://www.w3.org/1999/xlink" contentScriptType="application/ecmascript" contentStyleType="text/css" height="103px" preserveAspectRatio="none" style="width:520px;height:103px;" version="1.1" viewBox="0 0 520 103" width="520px" zoomAndPan="magnify"><defs><filter height="300%" id="f73no3gf5jvfw" width="300%" x="-1" y="-1"><feGaussianBlur result="blurOut" stdDeviation="2.0"/><feColorMatrix in="blurOut" result="blurOut2" type="matrix" values="0 0 0 0 0 0 0 0 0 0 0 0 0 0 0 0 0 0 .4 0"/><feOffset dx="4.0" dy="4.0" in="blurOut2" result="blurOut3"/><feBlend in="SourceGraphic" in2="blurOut3" mode="normal"/></filter></defs><g><!--MD5=[8fc3522a43f8c7199df5e09e5bb0188e]
entity user--><ellipse cx="21" cy="18" fill="#FEFECE" filter="url(#f73no3gf5jvfw)" rx="8" ry="8" style="stroke: #A80036; stroke-width: 2.0;"/><path d="M21,26 L21,53 M8,34 L34,34 M21,53 L8,68 M21,53 L34,68 " fill="none" filter="url(#f73no3gf5jvfw)" style="stroke: #A80036; stroke-width: 2.0;"/><text fill="#000000" font-family="sans-serif" font-size="14" lengthAdjust="spacingAndGlyphs" textLength="29" x="6.5" y="89.5332">User</text><!--MD5=[b1e3d2dcb3697de9e6328d1cb436cbc4]
entity frontend--><polygon fill="#FEFECE" filter="url(#f73no3gf5jvfw)" points="148.5,36.5,158.5,26.5,251.5,26.5,251.5,64.1094,241.5,74.1094,148.5,74.1094,148.5,36.5" style="stroke: #000000; stroke-width: 1.5;"/><line style="stroke: #000000; stroke-width: 1.5;" x1="241.5" x2="250.5" y1="36.5" y2="27.5"/><line style="stroke: #000000; stroke-width: 1.5;" x1="148.5" x2="241.5" y1="36.5" y2="36.5"/><line style="stroke: #000000; stroke-width: 1.5;" x1="241.5" x2="241.5" y1="36.5" y2="74.1094"/><text fill="#000000" font-family="sans-serif" font-size="14" lengthAdjust="spacingAndGlyphs" textLength="63" x="163.5" y="61.0332">Front End</text><!--MD5=[9ae5ad255f6debb40ed35199de901202]
entity messaging--><polygon fill="#FEFECE" filter="url(#f73no3gf5jvfw)" points="390,36.5,400,26.5,498,26.5,498,64.1094,488,74.1094,390,74.1094,390,36.5" style="stroke: #000000; stroke-width: 1.5;"/><line style="stroke: #000000; stroke-width: 1.5;" x1="488" x2="497" y1="36.5" y2="27.5"/><line style="stroke: #000000; stroke-width: 1.5;" x1="390" x2="488" y1="36.5" y2="36.5"/><line style="stroke: #000000; stroke-width: 1.5;" x1="488" x2="488" y1="36.5" y2="74.1094"/><text fill="#000000" font-family="sans-serif" font-size="14" lengthAdjust="spacingAndGlyphs" textLength="68" x="405" y="61.0332">Messaging</text><!--MD5=[122aa4dd056032f23668896f93924b57]
link user to frontend--><path d="M41.4629,50.5 C66.0646,50.5 108.38,50.5 143.107,50.5 " fill="none" id="user-frontend" style="stroke: #A80036; stroke-width: 1.0;"/><polygon fill="#A80036" points="148.173,50.5,139.173,46.5,143.173,50.5,139.173,54.5,148.173,50.5" style="stroke: #A80036; stroke-width: 1.0;"/><polygon fill="#A80036" points="36.2614,50.5,45.2614,54.5,41.2614,50.5,45.2614,46.5,36.2614,50.5" style="stroke: #A80036; stroke-width: 1.0;"/><text fill="#000000" font-family="sans-serif" font-size="13" lengthAdjust="spacingAndGlyphs" textLength="76" x="54.25" y="43.9951">web interface</text><!--MD5=[3c28452820cda61de5d9adcad6a56ffa]
link frontend to messaging--><path d="M257.06,50.5 C295.402,50.5 345.822,50.5 384.636,50.5 " fill="none" id="frontend-messaging" style="stroke: #A80036; stroke-width: 1.0;"/><polygon fill="#A80036" points="389.792,50.5,380.792,46.5,384.792,50.5,380.792,54.5,389.792,50.5" style="stroke: #A80036; stroke-width: 1.0;"/><polygon fill="#A80036" points="251.746,50.5,260.746,54.5,256.746,50.5,260.746,46.5,251.746,50.5" style="stroke: #A80036; stroke-width: 1.0;"/><text fill="#000000" font-family="sans-serif" font-size="13" lengthAdjust="spacingAndGlyphs" textLength="102" x="269.75" y="43.9951">messaging library</text><!--MD5=[f3b6d790e993aaf6d2c6eb979e774b36]
@startuml

actor "User" as user
node "Front End" as frontend
node "Messaging" as messaging

user <-> frontend : web interface
frontend <-> messaging : messaging library

@enduml

PlantUML version 1.2019.12(Sun Nov 03 05:24:54 EST 2019)
(APACHE source distribution)
Java Runtime: OpenJDK Runtime Environment
JVM: OpenJDK 64-Bit Server VM
Java Version: 13.0.1+9
Operating System: Windows 10
Default Encoding: Cp1252
Language: en
Country: US
--></g></svg>