<?xml version="1.0" encoding="UTF-8" standalone="no"?><svg xmlns="http://www.w3.org/2000/svg" xmlns:xlink="http://www.w3.org/1999/xlink" contentScriptType="application/ecmascript" contentStyleType="text/css" height="264px" preserveAspectRatio="none" style="width:505px;height:264px;" version="1.1" viewBox="0 0 505 264" width="505px" zoomAndPan="magnify"><defs><filter height="300%" id="f1mn8c1qyq48fj" width="300%" x="-1" y="-1"><feGaussianBlur result="blurOut" stdDeviation="2.0"/><feColorMatrix in="blurOut" result="blurOut2" type="matrix" values="0 0 0 0 0 0 0 0 0 0 0 0 0 0 0 0 0 0 .4 0"/><feOffset dx="4.0" dy="4.0" in="blurOut2" result="blurOut3"/><feBlend in="SourceGraphic" in2="blurOut3" mode="normal"/></filter></defs><g><!--MD5=[0ab5e50cb7c4d5dbbc1bea50a8b4b262]
cluster Front End--><polygon fill="#FFFFFF" filter="url(#f1mn8c1qyq48fj)" points="22,167,32,157,315,157,315,242,305,252,22,252,22,167" style="stroke: #000000; stroke-width: 1.5;"/><line style="stroke: #000000; stroke-width: 1.5;" x1="305" x2="314" y1="167" y2="158"/><line style="stroke: #000000; stroke-width: 1.5;" x1="22" x2="305" y1="167" y2="167"/><line style="stroke: #000000; stroke-width: 1.5;" x1="305" x2="305" y1="167" y2="252"/><text fill="#000000" font-family="sans-serif" font-size="14" font-weight="bold" lengthAdjust="spacingAndGlyphs" textLength="69" x="130" y="184.5332">Front End</text><!--MD5=[91e8730eafef390581e5da16e1ad9577]
entity messaginglib--><rect fill="#FEFECE" filter="url(#f1mn8c1qyq48fj)" height="37.6094" style="stroke: #000000; stroke-width: 1.5;" width="136" x="163" y="198"/><text fill="#000000" font-family="sans-serif" font-size="14" lengthAdjust="spacingAndGlyphs" textLength="116" x="173" y="222.5332">php-amqplib / pika</text><!--MD5=[184f03579192d74e08540b5f9fa56c3a]
entity webframework--><rect fill="#FEFECE" filter="url(#f1mn8c1qyq48fj)" height="37.6094" style="stroke: #000000; stroke-width: 1.5;" width="90" x="38" y="198"/><text fill="#000000" font-family="sans-serif" font-size="14" lengthAdjust="spacingAndGlyphs" textLength="70" x="48" y="222.5332">php / Flask</text><!--MD5=[feb5939ce823acf5a8245c3205b3c7a1]
entity Users--><ellipse cx="83" cy="18" fill="#FEFECE" filter="url(#f1mn8c1qyq48fj)" rx="8" ry="8" style="stroke: #A80036; stroke-width: 2.0;"/><path d="M83,26 L83,53 M70,34 L96,34 M83,53 L70,68 M83,53 L96,68 " fill="none" filter="url(#f1mn8c1qyq48fj)" style="stroke: #A80036; stroke-width: 2.0;"/><text fill="#000000" font-family="sans-serif" font-size="14" lengthAdjust="spacingAndGlyphs" textLength="36" x="65" y="89.5332">Users</text><!--MD5=[8e2e54331d73736ba4de0fe105a6947e]
entity Messaging--><polygon fill="#FEFECE" filter="url(#f1mn8c1qyq48fj)" points="375,203,385,193,483,193,483,230.6094,473,240.6094,375,240.6094,375,203" style="stroke: #000000; stroke-width: 1.5;"/><line style="stroke: #000000; stroke-width: 1.5;" x1="473" x2="482" y1="203" y2="194"/><line style="stroke: #000000; stroke-width: 1.5;" x1="375" x2="473" y1="203" y2="203"/><line style="stroke: #000000; stroke-width: 1.5;" x1="473" x2="473" y1="203" y2="240.6094"/><text fill="#000000" font-family="sans-serif" font-size="14" lengthAdjust="spacingAndGlyphs" textLength="68" x="390" y="227.5332">Messaging</text><!--MD5=[e9120cfd4a786c167b68186463b9af58]
link Users to webframework--><path d="M83,93.01 C83,124.466 83,166.558 83,192.4485 " fill="none" id="Users-&gt;webframework" style="stroke: #A80036; stroke-width: 1.0;"/><polygon fill="#A80036" points="83,197.7176,87,188.7176,83,192.7176,79,188.7176,83,197.7176" style="stroke: #A80036; stroke-width: 1.0;"/><text fill="#000000" font-family="sans-serif" font-size="13" lengthAdjust="spacingAndGlyphs" textLength="32" x="84" y="137.4951">HTTP</text><!--MD5=[a5ab7f835ce10d1ac1afc8af57b4bddb]
link messaginglib to Messaging--><path d="M304.395,217 C325.897,217 349.129,217 369.642,217 " fill="none" id="messaginglib-Messaging" style="stroke: #A80036; stroke-width: 1.0;"/><polygon fill="#A80036" points="374.795,217,365.795,213,369.795,217,365.795,221,374.795,217" style="stroke: #A80036; stroke-width: 1.0;"/><polygon fill="#A80036" points="299.14,217,308.14,221,304.14,217,308.14,213,299.14,217" style="stroke: #A80036; stroke-width: 1.0;"/><text fill="#000000" font-family="sans-serif" font-size="13" lengthAdjust="spacingAndGlyphs" textLength="39" x="317.5" y="210.4951">AMQP</text><!--MD5=[05c39dc6549a07b9b6723ad7dbc3e3c3]
@startuml

actor Users

node "Front End" {
    rectangle messaginglib [
        php-amqplib / pika
    ]
    rectangle webframework [
        php / Flask
    ]
}

node Messaging

Users - -> webframework : HTTP
messaginglib <-> Messaging : AMQP

@enduml

PlantUML version 1.2019.12(Sun Nov 03 05:24:54 EST 2019)
(APACHE source distribution)
Java Runtime: OpenJDK Runtime Environment
JVM: OpenJDK 64-Bit Server VM
Java Version: 13.0.1+9
Operating System: Windows 10
Default Encoding: Cp1252
Language: en
Country: US
--></g></svg>