<?xml version="1.0" encoding="UTF-8" standalone="no"?><svg xmlns="http://www.w3.org/2000/svg" xmlns:xlink="http://www.w3.org/1999/xlink" contentScriptType="application/ecmascript" contentStyleType="text/css" height="344px" preserveAspectRatio="none" style="width:686px;height:344px;" version="1.1" viewBox="0 0 686 344" width="686px" zoomAndPan="magnify"><defs><filter height="300%" id="f1jspe4pxbau6q" width="300%" x="-1" y="-1"><feGaussianBlur result="blurOut" stdDeviation="2.0"/><feColorMatrix in="blurOut" result="blurOut2" type="matrix" values="0 0 0 0 0 0 0 0 0 0 0 0 0 0 0 0 0 0 .4 0"/><feOffset dx="4.0" dy="4.0" in="blurOut2" result="blurOut3"/><feBlend in="SourceGraphic" in2="blurOut3" mode="normal"/></filter></defs><g><!--MD5=[23cbaadc18b1780d966e07254adaec4d]
cluster frontend--><rect fill="#FFFFFF" filter="url(#f1jspe4pxbau6q)" height="187" style="stroke: #000000; stroke-width: 1.5;" width="314" x="14" y="40"/><text fill="#000000" font-family="sans-serif" font-size="14" font-weight="bold" lengthAdjust="spacingAndGlyphs" textLength="76" x="133" y="54.9951">Front End</text><!--MD5=[4f96b4ca2c63f1a93e6dd3fb44a17ade]
cluster Messaging--><rect fill="#FFFFFF" filter="url(#f1jspe4pxbau6q)" height="187" style="stroke: #000000; stroke-width: 1.5;" width="337" x="336" y="146"/><text fill="#000000" font-family="sans-serif" font-size="14" font-weight="bold" lengthAdjust="spacingAndGlyphs" textLength="84" x="462.5" y="160.9951">Messaging</text><!--MD5=[ec6166a68167559d8766aee65d35c7b3]
entity front-end1--><polygon fill="#FEFECE" filter="url(#f1jspe4pxbau6q)" points="22.5,77,32.5,67,135.5,67,135.5,103.2969,125.5,113.2969,22.5,113.2969,22.5,77" style="stroke: #000000; stroke-width: 1.5;"/><line style="stroke: #000000; stroke-width: 1.5;" x1="125.5" x2="134.5" y1="77" y2="68"/><line style="stroke: #000000; stroke-width: 1.5;" x1="22.5" x2="125.5" y1="77" y2="77"/><line style="stroke: #000000; stroke-width: 1.5;" x1="125.5" x2="125.5" y1="77" y2="113.2969"/><text fill="#000000" font-family="sans-serif" font-size="14" lengthAdjust="spacingAndGlyphs" textLength="73" x="37.5" y="99.9951">front-end1</text><!--MD5=[b04a3668ca16c841885ddb34e11c43d6]
entity front-end2--><polygon fill="#FEFECE" filter="url(#f1jspe4pxbau6q)" points="206.5,77,216.5,67,319.5,67,319.5,103.2969,309.5,113.2969,206.5,113.2969,206.5,77" style="stroke: #000000; stroke-width: 1.5;"/><line style="stroke: #000000; stroke-width: 1.5;" x1="309.5" x2="318.5" y1="77" y2="68"/><line style="stroke: #000000; stroke-width: 1.5;" x1="206.5" x2="309.5" y1="77" y2="77"/><line style="stroke: #000000; stroke-width: 1.5;" x1="309.5" x2="309.5" y1="77" y2="113.2969"/><text fill="#000000" font-family="sans-serif" font-size="14" lengthAdjust="spacingAndGlyphs" textLength="73" x="221.5" y="99.9951">front-end2</text><!--MD5=[45fa7cb92a674dec43967ae9acaaf92d]
entity front-end3--><polygon fill="#FEFECE" filter="url(#f1jspe4pxbau6q)" points="22.5,183,32.5,173,135.5,173,135.5,209.2969,125.5,219.2969,22.5,219.2969,22.5,183" style="stroke: #000000; stroke-width: 1.5;"/><line style="stroke: #000000; stroke-width: 1.5;" x1="125.5" x2="134.5" y1="183" y2="174"/><line style="stroke: #000000; stroke-width: 1.5;" x1="22.5" x2="125.5" y1="183" y2="183"/><line style="stroke: #000000; stroke-width: 1.5;" x1="125.5" x2="125.5" y1="183" y2="219.2969"/><text fill="#000000" font-family="sans-serif" font-size="14" lengthAdjust="spacingAndGlyphs" textLength="73" x="37.5" y="205.9951">front-end3</text><!--MD5=[80b9f5d68bbf4c883d8d5fa324fdc9c1]
entity messaging1--><polygon fill="#FEFECE" filter="url(#f1jspe4pxbau6q)" points="379.5,183,389.5,173,504.5,173,504.5,209.2969,494.5,219.2969,379.5,219.2969,379.5,183" style="stroke: #000000; stroke-width: 1.5;"/><line style="stroke: #000000; stroke-width: 1.5;" x1="494.5" x2="503.5" y1="183" y2="174"/><line style="stroke: #000000; stroke-width: 1.5;" x1="379.5" x2="494.5" y1="183" y2="183"/><line style="stroke: #000000; stroke-width: 1.5;" x1="494.5" x2="494.5" y1="183" y2="219.2969"/><text fill="#000000" font-family="sans-serif" font-size="14" lengthAdjust="spacingAndGlyphs" textLength="85" x="394.5" y="205.9951">messaging1</text><!--MD5=[8c2622b20ad90ab48591eedd035c99f5]
entity messaging2--><polygon fill="#FEFECE" filter="url(#f1jspe4pxbau6q)" points="539.5,183,549.5,173,664.5,173,664.5,209.2969,654.5,219.2969,539.5,219.2969,539.5,183" style="stroke: #000000; stroke-width: 1.5;"/><line style="stroke: #000000; stroke-width: 1.5;" x1="654.5" x2="663.5" y1="183" y2="174"/><line style="stroke: #000000; stroke-width: 1.5;" x1="539.5" x2="654.5" y1="183" y2="183"/><line style="stroke: #000000; stroke-width: 1.5;" x1="654.5" x2="654.5" y1="183" y2="219.2969"/><text fill="#000000" font-family="sans-serif" font-size="14" lengthAdjust="spacingAndGlyphs" textLength="85" x="554.5" y="205.9951">messaging2</text><!--MD5=[51886323d88e0b4c566e02eee464786f]
entity messaging3--><polygon fill="#FEFECE" filter="url(#f1jspe4pxbau6q)" points="459.5,289,469.5,279,584.5,279,584.5,315.2969,574.5,325.2969,459.5,325.2969,459.5,289" style="stroke: #000000; stroke-width: 1.5;"/><line style="stroke: #000000; stroke-width: 1.5;" x1="574.5" x2="583.5" y1="289" y2="280"/><line style="stroke: #000000; stroke-width: 1.5;" x1="459.5" x2="574.5" y1="289" y2="289"/><line style="stroke: #000000; stroke-width: 1.5;" x1="574.5" x2="574.5" y1="289" y2="325.2969"/><text fill="#000000" font-family="sans-serif" font-size="14" lengthAdjust="spacingAndGlyphs" textLength="85" x="474.5" y="311.9951">messaging3</text><!--MD5=[f4e15d3e2fc8ba161938d9edcd59596e]
link messaging1 to messaging2--><path d="M509.9406,196 C518.0615,196 526.1823,196 534.3032,196 " fill="none" id="messaging1-messaging2" style="stroke: #A80036; stroke-width: 1.0;"/><polygon fill="#A80036" points="539.3596,196,530.3596,192,534.3596,196,530.3596,200,539.3596,196" style="stroke: #A80036; stroke-width: 1.0;"/><polygon fill="#A80036" points="504.8125,196,513.8125,200,509.8125,196,513.8125,192,504.8125,196" style="stroke: #A80036; stroke-width: 1.0;"/><!--MD5=[1049f7380ea4dd0291552ba8db783ecc]
link messaging1 to messaging3--><path d="M462.5691,223.254 C474.406,238.938 489.2417,258.5952 501.1291,274.346 " fill="none" id="messaging1-messaging3" style="stroke: #A80036; stroke-width: 1.0;"/><polygon fill="#A80036" points="504.3988,278.6784,502.1698,269.0851,501.3867,274.6875,495.7843,273.9044,504.3988,278.6784" style="stroke: #A80036; stroke-width: 1.0;"/><polygon fill="#A80036" points="459.3588,219.0004,461.5876,228.5938,462.3708,222.9914,467.9732,223.7746,459.3588,219.0004" style="stroke: #A80036; stroke-width: 1.0;"/><!--MD5=[95e8a1b99eacbd589c3f419c747f7ac1]
link messaging2 to messaging3--><path d="M581.4309,223.254 C569.594,238.938 554.7583,258.5952 542.8709,274.346 " fill="none" id="messaging2-messaging3" style="stroke: #A80036; stroke-width: 1.0;"/><polygon fill="#A80036" points="539.6012,278.6784,548.2157,273.9044,542.6133,274.6875,541.8302,269.0851,539.6012,278.6784" style="stroke: #A80036; stroke-width: 1.0;"/><polygon fill="#A80036" points="584.6412,219.0004,576.0268,223.7746,581.6292,222.9914,582.4124,228.5938,584.6412,219.0004" style="stroke: #A80036; stroke-width: 1.0;"/><!--MD5=[95bbacb8c3dbed73275bdc7c2fbb4927]
link frontend to Messaging--><path d="M328.4868,138.8642 C328.8442,139.1641 329.2016,139.4694 329.5591,139.7803 C330.2741,140.4022 330.9893,141.0464 331.7047,141.7137 C332.4201,142.381 333.1357,143.0713 333.8515,143.7855 C334.2095,144.1426 334.5675,144.5056 334.9256,144.8746 C335.1046,145.0592 335.2836,145.2452 335.4627,145.4328 C335.5523,145.5265 335.6418,145.6207 335.7313,145.7152 C335.7761,145.7625 335.8209,145.8099 335.8657,145.8573 C335.8881,145.8811 335.9104,145.9048 335.9328,145.9286 C335.944,145.9405 335.9552,145.9524 335.9664,145.9643 C335.972,145.9702 335.9776,145.9762 335.9832,145.9821 " fill="none" id="frontend-Messaging" style="stroke: #A80036; stroke-width: 1.0;"/><polygon fill="#A80036" points="335.9832,145.9821,332.7328,136.6851,332.5584,142.3393,326.9042,142.1648,335.9832,145.9821" style="stroke: #A80036; stroke-width: 1.0;"/><polygon fill="#A80036" points="328.4868,138.8642,332.8111,147.713,332.3174,142.0777,337.9527,141.5839,328.4868,138.8642" style="stroke: #A80036; stroke-width: 1.0;"/><!--MD5=[b476eca813c6df552937e2365ba56770]
link front-end1 to front-end2--><!--MD5=[5890f05cede89b9b920587d4a2cab253]
link front-end1 to front-end3--><!--MD5=[65655b437ecc38dda39b2c39ad9a9287]
@startuml
rectangle "Front End" as frontend {
    node "front-end1"
    node "front-end2"
    node "front-end3"
}

rectangle Messaging {
    node messaging1
    node messaging2
    node messaging3

    messaging1 <-> messaging2
    messaging1 <- -> messaging3
    messaging2 <- -> messaging3
}

frontend <- -> Messaging

@enduml

PlantUML version 1.2020.06(Sun Apr 05 12:38:32 UTC 2020)
(APACHE source distribution)
Java Runtime: OpenJDK Runtime Environment
JVM: OpenJDK 64-Bit Server VM
Java Version: 11.0.7+10-post-Debian-3deb10u1
Operating System: Linux
Default Encoding: ANSI_X3.4-1968
Language: en
Country: US
--></g></svg>