<?xml version="1.0" encoding="UTF-8" standalone="no"?><svg xmlns="http://www.w3.org/2000/svg" xmlns:xlink="http://www.w3.org/1999/xlink" contentScriptType="application/ecmascript" contentStyleType="text/css" height="99px" preserveAspectRatio="none" style="width:553px;height:99px;" version="1.1" viewBox="0 0 553 99" width="553px" zoomAndPan="magnify"><defs><filter height="300%" id="f73no3gf5jvfw" width="300%" x="-1" y="-1"><feGaussianBlur result="blurOut" stdDeviation="2.0"/><feColorMatrix in="blurOut" result="blurOut2" type="matrix" values="0 0 0 0 0 0 0 0 0 0 0 0 0 0 0 0 0 0 .4 0"/><feOffset dx="4.0" dy="4.0" in="blurOut2" result="blurOut3"/><feBlend in="SourceGraphic" in2="blurOut3" mode="normal"/></filter></defs><g><!--MD5=[8fc3522a43f8c7199df5e09e5bb0188e]
entity user--><ellipse cx="22" cy="17.5" fill="#FEFECE" filter="url(#f73no3gf5jvfw)" rx="8" ry="8" style="stroke: #A80036; stroke-width: 1.5;"/><path d="M22,25.5 L22,52.5 M9,33.5 L35,33.5 M22,52.5 L9,67.5 M22,52.5 L35,67.5 " fill="none" filter="url(#f73no3gf5jvfw)" style="stroke: #A80036; stroke-width: 1.5;"/><text fill="#000000" font-family="sans-serif" font-size="14" lengthAdjust="spacingAndGlyphs" textLength="32" x="6" y="85.9951">User</text><!--MD5=[b1e3d2dcb3697de9e6328d1cb436cbc4]
entity frontend--><polygon fill="#FEFECE" filter="url(#f73no3gf5jvfw)" points="159.5,35.5,169.5,25.5,266.5,25.5,266.5,61.7969,256.5,71.7969,159.5,71.7969,159.5,35.5" style="stroke: #000000; stroke-width: 1.5;"/><line style="stroke: #000000; stroke-width: 1.5;" x1="256.5" x2="265.5" y1="35.5" y2="26.5"/><line style="stroke: #000000; stroke-width: 1.5;" x1="159.5" x2="256.5" y1="35.5" y2="35.5"/><line style="stroke: #000000; stroke-width: 1.5;" x1="256.5" x2="256.5" y1="35.5" y2="71.7969"/><text fill="#000000" font-family="sans-serif" font-size="14" lengthAdjust="spacingAndGlyphs" textLength="67" x="174.5" y="58.4951">Front End</text><!--MD5=[9ae5ad255f6debb40ed35199de901202]
entity messaging--><polygon fill="#FEFECE" filter="url(#f73no3gf5jvfw)" points="416.5,35.5,426.5,25.5,531.5,25.5,531.5,61.7969,521.5,71.7969,416.5,71.7969,416.5,35.5" style="stroke: #000000; stroke-width: 1.5;"/><line style="stroke: #000000; stroke-width: 1.5;" x1="521.5" x2="530.5" y1="35.5" y2="26.5"/><line style="stroke: #000000; stroke-width: 1.5;" x1="416.5" x2="521.5" y1="35.5" y2="35.5"/><line style="stroke: #000000; stroke-width: 1.5;" x1="521.5" x2="521.5" y1="35.5" y2="71.7969"/><text fill="#000000" font-family="sans-serif" font-size="14" lengthAdjust="spacingAndGlyphs" textLength="75" x="431.5" y="58.4951">Messaging</text><!--MD5=[122aa4dd056032f23668896f93924b57]
link user to frontend--><path d="M43.566,48.5 C70.2674,48.5 116.8149,48.5 154.3731,48.5 " fill="none" id="user-frontend" style="stroke: #A80036; stroke-width: 1.0;"/><polygon fill="#A80036" points="159.375,48.5,150.375,44.5,154.375,48.5,150.375,52.5,159.375,48.5" style="stroke: #A80036; stroke-width: 1.0;"/><polygon fill="#A80036" points="38.2846,48.5,47.2846,52.5,43.2846,48.5,47.2846,44.5,38.2846,48.5" style="stroke: #A80036; stroke-width: 1.0;"/><text fill="#000000" font-family="sans-serif" font-size="13" lengthAdjust="spacingAndGlyphs" textLength="85" x="56.25" y="41.5669">web interface</text><!--MD5=[3c28452820cda61de5d9adcad6a56ffa]
link frontend to messaging--><path d="M271.9483,48.5 C313.4135,48.5 368.8292,48.5 411.1372,48.5 " fill="none" id="frontend-messaging" style="stroke: #A80036; stroke-width: 1.0;"/><polygon fill="#A80036" points="416.23,48.5,407.23,44.5,411.23,48.5,407.23,52.5,416.23,48.5" style="stroke: #A80036; stroke-width: 1.0;"/><polygon fill="#A80036" points="266.7629,48.5,275.7629,52.5,271.7629,48.5,275.7629,44.5,266.7629,48.5" style="stroke: #A80036; stroke-width: 1.0;"/><text fill="#000000" font-family="sans-serif" font-size="13" lengthAdjust="spacingAndGlyphs" textLength="113" x="285" y="41.5669">messaging library</text><!--MD5=[32aae7886fb6cf410297cf7e1bc1e064]
@startuml

actor "User" as user
node "Front End" as frontend
node "Messaging" as messaging

user <-> frontend : web interface
frontend <-> messaging : messaging library

@enduml

PlantUML version 1.2020.06(Sun Apr 05 12:38:32 UTC 2020)
(APACHE source distribution)
Java Runtime: OpenJDK Runtime Environment
JVM: OpenJDK 64-Bit Server VM
Java Version: 11.0.7+10-post-Debian-3deb10u1
Operating System: Linux
Default Encoding: ANSI_X3.4-1968
Language: en
Country: US
--></g></svg>