<?xml version="1.0" encoding="UTF-8" standalone="no"?><svg xmlns="http://www.w3.org/2000/svg" xmlns:xlink="http://www.w3.org/1999/xlink" contentScriptType="application/ecmascript" contentStyleType="text/css" height="232px" preserveAspectRatio="none" style="width:511px;height:232px;" version="1.1" viewBox="0 0 511 232" width="511px" zoomAndPan="magnify"><defs><filter height="300%" id="f1mn8c1qyq48fj" width="300%" x="-1" y="-1"><feGaussianBlur result="blurOut" stdDeviation="2.0"/><feColorMatrix in="blurOut" result="blurOut2" type="matrix" values="0 0 0 0 0 0 0 0 0 0 0 0 0 0 0 0 0 0 .4 0"/><feOffset dx="4.0" dy="4.0" in="blurOut2" result="blurOut3"/><feBlend in="SourceGraphic" in2="blurOut3" mode="normal"/></filter></defs><g><!--MD5=[0ab5e50cb7c4d5dbbc1bea50a8b4b262]
cluster Front End--><polygon fill="#FFFFFF" filter="url(#f1mn8c1qyq48fj)" points="14,154,24,144,308,144,308,210,298,220,14,220,14,154" style="stroke: #000000; stroke-width: 1.5;"/><line style="stroke: #000000; stroke-width: 1.5;" x1="298" x2="307" y1="154" y2="145"/><line style="stroke: #000000; stroke-width: 1.5;" x1="14" x2="298" y1="154" y2="154"/><line style="stroke: #000000; stroke-width: 1.5;" x1="298" x2="298" y1="154" y2="220"/><text fill="#000000" font-family="sans-serif" font-size="14" font-weight="bold" lengthAdjust="spacingAndGlyphs" textLength="76" x="119" y="169.9951">Front End</text><!--MD5=[91e8730eafef390581e5da16e1ad9577]
entity messaginglib--><rect fill="#FEFECE" filter="url(#f1mn8c1qyq48fj)" height="36.2969" style="stroke: #000000; stroke-width: 1.5;" width="147" x="152.5" y="176"/><text fill="#000000" font-family="sans-serif" font-size="14" lengthAdjust="spacingAndGlyphs" textLength="127" x="162.5" y="198.9951">php-amqplib / pika</text><!--MD5=[184f03579192d74e08540b5f9fa56c3a]
entity webframework--><rect fill="#FEFECE" filter="url(#f1mn8c1qyq48fj)" height="36.2969" style="stroke: #000000; stroke-width: 1.5;" width="95" x="22.5" y="176"/><text fill="#000000" font-family="sans-serif" font-size="14" lengthAdjust="spacingAndGlyphs" textLength="75" x="32.5" y="198.9951">php / Flask</text><!--MD5=[feb5939ce823acf5a8245c3205b3c7a1]
entity Users--><ellipse cx="70" cy="17.5" fill="#FEFECE" filter="url(#f1mn8c1qyq48fj)" rx="8" ry="8" style="stroke: #A80036; stroke-width: 1.5;"/><path d="M70,25.5 L70,52.5 M57,33.5 L83,33.5 M70,52.5 L57,67.5 M70,52.5 L83,67.5 " fill="none" filter="url(#f1mn8c1qyq48fj)" style="stroke: #A80036; stroke-width: 1.5;"/><text fill="#000000" font-family="sans-serif" font-size="14" lengthAdjust="spacingAndGlyphs" textLength="40" x="50" y="85.9951">Users</text><!--MD5=[8e2e54331d73736ba4de0fe105a6947e]
entity Messaging--><polygon fill="#FEFECE" filter="url(#f1mn8c1qyq48fj)" points="374.5,181,384.5,171,489.5,171,489.5,207.2969,479.5,217.2969,374.5,217.2969,374.5,181" style="stroke: #000000; stroke-width: 1.5;"/><line style="stroke: #000000; stroke-width: 1.5;" x1="479.5" x2="488.5" y1="181" y2="172"/><line style="stroke: #000000; stroke-width: 1.5;" x1="374.5" x2="479.5" y1="181" y2="181"/><line style="stroke: #000000; stroke-width: 1.5;" x1="479.5" x2="479.5" y1="181" y2="217.2969"/><text fill="#000000" font-family="sans-serif" font-size="14" lengthAdjust="spacingAndGlyphs" textLength="75" x="389.5" y="203.9951">Messaging</text><!--MD5=[e9120cfd4a786c167b68186463b9af58]
link Users to webframework--><path d="M70,89.0299 C70,115.3417 70,148.7002 70,170.6641 " fill="none" id="Users-&gt;webframework" style="stroke: #A80036; stroke-width: 1.0;"/><polygon fill="#A80036" points="70,175.7174,74,166.7174,70,170.7174,66,166.7174,70,175.7174" style="stroke: #A80036; stroke-width: 1.0;"/><text fill="#000000" font-family="sans-serif" font-size="13" lengthAdjust="spacingAndGlyphs" textLength="32" x="71" y="132.0669">HTTP</text><!--MD5=[a5ab7f835ce10d1ac1afc8af57b4bddb]
link messaginglib to Messaging--><path d="M304.985,194 C326.2244,194 348.9066,194 369.1392,194 " fill="none" id="messaginglib-Messaging" style="stroke: #A80036; stroke-width: 1.0;"/><polygon fill="#A80036" points="374.2279,194,365.2279,190,369.2279,194,365.2279,198,374.2279,194" style="stroke: #A80036; stroke-width: 1.0;"/><polygon fill="#A80036" points="299.7889,194,308.7889,198,304.7889,194,308.7889,190,299.7889,194" style="stroke: #A80036; stroke-width: 1.0;"/><text fill="#000000" font-family="sans-serif" font-size="13" lengthAdjust="spacingAndGlyphs" textLength="38" x="318" y="187.0669">AMQP</text><!--MD5=[004acbbd93128c4486e38dee52a60894]
@startuml

actor Users

node "Front End" {
    rectangle messaginglib [
        php-amqplib / pika
    ]
    rectangle webframework [
        php / Flask
    ]
}

node Messaging

Users - -> webframework : HTTP
messaginglib <-> Messaging : AMQP

@enduml

PlantUML version 1.2020.06(Sun Apr 05 12:38:32 UTC 2020)
(APACHE source distribution)
Java Runtime: OpenJDK Runtime Environment
JVM: OpenJDK 64-Bit Server VM
Java Version: 11.0.7+10-post-Debian-3deb10u1
Operating System: Linux
Default Encoding: ANSI_X3.4-1968
Language: en
Country: US
--></g></svg>