<?xml version="1.0" encoding="UTF-8" standalone="no"?><svg xmlns="http://www.w3.org/2000/svg" xmlns:xlink="http://www.w3.org/1999/xlink" contentScriptType="application/ecmascript" contentStyleType="text/css" height="340px" preserveAspectRatio="none" style="width:1041px;height:340px;" version="1.1" viewBox="0 0 1041 340" width="1041px" zoomAndPan="magnify"><defs><filter height="300%" id="f1ekubnxbuqjf7" width="300%" x="-1" y="-1"><feGaussianBlur result="blurOut" stdDeviation="2.0"/><feColorMatrix in="blurOut" result="blurOut2" type="matrix" values="0 0 0 0 0 0 0 0 0 0 0 0 0 0 0 0 0 0 .4 0"/><feOffset dx="4.0" dy="4.0" in="blurOut2" result="blurOut3"/><feBlend in="SourceGraphic" in2="blurOut3" mode="normal"/></filter></defs><g><!--MD5=[5a3c60170ccc8f531ecaac6b79fff0a8]
cluster Google Cloud--><path d="M41.1497,32.2557 C62.5912,6.6332 84.9151,10.3412 101.6665,37.621 C119.742,0.0381 149.3836,2.9687 169.7183,35.4259 C191.9999,1.3629 220.0171,1.4564 240.1621,37.5706 C256.2943,6.5703 286.909,8.2285 306.0005,34.1477 C319.6098,2.647 347.1854,2.7398 365.0362,29.8774 C384.3119,1.8045 410.5794,2.5981 430.581,29.0041 C456.7147,2.0419 475.4207,3.6353 490.9954,39.2055 C506.0137,5.2798 535.9748,-1.4656 558.5671,31.5614 C580.2135,-0.4554 613.3395,2.0807 625.3181,40.6978 C641.8317,8.2877 674.3413,3.8097 692.666,38.8905 C710.4617,5.8354 734.0547,6.683 754.139,36.6584 C772.7599,-1.4863 800.8798,-0.4421 822.7793,33.5381 C842.0445,5.3589 864.4587,4.9629 882.749,34.5501 C907.7141,2.9109 928.3635,6.193 949,39 C952.297,35.9597 956.4265,36.912 957.6464,41.389 C1015.4569,74.9673 1029.0564,122.1975 966.0195,164.0267 C1004.5535,212.7338 1005.8847,250.8773 942,278 C944.6241,275.4632 946.6638,276.1081 948.3109,279.1127 C932.4287,310.2072 898.8093,315.1576 877.9082,284.869 C859.5182,314.9155 839.9185,321.3898 814.66,292.2031 C797.1726,318.9568 768.0313,316.8208 755.0695,287.4021 C734.7547,321.8912 709.6332,319.0979 685.2376,292.0314 C666.0169,318.2419 640.2732,318.6962 625.8684,287.0865 C612.3463,318.4765 585.3852,323.0323 563.6063,295.8658 C540.3547,328.957 519.6259,324.795 498.2143,293.9829 C477.173,327.943 450.581,327.768 429.0592,294.4771 C407.5998,318.7879 386.3514,321.3606 370.0317,289.1129 C348.903,322.4121 318.8758,316.2962 300.0046,286.6032 C281.332,321.1454 254.7333,317.1571 232.6174,290.3878 C212.9105,319.8637 185.1269,322.812 169.0124,286.8937 C154.9358,315.4002 128.3947,318.4526 110.724,290.6116 C74.2663,323.611 48.4935,311.9434 30,271 C32.275,271.9403 32.5457,274.2737 30.6134,275.7566 C-30.412,242.8782 -11.6837,186.5639 36.9834,159.7066 C-14.4926,126.7793 -16.6616,64.9136 37,32 C38.4901,30.2935 39.9097,29.9025 41.1497,32.2557 " fill="#FFFFFF" style="stroke: #000000; stroke-width: 1.5;"/><text fill="#000000" font-family="sans-serif" font-size="14" font-weight="bold" lengthAdjust="spacingAndGlyphs" textLength="96" x="441.5" y="51.5332">Google Cloud</text><!--MD5=[00d2b742c84eb79bfc1f61fe02e55ea0]
cluster Compute--><rect fill="#FFFFFF" filter="url(#f1ekubnxbuqjf7)" height="90" style="stroke: #000000; stroke-width: 1.5;" width="158" x="46" y="172"/><text fill="#000000" font-family="sans-serif" font-size="14" font-weight="bold" lengthAdjust="spacingAndGlyphs" textLength="63" x="93.5" y="188.5332">Compute</text><!--MD5=[562ed55e840afc79d9783beef242227d]
cluster Storage--><rect fill="#FFFFFF" filter="url(#f1ekubnxbuqjf7)" height="90" style="stroke: #000000; stroke-width: 1.5;" width="144" x="228" y="172"/><text fill="#000000" font-family="sans-serif" font-size="14" font-weight="bold" lengthAdjust="spacingAndGlyphs" textLength="55" x="272.5" y="188.5332">Storage</text><!--MD5=[d811b360aa49ba14029aeed5cd763cda]
cluster Networking--><rect fill="#FFFFFF" filter="url(#f1ekubnxbuqjf7)" height="90" style="stroke: #000000; stroke-width: 1.5;" width="428" x="396" y="172"/><text fill="#000000" font-family="sans-serif" font-size="14" font-weight="bold" lengthAdjust="spacingAndGlyphs" textLength="80" x="570" y="188.5332">Networking</text><!--MD5=[a4dc902f239699aed20ca9b78128f215]
entity gke--><polygon fill="#FEFECE" filter="url(#f1ekubnxbuqjf7)" points="260,70,270,60,514,60,514,97.6094,504,107.6094,260,107.6094,260,70" style="stroke: #000000; stroke-width: 1.5;"/><line style="stroke: #000000; stroke-width: 1.5;" x1="504" x2="513" y1="70" y2="61"/><line style="stroke: #000000; stroke-width: 1.5;" x1="260" x2="504" y1="70" y2="70"/><line style="stroke: #000000; stroke-width: 1.5;" x1="504" x2="504" y1="70" y2="107.6094"/><text fill="#000000" font-family="sans-serif" font-size="14" lengthAdjust="spacingAndGlyphs" textLength="214" x="275" y="94.5332">Google Kubernetes Engine (GKE)</text><!--MD5=[872ec617d9ac80cd402939df9c323e5b]
entity gcr--><polygon fill="#FEFECE" filter="url(#f1ekubnxbuqjf7)" points="649.5,70,659.5,60,902.5,60,902.5,97.6094,892.5,107.6094,649.5,107.6094,649.5,70" style="stroke: #000000; stroke-width: 1.5;"/><line style="stroke: #000000; stroke-width: 1.5;" x1="892.5" x2="901.5" y1="70" y2="61"/><line style="stroke: #000000; stroke-width: 1.5;" x1="649.5" x2="892.5" y1="70" y2="70"/><line style="stroke: #000000; stroke-width: 1.5;" x1="892.5" x2="892.5" y1="70" y2="107.6094"/><text fill="#000000" font-family="sans-serif" font-size="14" lengthAdjust="spacingAndGlyphs" textLength="213" x="664.5" y="94.5332">Google Container Registry (GCR)</text><!--MD5=[a7ce4f16542a5865a4d15f453275c7da]
entity gce--><rect fill="#FEFECE" filter="url(#f1ekubnxbuqjf7)" height="37.6094" style="stroke: #000000; stroke-width: 1.5;" width="125" x="62.5" y="208"/><text fill="#000000" font-family="sans-serif" font-size="14" lengthAdjust="spacingAndGlyphs" textLength="105" x="72.5" y="232.5332">Compute Engine</text><!--MD5=[d5096230de5c7e9b5a3d1997ba7f37f3]
entity cs--><rect fill="#FEFECE" filter="url(#f1ekubnxbuqjf7)" height="37.6094" style="stroke: #000000; stroke-width: 1.5;" width="111" x="244.5" y="208"/><text fill="#000000" font-family="sans-serif" font-size="14" lengthAdjust="spacingAndGlyphs" textLength="91" x="254.5" y="232.5332">Cloud Storage</text><!--MD5=[b8126c81252de049c824a7564d46b033]
entity lb--><rect fill="#FEFECE" filter="url(#f1ekubnxbuqjf7)" height="37.6094" style="stroke: #000000; stroke-width: 1.5;" width="112" x="597" y="208"/><text fill="#000000" font-family="sans-serif" font-size="14" lengthAdjust="spacingAndGlyphs" textLength="92" x="607" y="232.5332">Load Balancer</text><!--MD5=[0285e70227d2ef6b2dbc04633fe8170d]
entity vpc--><rect fill="#FEFECE" filter="url(#f1ekubnxbuqjf7)" height="37.6094" style="stroke: #000000; stroke-width: 1.5;" width="149" x="412.5" y="208"/><text fill="#000000" font-family="sans-serif" font-size="14" lengthAdjust="spacingAndGlyphs" textLength="129" x="422.5" y="232.5332">Virtual Private Cloud</text><!--MD5=[90ce5d4655d4711a1f79af63de34cb90]
entity egress--><rect fill="#FEFECE" filter="url(#f1ekubnxbuqjf7)" height="37.6094" style="stroke: #000000; stroke-width: 1.5;" width="64" x="744" y="208"/><text fill="#000000" font-family="sans-serif" font-size="14" lengthAdjust="spacingAndGlyphs" textLength="44" x="754" y="232.5332">Egress</text><!--MD5=[7b3e778aa906f9803f33e16dc8ae0220]
link gcr to egress--><path d="M804.861,108.177 C817.48,121.259 828.341,138.465 823,156 C817.589,173.766 805.997,191.116 795.68,204.0985 " fill="none" id="gcr-&gt;egress" style="stroke: #A80036; stroke-width: 1.0;"/><polygon fill="#A80036" points="792.527,207.9829,801.3041,203.515,795.6777,204.1005,795.0922,198.474,792.527,207.9829" style="stroke: #A80036; stroke-width: 1.0;"/><text fill="#000000" font-family="sans-serif" font-size="13" lengthAdjust="spacingAndGlyphs" textLength="77" x="825" y="152.4951">external pulls</text><!--MD5=[28c4f303b2b7791df1e713375a243308]
link gcr to cs--><path d="M758.613,108.223 C744.592,124.917 723.261,146.151 699,156 C667.795,168.668 428.175,154.05 396,164 C369.391,172.229 343.097,190.077 324.774,204.5197 " fill="none" id="gcr-&gt;cs" style="stroke: #A80036; stroke-width: 1.0;"/><polygon fill="#A80036" points="320.757,207.7326,330.284,205.2352,324.6618,204.6097,325.2873,198.9875,320.757,207.7326" style="stroke: #A80036; stroke-width: 1.0;"/><text fill="#000000" font-family="sans-serif" font-size="13" lengthAdjust="spacingAndGlyphs" textLength="82" x="730" y="152.4951">image storage</text><!--MD5=[471aac74c56461b337967d2d42e16b11]
link gke to gce--><path d="M259.701,92.429 C191.898,99.334 118.182,112.596 97,138 C81.3458,156.774 94.2703,184.401 107.285,203.675 " fill="none" id="gke-&gt;gce" style="stroke: #A80036; stroke-width: 1.0;"/><polygon fill="#A80036" points="110.227,207.8974,108.3638,198.2264,107.3686,203.795,101.8,202.7998,110.227,207.8974" style="stroke: #A80036; stroke-width: 1.0;"/><text fill="#000000" font-family="sans-serif" font-size="13" lengthAdjust="spacingAndGlyphs" textLength="154" x="98" y="152.4951">VMs for Kubernetes nodes</text><!--MD5=[92f87d87802119fa0e0db68cc153eb8d]
link gke to cs--><path d="M299.97,108.145 C286.519,115.525 274.345,125.235 266,138 C252.586,158.52 266.481,185.128 280.337,203.6898 " fill="none" id="gke-&gt;cs" style="stroke: #A80036; stroke-width: 1.0;"/><polygon fill="#A80036" points="283.468,207.7572,281.1467,198.1858,280.4176,203.7955,274.808,203.0664,283.468,207.7572" style="stroke: #A80036; stroke-width: 1.0;"/><text fill="#000000" font-family="sans-serif" font-size="13" lengthAdjust="spacingAndGlyphs" textLength="149" x="267" y="152.4951">storage for VolumeClaims</text><!--MD5=[83946a17cedf7f36941f149d4e6e4b43]
link gke to lb--><path d="M443.618,108.055 C499.114,130.689 575.863,162.103 579,164 C597.878,175.415 616.906,191.482 630.939,204.4 " fill="none" id="gke-&gt;lb" style="stroke: #A80036; stroke-width: 1.0;"/><polygon fill="#A80036" points="634.761,207.9535,630.895,198.8951,631.0998,204.5483,625.4467,204.753,634.761,207.9535" style="stroke: #A80036; stroke-width: 1.0;"/><text fill="#000000" font-family="sans-serif" font-size="13" lengthAdjust="spacingAndGlyphs" textLength="132" x="559" y="152.4951">LoadBalancer Services</text><!--MD5=[18929b9c82fe15bc8ac8aefd965a2697]
reverse link gke to gcr--><path d="M519.205,84 C561.211,84 607.553,84 649.171,84 " fill="none" id="gke&lt;-gcr" style="stroke: #A80036; stroke-width: 1.0;"/><polygon fill="#A80036" points="514.104,84,523.104,88,519.104,84,523.104,80,514.104,84" style="stroke: #A80036; stroke-width: 1.0;"/><text fill="#000000" font-family="sans-serif" font-size="13" lengthAdjust="spacingAndGlyphs" textLength="99" x="532.25" y="77.4951">container images</text><!--MD5=[a24bda76dbf834117ad6c8cd0a4814ab]
link gke to vpc--><path d="M403.513,108.283 C422.182,134.606 452.378,177.183 470.882,203.2737 " fill="none" id="gke-&gt;vpc" style="stroke: #A80036; stroke-width: 1.0;"/><polygon fill="#A80036" points="473.972,207.63,472.0283,197.9748,471.0795,203.5516,465.5028,202.6028,473.972,207.63" style="stroke: #A80036; stroke-width: 1.0;"/><text fill="#000000" font-family="sans-serif" font-size="13" lengthAdjust="spacingAndGlyphs" textLength="62" x="438" y="152.4951">networking</text><!--MD5=[f2ebfaa99fbe73e3d21eb05950b94307]
@startuml
cloud "Google Cloud" {
    rectangle "Compute" {
        rectangle "Compute Engine" as gce
    }
    rectangle "Storage" {
        rectangle "Cloud Storage" as cs
    }
    rectangle "Networking" {
        rectangle "Load Balancer" as lb
        rectangle "Virtual Private Cloud" as vpc
        rectangle "Egress" as egress
    }
    node "Google Kubernetes Engine (GKE)" as gke
    node "Google Container Registry (GCR)" as gcr

    gcr - -> egress: external pulls
    gcr - -> cs: image storage

    gke - -> gce: VMs for Kubernetes nodes
    gke - -> cs: storage for VolumeClaims
    gke - -> lb: LoadBalancer Services
    gke <- gcr: container images
    gke - -> vpc: networking
}
@enduml

PlantUML version 1.2019.12(Sun Nov 03 05:24:54 EST 2019)
(APACHE source distribution)
Java Runtime: OpenJDK Runtime Environment
JVM: OpenJDK 64-Bit Server VM
Java Version: 13.0.1+9
Operating System: Windows 10
Default Encoding: Cp1252
Language: en
Country: US
--></g></svg>