<?xml version="1.0" encoding="UTF-8" standalone="no"?><svg xmlns="http://www.w3.org/2000/svg" xmlns:xlink="http://www.w3.org/1999/xlink" contentScriptType="application/ecmascript" contentStyleType="text/css" height="348px" preserveAspectRatio="none" style="width:1235px;height:348px;" version="1.1" viewBox="0 0 1235 348" width="1235px" zoomAndPan="magnify"><defs><filter height="300%" id="f1ekubnxbuqjf7" width="300%" x="-1" y="-1"><feGaussianBlur result="blurOut" stdDeviation="2.0"/><feColorMatrix in="blurOut" result="blurOut2" type="matrix" values="0 0 0 0 0 0 0 0 0 0 0 0 0 0 0 0 0 0 .4 0"/><feOffset dx="4.0" dy="4.0" in="blurOut2" result="blurOut3"/><feBlend in="SourceGraphic" in2="blurOut3" mode="normal"/></filter></defs><g><!--MD5=[5a3c60170ccc8f531ecaac6b79fff0a8]
cluster Google Cloud--><path d="M34.3511,31.5112 C55.0407,-9.3906 85.8258,-6.1097 110.4552,27.4864 C133.9744,-14.9098 166.9339,-12.2403 189.565,28.3332 C211.7579,-5.7252 244.8022,-15.9748 270.0823,25.0214 C295.9897,-23.4354 330.2777,-17.2456 358.3346,22.8798 C379.6099,-12.672 419.4426,-9.9976 439.1908,24.6389 C460.3647,-13.0568 491.7847,-15.3435 515.3293,22.2413 C535.3518,-16.0855 570.2634,-18.156 590.5753,21.9637 C611.2748,-16.1725 649.08,-28.209 676.5623,14.7739 C699.2159,-23.4437 731.0654,-21.1843 749.9991,18.2901 C774.9477,-14.3295 806.3793,-12.8303 825.744,24.3497 C854.3007,-9.3723 880.8501,-7.492 901.3748,32.5814 C922.304,-12.6613 957.561,-9.9243 983.4154,27.7057 C1011.0493,-3.5041 1041.7806,-8.6021 1064.0699,33.5793 C1086.5284,-9.9012 1119.8397,-10.2918 1145,31 C1152.3131,28.7353 1155.6414,33.2605 1153.8578,39.9744 C1221.8374,67.5308 1223.2554,121.2079 1165.378,160.7675 C1216.7564,210.7761 1201.9534,254.1572 1138,277 C1144.0832,279.9627 1143.1731,284.603 1138.6547,288.1862 C1121.6902,327.0328 1087.7659,323.5494 1067.5416,291.4538 C1046.0749,327.0068 1009.5824,328.1792 987.2128,292.4715 C966.2851,327.5967 930.2489,326.2411 908.595,293.3103 C881.152,328.1826 850.2904,325.767 824.5243,291.2776 C804.2083,328.0333 766.5094,334.0724 744.0898,293.4647 C718.9304,332.7728 681.1535,326.5278 665.8971,284.0023 C643.3413,326.1145 616.0575,331.7576 585.561,291.7728 C566.7106,334.9591 531.9335,336.8348 507.8038,296.6996 C482.7159,328.9125 449.8618,334.3992 429.9897,291.3098 C407.9477,324.2833 381.9145,325.6681 358.8552,292.4022 C328.4338,329.8019 299.6807,324.19 279.7104,282.0084 C258.7088,316.4788 218.7913,328.1097 196.555,283.3036 C179.2107,316.4092 145.8905,329.1339 122.0064,290.0579 C80.0734,332.4988 44.0986,326.4515 22,270 C30.5752,272.2152 31.6696,277.4672 26.284,283.9651 C-31.6373,251.4649 -39.571,197.2457 13.3863,153.7621 C-43.5513,110.8957 -27.7648,53.1851 29,24 C33.5802,23.6289 36.8137,26.8649 34.3511,31.5112 " fill="#FFFFFF" style="stroke: #000000; stroke-width: 1.5;"/><text fill="#000000" font-family="sans-serif" font-size="14" font-weight="bold" lengthAdjust="spacingAndGlyphs" textLength="106" x="530.5" y="41.9951">Google Cloud</text><!--MD5=[00d2b742c84eb79bfc1f61fe02e55ea0]
cluster Compute--><rect fill="#FFFFFF" filter="url(#f1ekubnxbuqjf7)" height="71" style="stroke: #000000; stroke-width: 1.5;" width="152" x="469" y="206"/><text fill="#000000" font-family="sans-serif" font-size="14" font-weight="bold" lengthAdjust="spacingAndGlyphs" textLength="71" x="509.5" y="220.9951">Compute</text><!--MD5=[562ed55e840afc79d9783beef242227d]
cluster Storage--><rect fill="#FFFFFF" filter="url(#f1ekubnxbuqjf7)" height="71" style="stroke: #000000; stroke-width: 1.5;" width="134" x="812" y="206"/><text fill="#000000" font-family="sans-serif" font-size="14" font-weight="bold" lengthAdjust="spacingAndGlyphs" textLength="62" x="848" y="220.9951">Storage</text><!--MD5=[d811b360aa49ba14029aeed5cd763cda]
cluster Networking--><rect fill="#FFFFFF" filter="url(#f1ekubnxbuqjf7)" height="71" style="stroke: #000000; stroke-width: 1.5;" width="428" x="22" y="206"/><text fill="#000000" font-family="sans-serif" font-size="14" font-weight="bold" lengthAdjust="spacingAndGlyphs" textLength="91" x="190.5" y="220.9951">Networking</text><!--MD5=[a4dc902f239699aed20ca9b78128f215]
entity gke--><polygon fill="#FEFECE" filter="url(#f1ekubnxbuqjf7)" points="280,53,290,43,550,43,550,79.2969,540,89.2969,280,89.2969,280,53" style="stroke: #000000; stroke-width: 1.5;"/><line style="stroke: #000000; stroke-width: 1.5;" x1="540" x2="549" y1="53" y2="44"/><line style="stroke: #000000; stroke-width: 1.5;" x1="280" x2="540" y1="53" y2="53"/><line style="stroke: #000000; stroke-width: 1.5;" x1="540" x2="540" y1="53" y2="89.2969"/><text fill="#000000" font-family="sans-serif" font-size="14" lengthAdjust="spacingAndGlyphs" textLength="230" x="295" y="75.9951">Google Kubernetes Engine (GKE)</text><!--MD5=[872ec617d9ac80cd402939df9c323e5b]
entity gcr--><polygon fill="#FEFECE" filter="url(#f1ekubnxbuqjf7)" points="760,53,770,43,1026,43,1026,79.2969,1016,89.2969,760,89.2969,760,53" style="stroke: #000000; stroke-width: 1.5;"/><line style="stroke: #000000; stroke-width: 1.5;" x1="1016" x2="1025" y1="53" y2="44"/><line style="stroke: #000000; stroke-width: 1.5;" x1="760" x2="1016" y1="53" y2="53"/><line style="stroke: #000000; stroke-width: 1.5;" x1="1016" x2="1016" y1="53" y2="89.2969"/><text fill="#000000" font-family="sans-serif" font-size="14" lengthAdjust="spacingAndGlyphs" textLength="226" x="775" y="75.9951">Google Container Registry (GCR)</text><!--MD5=[a7ce4f16542a5865a4d15f453275c7da]
entity gce--><rect fill="#FEFECE" filter="url(#f1ekubnxbuqjf7)" height="36.2969" style="stroke: #000000; stroke-width: 1.5;" width="136" x="477" y="233"/><text fill="#000000" font-family="sans-serif" font-size="14" lengthAdjust="spacingAndGlyphs" textLength="116" x="487" y="255.9951">Compute Engine</text><!--MD5=[d5096230de5c7e9b5a3d1997ba7f37f3]
entity cs--><rect fill="#FEFECE" filter="url(#f1ekubnxbuqjf7)" height="36.2969" style="stroke: #000000; stroke-width: 1.5;" width="118" x="820" y="233"/><text fill="#000000" font-family="sans-serif" font-size="14" lengthAdjust="spacingAndGlyphs" textLength="98" x="830" y="255.9951">Cloud Storage</text><!--MD5=[b8126c81252de049c824a7564d46b033]
entity lb--><rect fill="#FEFECE" filter="url(#f1ekubnxbuqjf7)" height="36.2969" style="stroke: #000000; stroke-width: 1.5;" width="117" x="221.5" y="233"/><text fill="#000000" font-family="sans-serif" font-size="14" lengthAdjust="spacingAndGlyphs" textLength="97" x="231.5" y="255.9951">Load Balancer</text><!--MD5=[0285e70227d2ef6b2dbc04633fe8170d]
entity vpc--><rect fill="#FEFECE" filter="url(#f1ekubnxbuqjf7)" height="36.2969" style="stroke: #000000; stroke-width: 1.5;" width="156" x="30" y="233"/><text fill="#000000" font-family="sans-serif" font-size="14" lengthAdjust="spacingAndGlyphs" textLength="136" x="40" y="255.9951">Virtual Private Cloud</text><!--MD5=[90ce5d4655d4711a1f79af63de34cb90]
entity egress--><rect fill="#FEFECE" filter="url(#f1ekubnxbuqjf7)" height="36.2969" style="stroke: #000000; stroke-width: 1.5;" width="68" x="374" y="233"/><text fill="#000000" font-family="sans-serif" font-size="14" lengthAdjust="spacingAndGlyphs" textLength="48" x="384" y="255.9951">Egress</text><!--MD5=[7b3e778aa906f9803f33e16dc8ae0220]
link gcr to egress--><path d="M887.222,89.1602 C879.9771,112.9449 865.0858,148.958 838,167 C697.8049,260.3844 615.921,139.8578 461,206 C448.7609,211.2254 437.2337,220.2962 428.0752,228.9311 " fill="none" id="gcr-&gt;egress" style="stroke: #A80036; stroke-width: 1.0;"/><polygon fill="#A80036" points="424.3,232.5927,433.5454,229.1982,427.8892,229.1116,427.9757,223.4555,424.3,232.5927" style="stroke: #A80036; stroke-width: 1.0;"/><text fill="#000000" font-family="sans-serif" font-size="13" lengthAdjust="spacingAndGlyphs" textLength="85" x="856" y="163.0669">external pulls</text><!--MD5=[28c4f303b2b7791df1e713375a243308]
link gcr to cs--><path d="M940.1034,89.0257 C971.1057,107.6307 1003.3524,135.7864 988,167 C974.2518,194.952 946.2331,216.2211 922.0465,230.3638 " fill="none" id="gcr-&gt;cs" style="stroke: #A80036; stroke-width: 1.0;"/><polygon fill="#A80036" points="917.5793,232.9216,927.3772,231.9207,921.9183,230.4371,923.402,224.9783,917.5793,232.9216" style="stroke: #A80036; stroke-width: 1.0;"/><text fill="#000000" font-family="sans-serif" font-size="13" lengthAdjust="spacingAndGlyphs" textLength="93" x="992" y="163.0669">image storage</text><!--MD5=[471aac74c56461b337967d2d42e16b11]
link gke to gce--><path d="M417.1037,89.3094 C419.9635,110.9184 426.6267,143.2221 442,167 C458.913,193.1594 486.6315,215.0885 509.0557,229.9742 " fill="none" id="gke-&gt;gce" style="stroke: #A80036; stroke-width: 1.0;"/><polygon fill="#A80036" points="513.4652,232.8566,508.1207,224.584,509.2801,230.1208,503.7433,231.2802,513.4652,232.8566" style="stroke: #A80036; stroke-width: 1.0;"/><text fill="#000000" font-family="sans-serif" font-size="13" lengthAdjust="spacingAndGlyphs" textLength="168" x="443" y="163.0669">VMs for Kubernetes nodes</text><!--MD5=[92f87d87802119fa0e0db68cc153eb8d]
link gke to cs--><path d="M472.8277,89.0563 C564.6228,125.6556 742.148,196.4362 828.8698,231.0127 " fill="none" id="gke-&gt;cs" style="stroke: #A80036; stroke-width: 1.0;"/><polygon fill="#A80036" points="833.6897,232.9345,826.8112,225.8856,829.0453,231.0826,823.8483,233.3167,833.6897,232.9345" style="stroke: #A80036; stroke-width: 1.0;"/><text fill="#000000" font-family="sans-serif" font-size="13" lengthAdjust="spacingAndGlyphs" textLength="166" x="663" y="163.0669">storage for VolumeClaims</text><!--MD5=[83946a17cedf7f36941f149d4e6e4b43]
link gke to lb--><path d="M350.0065,89.0723 C322.6579,102.3825 293.6056,122.1262 278,150 C264.5953,173.9427 268.3225,206.3449 273.2478,227.9234 " fill="none" id="gke-&gt;lb" style="stroke: #A80036; stroke-width: 1.0;"/><polygon fill="#A80036" points="274.4472,232.8946,276.2245,223.2074,273.2744,228.0341,268.4477,225.084,274.4472,232.8946" style="stroke: #A80036; stroke-width: 1.0;"/><text fill="#000000" font-family="sans-serif" font-size="13" lengthAdjust="spacingAndGlyphs" textLength="145" x="279" y="163.0669">LoadBalancer Services</text><!--MD5=[18929b9c82fe15bc8ac8aefd965a2697]
reverse link gke to gcr--><path d="M555.0886,66 C619.7537,66 696.1487,66 759.9273,66 " fill="none" id="gke&lt;-gcr" style="stroke: #A80036; stroke-width: 1.0;"/><polygon fill="#A80036" points="550.059,66,559.059,70,555.059,66,559.059,62,550.059,66" style="stroke: #A80036; stroke-width: 1.0;"/><text fill="#000000" font-family="sans-serif" font-size="13" lengthAdjust="spacingAndGlyphs" textLength="111" x="599.5" y="59.0669">container images</text><!--MD5=[a24bda76dbf834117ad6c8cd0a4814ab]
link gke to vpc--><path d="M322.6697,89.0054 C280.3351,102.3986 231.0118,122.2292 192,150 C162.0401,171.3271 136.4954,205.8591 121.6905,228.4993 " fill="none" id="gke-&gt;vpc" style="stroke: #A80036; stroke-width: 1.0;"/><polygon fill="#A80036" points="118.8746,232.8613,127.1165,227.4695,121.5864,228.6606,120.3954,223.1306,118.8746,232.8613" style="stroke: #A80036; stroke-width: 1.0;"/><text fill="#000000" font-family="sans-serif" font-size="13" lengthAdjust="spacingAndGlyphs" textLength="69" x="193" y="163.0669">networking</text><!--MD5=[3c94d4c84aa842389728599fe2948ee6]
@startuml
cloud "Google Cloud" {
    rectangle "Compute" {
        rectangle "Compute Engine" as gce
    }
    rectangle "Storage" {
        rectangle "Cloud Storage" as cs
    }
    rectangle "Networking" {
        rectangle "Load Balancer" as lb
        rectangle "Virtual Private Cloud" as vpc
        rectangle "Egress" as egress
    }
    node "Google Kubernetes Engine (GKE)" as gke
    node "Google Container Registry (GCR)" as gcr

    gcr - -> egress: external pulls
    gcr - -> cs: image storage

    gke - -> gce: VMs for Kubernetes nodes
    gke - -> cs: storage for VolumeClaims
    gke - -> lb: LoadBalancer Services
    gke <- gcr: container images
    gke - -> vpc: networking
}
@enduml

PlantUML version 1.2020.06(Sun Apr 05 12:38:32 UTC 2020)
(APACHE source distribution)
Java Runtime: OpenJDK Runtime Environment
JVM: OpenJDK 64-Bit Server VM
Java Version: 11.0.7+10-post-Debian-3deb10u1
Operating System: Linux
Default Encoding: ANSI_X3.4-1968
Language: en
Country: US
--></g></svg>