<?xml version="1.0" encoding="UTF-8" standalone="no"?><svg xmlns="http://www.w3.org/2000/svg" xmlns:xlink="http://www.w3.org/1999/xlink" contentScriptType="application/ecmascript" contentStyleType="text/css" height="260px" preserveAspectRatio="none" style="width:343px;height:260px;" version="1.1" viewBox="0 0 343 260" width="343px" zoomAndPan="magnify"><defs><filter height="300%" id="f11aqdgatjow6v" width="300%" x="-1" y="-1"><feGaussianBlur result="blurOut" stdDeviation="2.0"/><feColorMatrix in="blurOut" result="blurOut2" type="matrix" values="0 0 0 0 0 0 0 0 0 0 0 0 0 0 0 0 0 0 .4 0"/><feOffset dx="4.0" dy="4.0" in="blurOut2" result="blurOut3"/><feBlend in="SourceGraphic" in2="blurOut3" mode="normal"/></filter></defs><g><!--MD5=[4f96b4ca2c63f1a93e6dd3fb44a17ade]
cluster Messaging--><polygon fill="#FFFFFF" filter="url(#f11aqdgatjow6v)" points="14,119,24,109,321,109,321,238,311,248,14,248,14,119" style="stroke: #000000; stroke-width: 1.5;"/><line style="stroke: #000000; stroke-width: 1.5;" x1="311" x2="320" y1="119" y2="110"/><line style="stroke: #000000; stroke-width: 1.5;" x1="14" x2="311" y1="119" y2="119"/><line style="stroke: #000000; stroke-width: 1.5;" x1="311" x2="311" y1="119" y2="248"/><text fill="#000000" font-family="sans-serif" font-size="14" font-weight="bold" lengthAdjust="spacingAndGlyphs" textLength="84" x="121.5" y="134.9951">Messaging</text><!--MD5=[bdd0a7256e0fdebb244694000bd48637]
entity requests--><path d="M27,177.5 L155,177.5 C160,177.5 160,190.6484 160,190.6484 C160,190.6484 160,203.7969 155,203.7969 L27,203.7969 C22,203.7969 22,190.6484 22,190.6484 C22,190.6484 22,177.5 27,177.5 " fill="#FEFECE" filter="url(#f11aqdgatjow6v)" style="stroke: #A80036; stroke-width: 1.5;"/><path d="M155,177.5 C150,177.5 150,190.6484 150,190.6484 C150,203.7969 155,203.7969 155,203.7969 " fill="none" style="stroke: #A80036; stroke-width: 1.5;"/><text fill="#000000" font-family="sans-serif" font-size="14" lengthAdjust="spacingAndGlyphs" textLength="118" x="27" y="195.4951">Requests Queue</text><!--MD5=[046b42bc0b06d01dbef506dc17768c5c]
entity replies--><path d="M200.5,141 L307.5,141 C312.5,141 312.5,190.5938 312.5,190.5938 C312.5,190.5938 312.5,240.1875 307.5,240.1875 L200.5,240.1875 C195.5,240.1875 195.5,190.5938 195.5,190.5938 C195.5,190.5938 195.5,141 200.5,141 " fill="#FEFECE" filter="url(#f11aqdgatjow6v)" style="stroke: #A80036; stroke-width: 1.5;"/><path d="M307.5,141 C302.5,141 302.5,190.5938 302.5,190.5938 C302.5,240.1875 307.5,240.1875 307.5,240.1875 " fill="none" style="stroke: #A80036; stroke-width: 1.5;"/><text fill="#000000" font-family="sans-serif" font-size="14" lengthAdjust="spacingAndGlyphs" textLength="97" x="200.5" y="158.9951">Reply Queues</text><line style="stroke: #A80036; stroke-width: 1.0;" x1="196.5" x2="304.3529" y1="162.2969" y2="162.2969"/><text fill="#000000" font-family="sans-serif" font-size="14" lengthAdjust="spacingAndGlyphs" textLength="52" x="206.5" y="179.292">Client 1</text><line style="stroke: #A80036; stroke-width: 1.0; stroke-dasharray: 1.0,2.0;" x1="196.5" x2="301.9033" y1="186.5938" y2="186.5938"/><text fill="#000000" font-family="sans-serif" font-size="14" lengthAdjust="spacingAndGlyphs" textLength="52" x="206.5" y="203.5889">Client 2</text><line style="stroke: #A80036; stroke-width: 1.0; stroke-dasharray: 1.0,2.0;" x1="196.5" x2="303.5463" y1="210.8906" y2="210.8906"/><text fill="#000000" font-family="sans-serif" font-size="14" lengthAdjust="spacingAndGlyphs" textLength="20" x="206.5" y="227.8857">. . .</text><!--MD5=[b1e3d2dcb3697de9e6328d1cb436cbc4]
entity frontend--><polygon fill="#FEFECE" filter="url(#f11aqdgatjow6v)" points="44.5,18,54.5,8,151.5,8,151.5,44.2969,141.5,54.2969,44.5,54.2969,44.5,18" style="stroke: #000000; stroke-width: 1.5;"/><line style="stroke: #000000; stroke-width: 1.5;" x1="141.5" x2="150.5" y1="18" y2="9"/><line style="stroke: #000000; stroke-width: 1.5;" x1="44.5" x2="141.5" y1="18" y2="18"/><line style="stroke: #000000; stroke-width: 1.5;" x1="141.5" x2="141.5" y1="18" y2="54.2969"/><text fill="#000000" font-family="sans-serif" font-size="14" lengthAdjust="spacingAndGlyphs" textLength="67" x="59.5" y="40.9951">Front End</text><!--MD5=[4e8ecd94af36cce41665c9f079adf9fd]
entity backend--><polygon fill="#FEFECE" filter="url(#f11aqdgatjow6v)" points="195.5,18,205.5,8,300.5,8,300.5,44.2969,290.5,54.2969,195.5,54.2969,195.5,18" style="stroke: #000000; stroke-width: 1.5;"/><line style="stroke: #000000; stroke-width: 1.5;" x1="290.5" x2="299.5" y1="18" y2="9"/><line style="stroke: #000000; stroke-width: 1.5;" x1="195.5" x2="290.5" y1="18" y2="18"/><line style="stroke: #000000; stroke-width: 1.5;" x1="290.5" x2="290.5" y1="18" y2="54.2969"/><text fill="#000000" font-family="sans-serif" font-size="14" lengthAdjust="spacingAndGlyphs" textLength="65" x="210.5" y="40.9951">Back End</text><!--MD5=[9475d49310c01dd75f6996f0d8426dd9]
link frontend to requests--><path d="M70.2113,54.1995 C62.1087,62.6471 54.287,72.8802 50,84 C37.8397,115.542 60.1025,152.3485 76.3041,173.3901 " fill="none" id="frontend-&gt;requests" style="stroke: #A80036; stroke-width: 1.0;"/><polygon fill="#A80036" points="79.4516,177.3819,77.0205,167.8378,76.3559,173.4555,70.7382,172.7909,79.4516,177.3819" style="stroke: #A80036; stroke-width: 1.0;"/><text fill="#000000" font-family="sans-serif" font-size="13" lengthAdjust="spacingAndGlyphs" textLength="38" x="51" y="97.0669">AMQP</text><!--MD5=[5aa60fd262ff6a8be8c095be98e43864]
reverse link frontend to replies--><path d="M104.072,58.9595 C108.718,73.6814 116.6741,90.7575 130,101 C146.8002,113.9128 158.3158,99.0055 177,109 C191.7612,116.896 205.2945,128.6845 216.759,140.8591 " fill="none" id="frontend&lt;-replies" style="stroke: #A80036; stroke-width: 1.0;"/><polygon fill="#A80036" points="102.6204,54.0703,101.3475,63.8366,104.0436,58.8635,109.0166,61.5595,102.6204,54.0703" style="stroke: #A80036; stroke-width: 1.0;"/><text fill="#000000" font-family="sans-serif" font-size="13" lengthAdjust="spacingAndGlyphs" textLength="38" x="131" y="97.0669">AMQP</text><!--MD5=[cb146785504cb2958527c0c97924b1ee]
reverse link backend to requests--><path d="M221.5551,57.866 C187.5904,92.3715 129.9553,150.9244 104.1619,177.1285 " fill="none" id="backend&lt;-requests" style="stroke: #A80036; stroke-width: 1.0;"/><polygon fill="#A80036" points="225.1709,54.1927,216.0067,57.8007,221.6634,57.7561,221.7081,63.4127,225.1709,54.1927" style="stroke: #A80036; stroke-width: 1.0;"/><text fill="#000000" font-family="sans-serif" font-size="13" lengthAdjust="spacingAndGlyphs" textLength="38" x="194" y="97.0669">AMQP</text><!--MD5=[eb5d98fe8dc35b0ece900e5472bf18df]
link backend to replies--><path d="M251.1963,54.1709 C252.3233,63.4287 253.447,74.1998 254,84 C254.9487,100.8132 255.2223,119.1433 255.1812,135.7827 " fill="none" id="backend-&gt;replies" style="stroke: #A80036; stroke-width: 1.0;"/><polygon fill="#A80036" points="255.1587,140.8889,259.1985,131.9067,255.1808,135.8889,251.1986,131.8713,255.1587,140.8889" style="stroke: #A80036; stroke-width: 1.0;"/><text fill="#000000" font-family="sans-serif" font-size="13" lengthAdjust="spacingAndGlyphs" textLength="38" x="255" y="97.0669">AMQP</text><!--MD5=[6f5fe4a1034aa6b810cefcc83f3124c2]
@startuml

node frontend [
    Front End
]

node backend [
    Back End
]

node Messaging {
    queue requests [
        Requests Queue
    ]
    queue replies [
        Reply Queues
        - - - -
        Client 1
        ....
        Client 2
        ....
        . . .
    ]
}

frontend - -> requests : AMQP
frontend <- - replies : AMQP
backend <- - requests : AMQP
backend - -> replies : AMQP

@enduml

PlantUML version 1.2020.06(Sun Apr 05 12:38:32 UTC 2020)
(APACHE source distribution)
Java Runtime: OpenJDK Runtime Environment
JVM: OpenJDK 64-Bit Server VM
Java Version: 11.0.7+10-post-Debian-3deb10u1
Operating System: Linux
Default Encoding: ANSI_X3.4-1968
Language: en
Country: US
--></g></svg>