<?xml version="1.0" encoding="UTF-8" standalone="no"?><svg xmlns="http://www.w3.org/2000/svg" xmlns:xlink="http://www.w3.org/1999/xlink" contentScriptType="application/ecmascript" contentStyleType="text/css" height="386px" preserveAspectRatio="none" style="width:654px;height:386px;" version="1.1" viewBox="0 0 654 386" width="654px" zoomAndPan="magnify"><defs><filter height="300%" id="f64vjypug6no7" width="300%" x="-1" y="-1"><feGaussianBlur result="blurOut" stdDeviation="2.0"/><feColorMatrix in="blurOut" result="blurOut2" type="matrix" values="0 0 0 0 0 0 0 0 0 0 0 0 0 0 0 0 0 0 .4 0"/><feOffset dx="4.0" dy="4.0" in="blurOut2" result="blurOut3"/><feBlend in="SourceGraphic" in2="blurOut3" mode="normal"/></filter></defs><g><!--MD5=[4887c039ab7c4e2fd2bceb0aa78af1d1]
cluster Operating System--><rect fill="#FFFFFF" filter="url(#f64vjypug6no7)" height="71" style="stroke: #000000; stroke-width: 1.5;" width="292" x="244" y="304"/><text fill="#000000" font-family="sans-serif" font-size="14" font-weight="bold" lengthAdjust="spacingAndGlyphs" textLength="141" x="319.5" y="318.9951">Operating System</text><!--MD5=[61c41a14a0f790ada34cbd71756aea65]
cluster Driver--><rect fill="#FFFFFF" filter="url(#f64vjypug6no7)" height="71" style="stroke: #000000; stroke-width: 1.5;" width="629" x="14" y="208"/><text fill="#000000" font-family="sans-serif" font-size="14" font-weight="bold" lengthAdjust="spacingAndGlyphs" textLength="48" x="304.5" y="222.9951">Driver</text><!--MD5=[933b4e6a54b0f1add2bb187149f1914f]
cluster Minikube Node--><rect fill="#FFFFFF" filter="url(#f64vjypug6no7)" height="167" style="stroke: #000000; stroke-width: 1.5;" width="280" x="221" y="16"/><text fill="#000000" font-family="sans-serif" font-size="14" font-weight="bold" lengthAdjust="spacingAndGlyphs" textLength="116" x="303" y="30.9951">Minikube Node</text><!--MD5=[5949fba844c239063e365cf8f1edeb91]
entity Windows--><rect fill="#FEFECE" filter="url(#f64vjypug6no7)" height="36.2969" style="stroke: #000000; stroke-width: 1.5;" width="82" x="446" y="331"/><text fill="#000000" font-family="sans-serif" font-size="14" lengthAdjust="spacingAndGlyphs" textLength="62" x="456" y="353.9951">Windows</text><!--MD5=[46321cb1e7f5dcfba913b052d7465d6d]
entity MacOS--><rect fill="#FEFECE" filter="url(#f64vjypug6no7)" height="36.2969" style="stroke: #000000; stroke-width: 1.5;" width="68" x="343" y="331"/><text fill="#000000" font-family="sans-serif" font-size="14" lengthAdjust="spacingAndGlyphs" textLength="48" x="353" y="353.9951">MacOS</text><!--MD5=[7453483e40b7d823ca17f971f918f6f5]
entity Linux--><rect fill="#FEFECE" filter="url(#f64vjypug6no7)" height="36.2969" style="stroke: #000000; stroke-width: 1.5;" width="55" x="252.5" y="331"/><text fill="#000000" font-family="sans-serif" font-size="14" lengthAdjust="spacingAndGlyphs" textLength="35" x="262.5" y="353.9951">Linux</text><!--MD5=[51cf7ba54943de7db56b08eb61ff70d9]
entity hyperv--><rect fill="#FEFECE" filter="url(#f64vjypug6no7)" height="36.2969" style="stroke: #000000; stroke-width: 1.5;" width="74" x="561" y="235"/><text fill="#000000" font-family="sans-serif" font-size="14" lengthAdjust="spacingAndGlyphs" textLength="54" x="571" y="257.9951">Hyper-V</text><!--MD5=[cec8e3ec4ee5e8fc987ab14798725791]
entity VirtualBox--><rect fill="#FEFECE" filter="url(#f64vjypug6no7)" height="36.2969" style="stroke: #000000; stroke-width: 1.5;" width="88" x="438" y="235"/><text fill="#000000" font-family="sans-serif" font-size="14" lengthAdjust="spacingAndGlyphs" textLength="68" x="448" y="257.9951">VirtualBox</text><!--MD5=[4ae52bd1c49eb63cdc031aa5457de07e]
entity docker_h--><rect fill="#FEFECE" filter="url(#f64vjypug6no7)" height="36.2969" style="stroke: #000000; stroke-width: 1.5;" width="234" x="169" y="235"/><text fill="#000000" font-family="sans-serif" font-size="14" lengthAdjust="spacingAndGlyphs" textLength="214" x="179" y="257.9951">Docker (on host, experimental)</text><!--MD5=[8159fcd6e2fa83a29240b826e0e66191]
entity none--><rect fill="#FEFECE" filter="url(#f64vjypug6no7)" height="36.2969" style="stroke: #000000; stroke-width: 1.5;" width="112" x="22" y="235"/><text fill="#000000" font-family="sans-serif" font-size="14" lengthAdjust="spacingAndGlyphs" textLength="92" x="32" y="257.9951">None (native)</text><!--MD5=[efad8c5f8aea933782aa32ac1688ea17]
entity linux--><rect fill="#FEFECE" filter="url(#f64vjypug6no7)" height="36.2969" style="stroke: #000000; stroke-width: 1.5;" width="80" x="314" y="139"/><text fill="#000000" font-family="sans-serif" font-size="14" lengthAdjust="spacingAndGlyphs" textLength="60" x="324" y="161.9951">Linux VM</text><!--MD5=[648cf3a753394be15047f18f3217c3f5]
entity docker_vm--><rect fill="#FEFECE" filter="url(#f64vjypug6no7)" height="36.2969" style="stroke: #000000; stroke-width: 1.5;" width="127" x="365.5" y="43"/><text fill="#000000" font-family="sans-serif" font-size="14" lengthAdjust="spacingAndGlyphs" textLength="107" x="375.5" y="65.9951">Docker (on VM)</text><!--MD5=[003bc8d3bcf70ea39831b7d42e34a0c6]
entity Kubernetes--><rect fill="#FEFECE" filter="url(#f64vjypug6no7)" height="36.2969" style="stroke: #000000; stroke-width: 1.5;" width="101" x="229.5" y="43"/><text fill="#000000" font-family="sans-serif" font-size="14" lengthAdjust="spacingAndGlyphs" textLength="81" x="239.5" y="65.9951">Kubernetes</text><!--MD5=[21c814f67586f512cb280b88fcb812ac]
link docker_vm to Kubernetes--><path d="M365.2176,74.2206 C355.4016,74.7324 345.5857,74.5411 335.7698,73.6467 " fill="none" id="docker_vm-&gt;Kubernetes" style="stroke: #A80036; stroke-width: 1.0;"/><polygon fill="#A80036" points="330.6367,73.1149,339.1764,78.0213,335.6101,73.6303,340.0011,70.064,330.6367,73.1149" style="stroke: #A80036; stroke-width: 1.0;"/><!--MD5=[aac2b50cdda6f653c8b4d1dc40930b6d]
link Kubernetes to docker_vm--><path d="M330.6367,48.8851 C340.4526,47.7456 350.2686,47.3092 360.0845,47.5759 " fill="none" id="Kubernetes-&gt;docker_vm" style="stroke: #A80036; stroke-width: 1.0;"/><polygon fill="#A80036" points="365.2176,47.7794,356.3833,43.4256,360.2215,47.5811,356.066,51.4193,365.2176,47.7794" style="stroke: #A80036; stroke-width: 1.0;"/><!--MD5=[61ee5011a98f23db3bfd74d2ffeb1d2f]
link Kubernetes to linux--><path d="M293.9188,79.0569 C306.0381,94.7791 323.6581,117.6375 336.6851,134.5375 " fill="none" id="Kubernetes-&gt;linux" style="stroke: #A80036; stroke-width: 1.0;"/><polygon fill="#A80036" points="339.892,138.6977,337.5654,129.1276,336.8394,134.7377,331.2293,134.0117,339.892,138.6977" style="stroke: #A80036; stroke-width: 1.0;"/><!--MD5=[2429fe5dffe58fa5db05ba05b5271a53]
link docker_vm to linux--><path d="M414.8931,79.0569 C402.6101,94.7791 384.7519,117.6375 371.5489,134.5375 " fill="none" id="docker_vm-&gt;linux" style="stroke: #A80036; stroke-width: 1.0;"/><polygon fill="#A80036" points="368.2987,138.6977,376.9916,134.0681,371.377,134.7576,370.6875,129.1429,368.2987,138.6977" style="stroke: #A80036; stroke-width: 1.0;"/><!--MD5=[5edf94aa7ec180d28548fcbfef4ee39c]
link linux to hyperv--><path d="M394.0258,162.5847 C433.7876,169.2926 495.6428,182.9175 544,208 C555.5642,213.9982 566.8737,222.8188 576.1301,231.0648 " fill="none" id="linux-&gt;hyperv" style="stroke: #A80036; stroke-width: 1.0;"/><polygon fill="#A80036" points="579.9662,234.5538,575.9995,225.5391,576.2673,231.1896,570.6168,231.4573,579.9662,234.5538" style="stroke: #A80036; stroke-width: 1.0;"/><!--MD5=[570d7572131a235c6c0f6836be9d583c]
link linux to VirtualBox--><path d="M378.0758,175.0569 C399.483,191.1122 430.8124,214.6093 453.4713,231.6035 " fill="none" id="linux-&gt;VirtualBox" style="stroke: #A80036; stroke-width: 1.0;"/><polygon fill="#A80036" points="457.5969,234.6977,452.7969,226.0977,453.5969,231.6977,447.9969,232.4977,457.5969,234.6977" style="stroke: #A80036; stroke-width: 1.0;"/><!--MD5=[fa5d3fa7a0d28069a5d3fc92fe9475a2]
link linux to docker_h--><path d="M341.2097,175.0569 C330.0731,190.7791 313.8818,213.6375 301.911,230.5375 " fill="none" id="linux-&gt;docker_h" style="stroke: #A80036; stroke-width: 1.0;"/><polygon fill="#A80036" points="298.9641,234.6977,307.4304,229.6656,301.8542,230.6176,300.9022,225.0414,298.9641,234.6977" style="stroke: #A80036; stroke-width: 1.0;"/><!--MD5=[69550a8e51fd988df643352bf0180396]
link linux to none--><path d="M313.7689,163.4884 C272.1676,171.0345 205.875,185.4228 152,208 C136.6751,214.4221 120.7917,223.6851 107.6876,232.1395 " fill="none" id="linux-&gt;none" style="stroke: #A80036; stroke-width: 1.0;"/><polygon fill="#A80036" points="103.3549,234.9704,113.0771,233.3962,107.5406,232.2355,108.7013,226.699,103.3549,234.9704" style="stroke: #A80036; stroke-width: 1.0;"/><!--MD5=[ee50a71dbecb023f22fd879c0f0e3f4a]
link hyperv to Windows--><path d="M577.1217,271.0569 C558.6348,287.0456 531.6146,310.4144 511.9847,327.3916 " fill="none" id="hyperv-&gt;Windows" style="stroke: #A80036; stroke-width: 1.0;"/><polygon fill="#A80036" points="508.162,330.6977,517.5859,327.8359,511.9439,327.427,512.3528,321.7849,508.162,330.6977" style="stroke: #A80036; stroke-width: 1.0;"/><!--MD5=[425fc68495d6b832a8fbe3927c5d322a]
link VirtualBox to Windows--><path d="M482.9405,271.0569 C483.7455,286.5126 484.9096,308.8647 485.7851,325.6731 " fill="none" id="VirtualBox-&gt;Windows" style="stroke: #A80036; stroke-width: 1.0;"/><polygon fill="#A80036" points="486.0468,330.6977,489.5731,321.5018,485.7867,325.7045,481.584,321.918,486.0468,330.6977" style="stroke: #A80036; stroke-width: 1.0;"/><!--MD5=[b18ccc98b4c62d629804a3ee1dfee623]
link docker_h to Windows--><path d="M350.1577,271.0646 C375.4975,279.4199 404.3815,290.512 429,304 C440.9395,310.5414 453.0135,319.4588 463.031,327.6304 " fill="none" id="docker_h-&gt;Windows" style="stroke: #A80036; stroke-width: 1.0;"/><polygon fill="#A80036" points="466.9065,330.8379,462.5234,322.0181,463.0546,327.65,457.4227,328.1812,466.9065,330.8379" style="stroke: #A80036; stroke-width: 1.0;"/><!--MD5=[7ff911a01b44d8c122459573ac6ba320]
link VirtualBox to MacOS--><path d="M462.2503,271.0569 C444.9084,286.9124 419.6284,310.0255 401.0999,326.9658 " fill="none" id="VirtualBox-&gt;MacOS" style="stroke: #A80036; stroke-width: 1.0;"/><polygon fill="#A80036" points="397.0181,330.6977,406.3594,327.5767,400.7082,327.3238,400.9611,321.6726,397.0181,330.6977" style="stroke: #A80036; stroke-width: 1.0;"/><!--MD5=[e62d40de2c5dbcd141eef73fc7570754]
link docker_h to MacOS--><path d="M303.1164,271.0569 C318.1461,286.9124 340.0554,310.0255 356.1134,326.9658 " fill="none" id="docker_h-&gt;MacOS" style="stroke: #A80036; stroke-width: 1.0;"/><polygon fill="#A80036" points="359.6509,330.6977,356.3623,321.4141,356.2111,327.0689,350.5563,326.9177,359.6509,330.6977" style="stroke: #A80036; stroke-width: 1.0;"/><!--MD5=[c5017562508b7a9c52a5e752e20755d3]
link VirtualBox to Linux--><path d="M441.9635,271.0425 C435.0394,273.8806 427.861,276.649 421,279 C379.6977,293.1525 363.9781,282.4631 326,304 C315.6441,309.8727 305.9392,318.6535 298.1377,326.9038 " fill="none" id="VirtualBox-&gt;Linux" style="stroke: #A80036; stroke-width: 1.0;"/><polygon fill="#A80036" points="294.4662,330.8962,303.5026,326.9792,297.8507,327.2158,297.614,321.5639,294.4662,330.8962" style="stroke: #A80036; stroke-width: 1.0;"/><!--MD5=[84d7913a0efe775a4ae401e3a56ba832]
link docker_h to Linux--><path d="M284.8714,271.0569 C283.9055,286.5126 282.5085,308.8647 281.4579,325.6731 " fill="none" id="docker_h-&gt;Linux" style="stroke: #A80036; stroke-width: 1.0;"/><polygon fill="#A80036" points="281.1439,330.6977,285.6977,321.9648,281.4559,325.7074,277.7133,321.4656,281.1439,330.6977" style="stroke: #A80036; stroke-width: 1.0;"/><!--MD5=[7d65906fde6ffbe2afe2a9642d0e66ca]
link none to Linux--><path d="M115.9947,271.0569 C153.9479,289.0941 211.6641,316.5235 247.5393,333.5731 " fill="none" id="none-&gt;Linux" style="stroke: #A80036; stroke-width: 1.0;"/><polygon fill="#A80036" points="252.2356,335.805,245.8237,328.3292,247.7196,333.6589,242.3899,335.5547,252.2356,335.805" style="stroke: #A80036; stroke-width: 1.0;"/><!--MD5=[fb3d949d180a321234febfa3be82535d]
@startuml

rectangle "Operating System" {
    rectangle Windows
    rectangle MacOS
    rectangle Linux
}

rectangle "Driver" {
    rectangle hyperv [
        Hyper-V
    ]
    rectangle VirtualBox
    rectangle docker_h [
        Docker (on host, experimental)
    ]
    rectangle none [
        None (native)
    ]
}

rectangle "Minikube Node" {
    rectangle linux [
        Linux VM
    ]
    rectangle docker_vm [
        Docker (on VM)
    ]
    rectangle Kubernetes
}

docker_vm -> Kubernetes
Kubernetes -> docker_vm
Kubernetes - -> linux
docker_vm - -> linux
linux - -> hyperv
linux - -> VirtualBox
linux - -> docker_h
linux - -> none
hyperv - -> Windows
VirtualBox - -> Windows
docker_h - -> Windows
VirtualBox - -> MacOS
docker_h - -> MacOS
VirtualBox - -> Linux
docker_h - -> Linux
none - -> Linux

@enduml

PlantUML version 1.2020.06(Sun Apr 05 12:38:32 UTC 2020)
(APACHE source distribution)
Java Runtime: OpenJDK Runtime Environment
JVM: OpenJDK 64-Bit Server VM
Java Version: 11.0.7+10-post-Debian-3deb10u1
Operating System: Linux
Default Encoding: ANSI_X3.4-1968
Language: en
Country: US
--></g></svg>