<?xml version="1.0" encoding="UTF-8" standalone="no"?><svg xmlns="http://www.w3.org/2000/svg" xmlns:xlink="http://www.w3.org/1999/xlink" contentScriptType="application/ecmascript" contentStyleType="text/css" height="99px" preserveAspectRatio="none" style="width:612px;height:99px;" version="1.1" viewBox="0 0 612 99" width="612px" zoomAndPan="magnify"><defs><filter height="300%" id="f1afu9ol25u614" width="300%" x="-1" y="-1"><feGaussianBlur result="blurOut" stdDeviation="2.0"/><feColorMatrix in="blurOut" result="blurOut2" type="matrix" values="0 0 0 0 0 0 0 0 0 0 0 0 0 0 0 0 0 0 .4 0"/><feOffset dx="4.0" dy="4.0" in="blurOut2" result="blurOut3"/><feBlend in="SourceGraphic" in2="blurOut3" mode="normal"/></filter></defs><g><!--MD5=[feb5939ce823acf5a8245c3205b3c7a1]
entity Users--><ellipse cx="26" cy="17.5" fill="#FEFECE" filter="url(#f1afu9ol25u614)" rx="8" ry="8" style="stroke: #A80036; stroke-width: 1.5;"/><path d="M26,25.5 L26,52.5 M13,33.5 L39,33.5 M26,52.5 L13,67.5 M26,52.5 L39,67.5 " fill="none" filter="url(#f1afu9ol25u614)" style="stroke: #A80036; stroke-width: 1.5;"/><text fill="#000000" font-family="sans-serif" font-size="14" lengthAdjust="spacingAndGlyphs" textLength="40" x="6" y="85.9951">Users</text><!--MD5=[b1e3d2dcb3697de9e6328d1cb436cbc4]
entity frontend--><polygon fill="#FEFECE" filter="url(#f1afu9ol25u614)" points="81.5,35.5,91.5,25.5,188.5,25.5,188.5,61.7969,178.5,71.7969,81.5,71.7969,81.5,35.5" style="stroke: #000000; stroke-width: 1.5;"/><line style="stroke: #000000; stroke-width: 1.5;" x1="178.5" x2="187.5" y1="35.5" y2="26.5"/><line style="stroke: #000000; stroke-width: 1.5;" x1="81.5" x2="178.5" y1="35.5" y2="35.5"/><line style="stroke: #000000; stroke-width: 1.5;" x1="178.5" x2="178.5" y1="35.5" y2="71.7969"/><text fill="#000000" font-family="sans-serif" font-size="14" lengthAdjust="spacingAndGlyphs" textLength="67" x="96.5" y="58.4951">Front End</text><!--MD5=[4e8ecd94af36cce41665c9f079adf9fd]
entity backend--><polygon fill="#FEFECE" filter="url(#f1afu9ol25u614)" points="373.5,35.5,383.5,25.5,478.5,25.5,478.5,61.7969,468.5,71.7969,373.5,71.7969,373.5,35.5" style="stroke: #000000; stroke-width: 1.5;"/><line style="stroke: #000000; stroke-width: 1.5;" x1="468.5" x2="477.5" y1="35.5" y2="26.5"/><line style="stroke: #000000; stroke-width: 1.5;" x1="373.5" x2="468.5" y1="35.5" y2="35.5"/><line style="stroke: #000000; stroke-width: 1.5;" x1="468.5" x2="468.5" y1="35.5" y2="71.7969"/><text fill="#000000" font-family="sans-serif" font-size="14" lengthAdjust="spacingAndGlyphs" textLength="65" x="388.5" y="58.4951">Back End</text><!--MD5=[8e2e54331d73736ba4de0fe105a6947e]
entity Messaging--><polygon fill="#FEFECE" filter="url(#f1afu9ol25u614)" points="223.5,35.5,233.5,25.5,338.5,25.5,338.5,61.7969,328.5,71.7969,223.5,71.7969,223.5,35.5" style="stroke: #000000; stroke-width: 1.5;"/><line style="stroke: #000000; stroke-width: 1.5;" x1="328.5" x2="337.5" y1="35.5" y2="26.5"/><line style="stroke: #000000; stroke-width: 1.5;" x1="223.5" x2="328.5" y1="35.5" y2="35.5"/><line style="stroke: #000000; stroke-width: 1.5;" x1="328.5" x2="328.5" y1="35.5" y2="71.7969"/><text fill="#000000" font-family="sans-serif" font-size="14" lengthAdjust="spacingAndGlyphs" textLength="75" x="238.5" y="58.4951">Messaging</text><!--MD5=[fa1e3283224feb76407c84b7e90ed808]
entity Database--><path d="M514,36 C514,26 557,26 557,26 C557,26 600,26 600,36 L600,61.2969 C600,71.2969 557,71.2969 557,71.2969 C557,71.2969 514,71.2969 514,61.2969 L514,36 " fill="#FEFECE" filter="url(#f1afu9ol25u614)" style="stroke: #000000; stroke-width: 1.5;"/><path d="M514,36 C514,46 557,46 557,46 C557,46 600,46 600,36 " fill="none" style="stroke: #000000; stroke-width: 1.5;"/><text fill="#000000" font-family="sans-serif" font-size="14" lengthAdjust="spacingAndGlyphs" textLength="66" x="524" y="62.9951">Database</text><!--MD5=[e772470830576ac1d2edd3d054bb52a1]
link Users to frontend--><path d="M51.2748,48.5 C59.6093,48.5 67.9439,48.5 76.2785,48.5 " fill="none" id="Users-frontend" style="stroke: #A80036; stroke-width: 1.0;"/><polygon fill="#A80036" points="81.468,48.5,72.468,44.5,76.468,48.5,72.468,52.5,81.468,48.5" style="stroke: #A80036; stroke-width: 1.0;"/><polygon fill="#A80036" points="46.0117,48.5,55.0117,52.5,51.0117,48.5,55.0117,44.5,46.0117,48.5" style="stroke: #A80036; stroke-width: 1.0;"/><!--MD5=[95bbacb8c3dbed73275bdc7c2fbb4927]
link frontend to Messaging--><path d="M193.7522,48.5 C201.8964,48.5 210.0407,48.5 218.1849,48.5 " fill="none" id="frontend-Messaging" style="stroke: #A80036; stroke-width: 1.0;"/><polygon fill="#A80036" points="223.2559,48.5,214.2559,44.5,218.2559,48.5,214.2559,52.5,223.2559,48.5" style="stroke: #A80036; stroke-width: 1.0;"/><polygon fill="#A80036" points="188.6094,48.5,197.6094,52.5,193.6094,48.5,197.6094,44.5,188.6094,48.5" style="stroke: #A80036; stroke-width: 1.0;"/><!--MD5=[37274e5a84b1ae7806beb1faf01da85b]
link Messaging to backend--><path d="M343.8817,48.5 C351.9712,48.5 360.0607,48.5 368.1502,48.5 " fill="none" id="Messaging-backend" style="stroke: #A80036; stroke-width: 1.0;"/><polygon fill="#A80036" points="373.187,48.5,364.187,44.5,368.187,48.5,364.187,52.5,373.187,48.5" style="stroke: #A80036; stroke-width: 1.0;"/><polygon fill="#A80036" points="338.7734,48.5,347.7734,52.5,343.7734,48.5,347.7734,44.5,338.7734,48.5" style="stroke: #A80036; stroke-width: 1.0;"/><!--MD5=[dff7704a7119f1c857bce85c3aee113d]
link backend to Database--><path d="M483.9277,48.5 C492.1951,48.5 500.4626,48.5 508.73,48.5 " fill="none" id="backend-Database" style="stroke: #A80036; stroke-width: 1.0;"/><polygon fill="#A80036" points="513.8777,48.5,504.8777,44.5,508.8777,48.5,504.8777,52.5,513.8777,48.5" style="stroke: #A80036; stroke-width: 1.0;"/><polygon fill="#A80036" points="478.707,48.5,487.707,52.5,483.707,48.5,487.707,44.5,478.707,48.5" style="stroke: #A80036; stroke-width: 1.0;"/><!--MD5=[801af89c5190254be8411634af53f1ab]
@startuml

actor Users

node frontend [
    Front End
]

node backend [
    Back End
]

node Messaging

database Database

Users <-> frontend
frontend <-> Messaging
Messaging <-> backend
backend <-> Database

@enduml

PlantUML version 1.2020.06(Sun Apr 05 12:38:32 UTC 2020)
(APACHE source distribution)
Java Runtime: OpenJDK Runtime Environment
JVM: OpenJDK 64-Bit Server VM
Java Version: 11.0.7+10-post-Debian-3deb10u1
Operating System: Linux
Default Encoding: ANSI_X3.4-1968
Language: en
Country: US
--></g></svg>