<?xml version="1.0" encoding="UTF-8" standalone="no"?><svg xmlns="http://www.w3.org/2000/svg" xmlns:xlink="http://www.w3.org/1999/xlink" contentScriptType="application/ecmascript" contentStyleType="text/css" height="571px" preserveAspectRatio="none" style="width:531px;height:571px;" version="1.1" viewBox="0 0 531 571" width="531px" zoomAndPan="magnify"><defs><filter height="300%" id="f1lw8cpqsu91sf" width="300%" x="-1" y="-1"><feGaussianBlur result="blurOut" stdDeviation="2.0"/><feColorMatrix in="blurOut" result="blurOut2" type="matrix" values="0 0 0 0 0 0 0 0 0 0 0 0 0 0 0 0 0 0 .4 0"/><feOffset dx="4.0" dy="4.0" in="blurOut2" result="blurOut3"/><feBlend in="SourceGraphic" in2="blurOut3" mode="normal"/></filter></defs><g><rect fill="#FEFECE" filter="url(#f1lw8cpqsu91sf)" height="33.9688" rx="12.5" ry="12.5" style="stroke: #A80036; stroke-width: 1.5;" width="49" x="165.25" y="38.6982"/><text fill="#000000" font-family="sans-serif" font-size="12" lengthAdjust="spacingAndGlyphs" textLength="29" x="175.25" y="59.8369">repo</text><polygon fill="#FEFECE" filter="url(#f1lw8cpqsu91sf)" points="159.25,407.2573,220.25,407.2573,232.25,419.2573,220.25,431.2573,159.25,431.2573,147.25,419.2573,159.25,407.2573" style="stroke: #A80036; stroke-width: 1.5;"/><text fill="#000000" font-family="sans-serif" font-size="11" lengthAdjust="spacingAndGlyphs" textLength="61" x="159.25" y="423.0654">Accept PR?</text><text fill="#000000" font-family="sans-serif" font-size="11" lengthAdjust="spacingAndGlyphs" textLength="20" x="127.25" y="416.6631">yes</text><text fill="#000000" font-family="sans-serif" font-size="11" lengthAdjust="spacingAndGlyphs" textLength="14" x="232.25" y="416.6631">no</text><rect fill="#FEFECE" filter="url(#f1lw8cpqsu91sf)" height="33.9688" rx="12.5" ry="12.5" style="stroke: #A80036; stroke-width: 1.5;" width="161" x="20" y="441.2573"/><text fill="#000000" font-family="sans-serif" font-size="12" lengthAdjust="spacingAndGlyphs" textLength="141" x="30" y="462.396">apply changes to repo</text><rect fill="#FEFECE" filter="url(#f1lw8cpqsu91sf)" height="33.9688" rx="12.5" ry="12.5" style="stroke: #A80036; stroke-width: 1.5;" width="65" x="68" y="495.2261"/><text fill="#000000" font-family="sans-serif" font-size="12" lengthAdjust="spacingAndGlyphs" textLength="45" x="78" y="516.3647">commit</text><rect fill="#FEFECE" filter="url(#f1lw8cpqsu91sf)" height="33.9688" rx="12.5" ry="12.5" style="stroke: #A80036; stroke-width: 1.5;" width="156" x="201" y="441.2573"/><text fill="#000000" font-family="sans-serif" font-size="12" lengthAdjust="spacingAndGlyphs" textLength="136" x="211" y="462.396">do not apply changes</text><polygon fill="#FEFECE" filter="url(#f1lw8cpqsu91sf)" points="189.75,535.1948,201.75,547.1948,189.75,559.1948,177.75,547.1948,189.75,535.1948" style="stroke: #A80036; stroke-width: 1.5;"/><line style="stroke: #000000; stroke-width: 2.0;" x1="15" x2="15" y1="12.7451" y2="559.1948"/><rect fill="#FEFECE" filter="url(#f1lw8cpqsu91sf)" height="33.9688" rx="12.5" ry="12.5" style="stroke: #A80036; stroke-width: 1.5;" width="98" x="370" y="109.9263"/><text fill="#000000" font-family="sans-serif" font-size="12" lengthAdjust="spacingAndGlyphs" textLength="78" x="380" y="131.0649">copy of repo</text><rect fill="#FEFECE" filter="url(#f1lw8cpqsu91sf)" height="33.9688" rx="12.5" ry="12.5" style="stroke: #A80036; stroke-width: 1.5;" width="97" x="370.5" y="185.2939"/><text fill="#000000" font-family="sans-serif" font-size="12" lengthAdjust="spacingAndGlyphs" textLength="77" x="380.5" y="206.4326">staged repo</text><rect fill="#FEFECE" filter="url(#f1lw8cpqsu91sf)" height="33.9688" rx="12.5" ry="12.5" style="stroke: #A80036; stroke-width: 1.5;" width="106" x="366" y="260.6616"/><text fill="#000000" font-family="sans-serif" font-size="12" lengthAdjust="spacingAndGlyphs" textLength="86" x="376" y="281.8003">updated repo</text><rect fill="#FEFECE" filter="url(#f1lw8cpqsu91sf)" height="33.9688" rx="12.5" ry="12.5" style="stroke: #A80036; stroke-width: 1.5;" width="95" x="371.5" y="336.0293"/><text fill="#000000" font-family="sans-serif" font-size="12" lengthAdjust="spacingAndGlyphs" textLength="75" x="381.5" y="357.168">pull request</text><line style="stroke: #000000; stroke-width: 2.0;" x1="361" x2="361" y1="12.7451" y2="559.1948"/><line style="stroke: #000000; stroke-width: 2.0;" x1="511" x2="511" y1="12.7451" y2="559.1948"/><line style="stroke: #A80036; stroke-width: 1.5;" x1="100.5" x2="100.5" y1="475.2261" y2="495.2261"/><polygon fill="#A80036" points="96.5,485.2261,100.5,495.2261,104.5,485.2261,100.5,489.2261" style="stroke: #A80036; stroke-width: 1.0;"/><line style="stroke: #A80036; stroke-width: 1.5;" x1="147.25" x2="100.5" y1="419.2573" y2="419.2573"/><line style="stroke: #A80036; stroke-width: 1.5;" x1="100.5" x2="100.5" y1="419.2573" y2="441.2573"/><polygon fill="#A80036" points="96.5,431.2573,100.5,441.2573,104.5,431.2573,100.5,435.2573" style="stroke: #A80036; stroke-width: 1.0;"/><line style="stroke: #A80036; stroke-width: 1.5;" x1="232.25" x2="279" y1="419.2573" y2="419.2573"/><line style="stroke: #A80036; stroke-width: 1.5;" x1="279" x2="279" y1="419.2573" y2="441.2573"/><polygon fill="#A80036" points="275,431.2573,279,441.2573,283,431.2573,279,435.2573" style="stroke: #A80036; stroke-width: 1.0;"/><line style="stroke: #A80036; stroke-width: 1.5;" x1="100.5" x2="100.5" y1="529.1948" y2="547.1948"/><line style="stroke: #A80036; stroke-width: 1.5;" x1="100.5" x2="177.75" y1="547.1948" y2="547.1948"/><polygon fill="#A80036" points="167.75,543.1948,177.75,547.1948,167.75,551.1948,171.75,547.1948" style="stroke: #A80036; stroke-width: 1.0;"/><line style="stroke: #A80036; stroke-width: 1.5;" x1="279" x2="279" y1="475.2261" y2="547.1948"/><line style="stroke: #A80036; stroke-width: 1.5;" x1="279" x2="201.75" y1="547.1948" y2="547.1948"/><polygon fill="#A80036" points="211.75,543.1948,201.75,547.1948,211.75,551.1948,207.75,547.1948" style="stroke: #A80036; stroke-width: 1.0;"/><line style="stroke: #A80036; stroke-width: 1.5;" x1="419" x2="419" y1="143.895" y2="185.2939"/><polygon fill="#A80036" points="415,175.2939,419,185.2939,423,175.2939,419,179.2939" style="stroke: #A80036; stroke-width: 1.0;"/><text fill="#000000" font-family="sans-serif" font-size="11" lengthAdjust="spacingAndGlyphs" textLength="83" x="423" y="165.1997">make changes</text><line style="stroke: #A80036; stroke-width: 1.5;" x1="419" x2="419" y1="219.2627" y2="260.6616"/><polygon fill="#A80036" points="415,250.6616,419,260.6616,423,250.6616,419,254.6616" style="stroke: #A80036; stroke-width: 1.0;"/><text fill="#000000" font-family="sans-serif" font-size="11" lengthAdjust="spacingAndGlyphs" textLength="42" x="423" y="240.5674">commit</text><line style="stroke: #A80036; stroke-width: 1.5;" x1="419" x2="419" y1="294.6304" y2="336.0293"/><polygon fill="#A80036" points="415,326.0293,419,336.0293,423,326.0293,419,330.0293" style="stroke: #A80036; stroke-width: 1.0;"/><text fill="#000000" font-family="sans-serif" font-size="11" lengthAdjust="spacingAndGlyphs" textLength="58" x="423" y="315.9351">create diff</text><line style="stroke: #A80036; stroke-width: 1.5;" x1="189.75" x2="189.75" y1="72.667" y2="94.9263"/><line style="stroke: #A80036; stroke-width: 1.5;" x1="189.75" x2="419" y1="94.9263" y2="94.9263"/><line style="stroke: #A80036; stroke-width: 1.5;" x1="419" x2="419" y1="94.9263" y2="109.9263"/><polygon fill="#A80036" points="415,99.9263,419,109.9263,423,99.9263,419,103.9263" style="stroke: #A80036; stroke-width: 1.0;"/><text fill="#000000" font-family="sans-serif" font-size="11" lengthAdjust="spacingAndGlyphs" textLength="22" x="193.75" y="88.4263">fork</text><line style="stroke: #A80036; stroke-width: 1.5;" x1="419" x2="419" y1="369.998" y2="392.2573"/><line style="stroke: #A80036; stroke-width: 1.5;" x1="419" x2="189.75" y1="392.2573" y2="392.2573"/><line style="stroke: #A80036; stroke-width: 1.5;" x1="189.75" x2="189.75" y1="392.2573" y2="407.2573"/><polygon fill="#A80036" points="185.75,397.2573,189.75,407.2573,193.75,397.2573,189.75,401.2573" style="stroke: #A80036; stroke-width: 1.0;"/><text fill="#000000" font-family="sans-serif" font-size="11" lengthAdjust="spacingAndGlyphs" textLength="57" x="423" y="385.7573">submit PR</text><text fill="#000000" font-family="sans-serif" font-size="18" lengthAdjust="spacingAndGlyphs" textLength="62" x="157" y="29.4531">Project</text><text fill="#000000" font-family="sans-serif" font-size="18" lengthAdjust="spacingAndGlyphs" textLength="103" x="384.5" y="29.4531">Contributer</text><!--MD5=[a7d6a90594fa047de28f772bb6b2b0ab]
@startuml

|Project|
:repo;
|Contributer|
-> fork;
:copy of repo;
-> make changes;
:staged repo;
-> commit;
:updated repo;
-> create diff;
:pull request;
|Project|
-> submit PR;
if (Accept PR?) then (yes)
  :apply changes to repo;
  :commit;
else (no)
  :do not apply changes;
endif

@enduml

PlantUML version 1.2020.06(Sun Apr 05 12:38:32 UTC 2020)
(APACHE source distribution)
Java Runtime: OpenJDK Runtime Environment
JVM: OpenJDK 64-Bit Server VM
Java Version: 11.0.7+10-post-Debian-3deb10u1
Operating System: Linux
Default Encoding: ANSI_X3.4-1968
Language: en
Country: US
--></g></svg>