<?xml version="1.0" encoding="UTF-8" standalone="no"?><svg xmlns="http://www.w3.org/2000/svg" xmlns:xlink="http://www.w3.org/1999/xlink" contentScriptType="application/ecmascript" contentStyleType="text/css" height="584px" preserveAspectRatio="none" style="width:470px;height:584px;" version="1.1" viewBox="0 0 470 584" width="470px" zoomAndPan="magnify"><defs><filter height="300%" id="f1lw8cpqsu91sf" width="300%" x="-1" y="-1"><feGaussianBlur result="blurOut" stdDeviation="2.0"/><feColorMatrix in="blurOut" result="blurOut2" type="matrix" values="0 0 0 0 0 0 0 0 0 0 0 0 0 0 0 0 0 0 .4 0"/><feOffset dx="4.0" dy="4.0" in="blurOut2" result="blurOut3"/><feBlend in="SourceGraphic" in2="blurOut3" mode="normal"/></filter></defs><g><rect fill="#FEFECE" filter="url(#f1lw8cpqsu91sf)" height="35.0938" rx="12.5" ry="12.5" style="stroke: #A80036; stroke-width: 1.5;" width="45" x="147.5" y="40.0957"/><text fill="#000000" font-family="sans-serif" font-size="12" lengthAdjust="spacingAndGlyphs" textLength="25" x="157.5" y="62.5527">repo</text><polygon fill="#FEFECE" filter="url(#f1lw8cpqsu91sf)" points="141.5,418.7432,198.5,418.7432,210.5,430.7432,198.5,442.7432,141.5,442.7432,129.5,430.7432,141.5,418.7432" style="stroke: #A80036; stroke-width: 1.5;"/><text fill="#000000" font-family="sans-serif" font-size="11" lengthAdjust="spacingAndGlyphs" textLength="57" x="141.5" y="435.2441">Accept PR?</text><text fill="#000000" font-family="sans-serif" font-size="11" lengthAdjust="spacingAndGlyphs" textLength="18" x="111.5" y="428.3262">yes</text><text fill="#000000" font-family="sans-serif" font-size="11" lengthAdjust="spacingAndGlyphs" textLength="12" x="210.5" y="428.3262">no</text><rect fill="#FEFECE" filter="url(#f1lw8cpqsu91sf)" height="35.0938" rx="12.5" ry="12.5" style="stroke: #A80036; stroke-width: 1.5;" width="141" x="20" y="452.7432"/><text fill="#000000" font-family="sans-serif" font-size="12" lengthAdjust="spacingAndGlyphs" textLength="121" x="30" y="475.2002">apply changes to repo</text><rect fill="#FEFECE" filter="url(#f1lw8cpqsu91sf)" height="35.0938" rx="12.5" ry="12.5" style="stroke: #A80036; stroke-width: 1.5;" width="61" x="60" y="507.8369"/><text fill="#000000" font-family="sans-serif" font-size="12" lengthAdjust="spacingAndGlyphs" textLength="41" x="70" y="530.2939">commit</text><rect fill="#FEFECE" filter="url(#f1lw8cpqsu91sf)" height="35.0938" rx="12.5" ry="12.5" style="stroke: #A80036; stroke-width: 1.5;" width="137" x="181" y="452.7432"/><text fill="#000000" font-family="sans-serif" font-size="12" lengthAdjust="spacingAndGlyphs" textLength="117" x="191" y="475.2002">do not apply changes</text><polygon fill="#FEFECE" filter="url(#f1lw8cpqsu91sf)" points="170,548.9307,182,560.9307,170,572.9307,158,560.9307,170,548.9307" style="stroke: #A80036; stroke-width: 1.5;"/><rect fill="#FEFECE" filter="url(#f1lw8cpqsu91sf)" height="35.0938" rx="12.5" ry="12.5" style="stroke: #A80036; stroke-width: 1.5;" width="86" x="331.5" y="113.3994"/><text fill="#000000" font-family="sans-serif" font-size="12" lengthAdjust="spacingAndGlyphs" textLength="66" x="341.5" y="135.8564">copy of repo</text><rect fill="#FEFECE" filter="url(#f1lw8cpqsu91sf)" height="35.0938" rx="12.5" ry="12.5" style="stroke: #A80036; stroke-width: 1.5;" width="86" x="331.5" y="190.7461"/><text fill="#000000" font-family="sans-serif" font-size="12" lengthAdjust="spacingAndGlyphs" textLength="66" x="341.5" y="213.2031">staged repo</text><rect fill="#FEFECE" filter="url(#f1lw8cpqsu91sf)" height="35.0938" rx="12.5" ry="12.5" style="stroke: #A80036; stroke-width: 1.5;" width="93" x="328" y="268.0928"/><text fill="#000000" font-family="sans-serif" font-size="12" lengthAdjust="spacingAndGlyphs" textLength="73" x="338" y="290.5498">updated repo</text><rect fill="#FEFECE" filter="url(#f1lw8cpqsu91sf)" height="35.0938" rx="12.5" ry="12.5" style="stroke: #A80036; stroke-width: 1.5;" width="85" x="332" y="345.4395"/><text fill="#000000" font-family="sans-serif" font-size="12" lengthAdjust="spacingAndGlyphs" textLength="65" x="342" y="367.8965">pull request</text><line style="stroke: #A80036; stroke-width: 1.5;" x1="90.5" x2="90.5" y1="487.8369" y2="507.8369"/><polygon fill="#A80036" points="86.5,497.8369,90.5,507.8369,94.5,497.8369,90.5,501.8369" style="stroke: #A80036; stroke-width: 1.0;"/><line style="stroke: #A80036; stroke-width: 1.5;" x1="129.5" x2="90.5" y1="430.7432" y2="430.7432"/><line style="stroke: #A80036; stroke-width: 1.5;" x1="90.5" x2="90.5" y1="430.7432" y2="452.7432"/><polygon fill="#A80036" points="86.5,442.7432,90.5,452.7432,94.5,442.7432,90.5,446.7432" style="stroke: #A80036; stroke-width: 1.0;"/><line style="stroke: #A80036; stroke-width: 1.5;" x1="210.5" x2="249.5" y1="430.7432" y2="430.7432"/><line style="stroke: #A80036; stroke-width: 1.5;" x1="249.5" x2="249.5" y1="430.7432" y2="452.7432"/><polygon fill="#A80036" points="245.5,442.7432,249.5,452.7432,253.5,442.7432,249.5,446.7432" style="stroke: #A80036; stroke-width: 1.0;"/><line style="stroke: #A80036; stroke-width: 1.5;" x1="90.5" x2="90.5" y1="542.9307" y2="560.9307"/><line style="stroke: #A80036; stroke-width: 1.5;" x1="90.5" x2="158" y1="560.9307" y2="560.9307"/><polygon fill="#A80036" points="148,556.9307,158,560.9307,148,564.9307,152,560.9307" style="stroke: #A80036; stroke-width: 1.0;"/><line style="stroke: #A80036; stroke-width: 1.5;" x1="249.5" x2="249.5" y1="487.8369" y2="560.9307"/><line style="stroke: #A80036; stroke-width: 1.5;" x1="249.5" x2="182" y1="560.9307" y2="560.9307"/><polygon fill="#A80036" points="192,556.9307,182,560.9307,192,564.9307,188,560.9307" style="stroke: #A80036; stroke-width: 1.0;"/><line style="stroke: #A80036; stroke-width: 1.5;" x1="374.5" x2="374.5" y1="148.4932" y2="190.7461"/><polygon fill="#A80036" points="370.5,180.7461,374.5,190.7461,378.5,180.7461,374.5,184.7461" style="stroke: #A80036; stroke-width: 1.0;"/><text fill="#000000" font-family="sans-serif" font-size="11" lengthAdjust="spacingAndGlyphs" textLength="70" x="378.5" y="170.8291">make changes</text><line style="stroke: #A80036; stroke-width: 1.5;" x1="374.5" x2="374.5" y1="225.8398" y2="268.0928"/><polygon fill="#A80036" points="370.5,258.0928,374.5,268.0928,378.5,258.0928,374.5,262.0928" style="stroke: #A80036; stroke-width: 1.0;"/><text fill="#000000" font-family="sans-serif" font-size="11" lengthAdjust="spacingAndGlyphs" textLength="33" x="378.5" y="248.1758">commit</text><line style="stroke: #A80036; stroke-width: 1.5;" x1="374.5" x2="374.5" y1="303.1865" y2="345.4395"/><polygon fill="#A80036" points="370.5,335.4395,374.5,345.4395,378.5,335.4395,374.5,339.4395" style="stroke: #A80036; stroke-width: 1.0;"/><text fill="#000000" font-family="sans-serif" font-size="11" lengthAdjust="spacingAndGlyphs" textLength="50" x="378.5" y="325.5225">create diff</text><line style="stroke: #A80036; stroke-width: 1.5;" x1="170" x2="170" y1="75.1895" y2="98.3994"/><line style="stroke: #A80036; stroke-width: 1.5;" x1="170" x2="374.5" y1="98.3994" y2="98.3994"/><line style="stroke: #A80036; stroke-width: 1.5;" x1="374.5" x2="374.5" y1="98.3994" y2="113.3994"/><polygon fill="#A80036" points="370.5,103.3994,374.5,113.3994,378.5,103.3994,374.5,107.3994" style="stroke: #A80036; stroke-width: 1.0;"/><text fill="#000000" font-family="sans-serif" font-size="11" lengthAdjust="spacingAndGlyphs" textLength="19" x="174" y="91.8994">fork</text><line style="stroke: #A80036; stroke-width: 1.5;" x1="374.5" x2="374.5" y1="380.5332" y2="403.7432"/><line style="stroke: #A80036; stroke-width: 1.5;" x1="374.5" x2="170" y1="403.7432" y2="403.7432"/><line style="stroke: #A80036; stroke-width: 1.5;" x1="170" x2="170" y1="403.7432" y2="418.7432"/><polygon fill="#A80036" points="166,408.7432,170,418.7432,174,408.7432,170,412.7432" style="stroke: #A80036; stroke-width: 1.0;"/><text fill="#000000" font-family="sans-serif" font-size="11" lengthAdjust="spacingAndGlyphs" textLength="47" x="378.5" y="397.2432">submit PR</text><text fill="#000000" font-family="sans-serif" font-size="18" lengthAdjust="spacingAndGlyphs" textLength="56" x="140.5" y="31.1406">Project</text><text fill="#000000" font-family="sans-serif" font-size="18" lengthAdjust="spacingAndGlyphs" textLength="89" x="343.75" y="31.1406">Contributer</text><line style="stroke: #000000; stroke-width: 2.0;" x1="10" x2="10" y1="12.4551" y2="572.9307"/><line style="stroke: #000000; stroke-width: 2.0;" x1="323" x2="323" y1="12.4551" y2="572.9307"/><line style="stroke: #000000; stroke-width: 2.0;" x1="458.5" x2="458.5" y1="12.4551" y2="572.9307"/><!--MD5=[0f4c6499221ea83a0a6f74658ae30e2c]
@startuml

|Project|
:repo;
|Contributer|
-> fork;
:copy of repo;
-> make changes;
:staged repo;
-> commit;
:updated repo;
-> create diff;
:pull request;
|Project|
-> submit PR;
if (Accept PR?) then (yes)
  :apply changes to repo;
  :commit;
else (no)
  :do not apply changes;
endif

@enduml

PlantUML version 1.2019.12(Sun Nov 03 05:24:54 EST 2019)
(APACHE source distribution)
Java Runtime: OpenJDK Runtime Environment
JVM: OpenJDK 64-Bit Server VM
Java Version: 13.0.1+9
Operating System: Windows 10
Default Encoding: Cp1252
Language: en
Country: US
--></g></svg>