<?xml version="1.0" encoding="UTF-8" standalone="no"?><svg xmlns="http://www.w3.org/2000/svg" xmlns:xlink="http://www.w3.org/1999/xlink" contentScriptType="application/ecmascript" contentStyleType="text/css" height="140px" preserveAspectRatio="none" style="width:199px;height:140px;" version="1.1" viewBox="0 0 199 140" width="199px" zoomAndPan="magnify"><defs><filter height="300%" id="fvwimiml5wdr4" width="300%" x="-1" y="-1"><feGaussianBlur result="blurOut" stdDeviation="2.0"/><feColorMatrix in="blurOut" result="blurOut2" type="matrix" values="0 0 0 0 0 0 0 0 0 0 0 0 0 0 0 0 0 0 .4 0"/><feOffset dx="4.0" dy="4.0" in="blurOut2" result="blurOut3"/><feBlend in="SourceGraphic" in2="blurOut3" mode="normal"/></filter></defs><g><!--MD5=[815249f79c2c08157ac02b3106e03757]
cluster Database--><polygon fill="#FFFFFF" filter="url(#fvwimiml5wdr4)" points="22,34,32,24,177,24,177,118,167,128,22,128,22,34" style="stroke: #000000; stroke-width: 1.5;"/><line style="stroke: #000000; stroke-width: 1.5;" x1="167" x2="176" y1="34" y2="25"/><line style="stroke: #000000; stroke-width: 1.5;" x1="22" x2="167" y1="34" y2="34"/><line style="stroke: #000000; stroke-width: 1.5;" x1="167" x2="167" y1="34" y2="128"/><text fill="#000000" font-family="sans-serif" font-size="14" font-weight="bold" lengthAdjust="spacingAndGlyphs" textLength="65" x="63" y="51.5332">Database</text><!--MD5=[2331507006b4b8bee4c616015350b23c]
entity db2--><path d="M117,75 C117,65 139,65 139,65 C139,65 161,65 161,75 L161,101.6094 C161,111.6094 139,111.6094 139,111.6094 C139,111.6094 117,111.6094 117,101.6094 L117,75 " fill="#FEFECE" filter="url(#fvwimiml5wdr4)" style="stroke: #000000; stroke-width: 1.5;"/><path d="M117,75 C117,85 139,85 139,85 C139,85 161,85 161,75 " fill="none" style="stroke: #000000; stroke-width: 1.5;"/><text fill="#000000" font-family="sans-serif" font-size="14" lengthAdjust="spacingAndGlyphs" textLength="24" x="127" y="103.5332">db2</text><!--MD5=[7aa9c583cf047545838c264d3047b712]
entity db1--><path d="M38,75 C38,65 60,65 60,65 C60,65 82,65 82,75 L82,101.6094 C82,111.6094 60,111.6094 60,111.6094 C60,111.6094 38,111.6094 38,101.6094 L38,75 " fill="#FEFECE" filter="url(#fvwimiml5wdr4)" style="stroke: #000000; stroke-width: 1.5;"/><path d="M38,75 C38,85 60,85 60,85 C60,85 82,85 82,75 " fill="none" style="stroke: #000000; stroke-width: 1.5;"/><text fill="#000000" font-family="sans-serif" font-size="14" lengthAdjust="spacingAndGlyphs" textLength="24" x="48" y="103.5332">db1</text><!--MD5=[14a8004d5964dd8fbfdf10dbbd8fd4c1]
@startuml

node Database {
    database db2
    database db1
}

@enduml

PlantUML version 1.2019.12(Sun Nov 03 05:24:54 EST 2019)
(APACHE source distribution)
Java Runtime: OpenJDK Runtime Environment
JVM: OpenJDK 64-Bit Server VM
Java Version: 13.0.1+9
Operating System: Windows 10
Default Encoding: Cp1252
Language: en
Country: US
--></g></svg>