<?xml version="1.0" encoding="UTF-8" standalone="no"?><svg xmlns="http://www.w3.org/2000/svg" xmlns:xlink="http://www.w3.org/1999/xlink" contentScriptType="application/ecmascript" contentStyleType="text/css" height="113px" preserveAspectRatio="none" style="width:185px;height:113px;" version="1.1" viewBox="0 0 185 113" width="185px" zoomAndPan="magnify"><defs><filter height="300%" id="fvwimiml5wdr4" width="300%" x="-1" y="-1"><feGaussianBlur result="blurOut" stdDeviation="2.0"/><feColorMatrix in="blurOut" result="blurOut2" type="matrix" values="0 0 0 0 0 0 0 0 0 0 0 0 0 0 0 0 0 0 .4 0"/><feOffset dx="4.0" dy="4.0" in="blurOut2" result="blurOut3"/><feBlend in="SourceGraphic" in2="blurOut3" mode="normal"/></filter></defs><g><!--MD5=[815249f79c2c08157ac02b3106e03757]
cluster Database--><polygon fill="#FFFFFF" filter="url(#fvwimiml5wdr4)" points="14,26,24,16,163,16,163,91,153,101,14,101,14,26" style="stroke: #000000; stroke-width: 1.5;"/><line style="stroke: #000000; stroke-width: 1.5;" x1="153" x2="162" y1="26" y2="17"/><line style="stroke: #000000; stroke-width: 1.5;" x1="14" x2="153" y1="26" y2="26"/><line style="stroke: #000000; stroke-width: 1.5;" x1="153" x2="153" y1="26" y2="101"/><text fill="#000000" font-family="sans-serif" font-size="14" font-weight="bold" lengthAdjust="spacingAndGlyphs" textLength="73" x="48" y="41.9951">Database</text><!--MD5=[2331507006b4b8bee4c616015350b23c]
entity db2--><path d="M106.5,58 C106.5,48 130,48 130,48 C130,48 153.5,48 153.5,58 L153.5,83.2969 C153.5,93.2969 130,93.2969 130,93.2969 C130,93.2969 106.5,93.2969 106.5,83.2969 L106.5,58 " fill="#FEFECE" filter="url(#fvwimiml5wdr4)" style="stroke: #000000; stroke-width: 1.5;"/><path d="M106.5,58 C106.5,68 130,68 130,68 C130,68 153.5,68 153.5,58 " fill="none" style="stroke: #000000; stroke-width: 1.5;"/><text fill="#000000" font-family="sans-serif" font-size="14" lengthAdjust="spacingAndGlyphs" textLength="27" x="116.5" y="84.9951">db2</text><!--MD5=[7aa9c583cf047545838c264d3047b712]
entity db1--><path d="M23.5,58 C23.5,48 47,48 47,48 C47,48 70.5,48 70.5,58 L70.5,83.2969 C70.5,93.2969 47,93.2969 47,93.2969 C47,93.2969 23.5,93.2969 23.5,83.2969 L23.5,58 " fill="#FEFECE" filter="url(#fvwimiml5wdr4)" style="stroke: #000000; stroke-width: 1.5;"/><path d="M23.5,58 C23.5,68 47,68 47,68 C47,68 70.5,68 70.5,58 " fill="none" style="stroke: #000000; stroke-width: 1.5;"/><text fill="#000000" font-family="sans-serif" font-size="14" lengthAdjust="spacingAndGlyphs" textLength="27" x="33.5" y="84.9951">db1</text><!--MD5=[bdf4345f26e4abaadb2e99838b8db330]
@startuml

node Database {
    database db2
    database db1
}

@enduml

PlantUML version 1.2020.06(Sun Apr 05 12:38:32 UTC 2020)
(APACHE source distribution)
Java Runtime: OpenJDK Runtime Environment
JVM: OpenJDK 64-Bit Server VM
Java Version: 11.0.7+10-post-Debian-3deb10u1
Operating System: Linux
Default Encoding: ANSI_X3.4-1968
Language: en
Country: US
--></g></svg>