<?xml version="1.0" encoding="UTF-8" standalone="no"?><svg xmlns="http://www.w3.org/2000/svg" xmlns:xlink="http://www.w3.org/1999/xlink" contentScriptType="application/ecmascript" contentStyleType="text/css" height="530px" preserveAspectRatio="none" style="width:486px;height:530px;" version="1.1" viewBox="0 0 486 530" width="486px" zoomAndPan="magnify"><defs><filter height="300%" id="fodo34qptg8da" width="300%" x="-1" y="-1"><feGaussianBlur result="blurOut" stdDeviation="2.0"/><feColorMatrix in="blurOut" result="blurOut2" type="matrix" values="0 0 0 0 0 0 0 0 0 0 0 0 0 0 0 0 0 0 .4 0"/><feOffset dx="4.0" dy="4.0" in="blurOut2" result="blurOut3"/><feBlend in="SourceGraphic" in2="blurOut3" mode="normal"/></filter></defs><g><rect fill="#FEFECE" filter="url(#fodo34qptg8da)" height="35.0938" rx="12.5" ry="12.5" style="stroke: #A80036; stroke-width: 1.5;" width="45" x="125.5" y="8"/><text fill="#000000" font-family="sans-serif" font-size="12" lengthAdjust="spacingAndGlyphs" textLength="25" x="135.5" y="30.457">Start</text><polygon fill="#FEFECE" filter="url(#fodo34qptg8da)" points="148,84,160,96,148,108,136,96,148,84" style="stroke: #A80036; stroke-width: 1.5;"/><rect fill="#FEFECE" filter="url(#fodo34qptg8da)" height="35.0938" rx="12.5" ry="12.5" style="stroke: #A80036; stroke-width: 1.5;" width="134" x="45" y="163"/><text fill="#000000" font-family="sans-serif" font-size="12" lengthAdjust="spacingAndGlyphs" textLength="114" x="55" y="185.457">Become a STANDBY</text><polygon fill="#FEFECE" filter="url(#fodo34qptg8da)" points="211,168.5,223,180.5,211,192.5,199,180.5,211,168.5" style="stroke: #A80036; stroke-width: 1.5;"/><rect fill="#FEFECE" filter="url(#fodo34qptg8da)" height="35.0938" rx="12.5" ry="12.5" style="stroke: #A80036; stroke-width: 1.5;" width="131" x="98.5" y="253"/><text fill="#000000" font-family="sans-serif" font-size="12" lengthAdjust="spacingAndGlyphs" textLength="111" x="108.5" y="275.457">Become a PRIMARY</text><rect fill="#FEFECE" filter="url(#fodo34qptg8da)" height="35.0938" rx="12.5" ry="12.5" style="stroke: #A80036; stroke-width: 1.5;" width="112" x="250" y="253"/><text fill="#000000" font-family="sans-serif" font-size="12" lengthAdjust="spacingAndGlyphs" textLength="92" x="260" y="275.457">Wait 10 seconds</text><rect fill="#FEFECE" filter="url(#fodo34qptg8da)" height="35.0938" rx="12.5" ry="12.5" style="stroke: #A80036; stroke-width: 1.5;" width="206" x="203" y="329"/><text fill="#000000" font-family="sans-serif" font-size="12" lengthAdjust="spacingAndGlyphs" textLength="186" x="213" y="351.457">Search again for a PRIMARY node</text><polygon fill="#FEFECE" filter="url(#fodo34qptg8da)" points="306,405,318,417,306,429,294,417,306,405" style="stroke: #A80036; stroke-width: 1.5;"/><rect fill="#FEFECE" filter="url(#fodo34qptg8da)" height="35.0938" rx="12.5" ry="12.5" style="stroke: #A80036; stroke-width: 1.5;" width="161" x="135.5" y="484"/><text fill="#000000" font-family="sans-serif" font-size="12" lengthAdjust="spacingAndGlyphs" textLength="141" x="145.5" y="506.457">Now become a STANDBY</text><rect fill="#FEFECE" filter="url(#fodo34qptg8da)" height="35.0938" rx="12.5" ry="12.5" style="stroke: #A80036; stroke-width: 1.5;" width="158" x="317" y="484"/><text fill="#000000" font-family="sans-serif" font-size="12" lengthAdjust="spacingAndGlyphs" textLength="138" x="327" y="506.457">Now become a PRIMARY</text><!--MD5=[71571000fa0dcc507d5da20a9b52aed1]
link Start to #17--><path d="M148,43.082 C148,53.872 148,67.883 148,78.63 " fill="none" id="Start-&gt;#17" style="stroke: #A80036; stroke-width: 1.0;"/><polygon fill="#A80036" points="148,83.918,152,74.918,148,78.918,144,74.918,148,83.918" style="stroke: #A80036; stroke-width: 1.0;"/><text fill="#000000" font-family="sans-serif" font-size="11" lengthAdjust="spacingAndGlyphs" textLength="127" x="0.7594" y="76.5472">Is there a PRIMARY node?</text><!--MD5=[ed32eead9be7bf9cde5853fc7635349d]
link #17 to Become a STANDBY--><path d="M144.548,104.91 C139.24,117.076 128.889,140.796 121.28,158.234 " fill="none" id="#17-&gt;Become a STANDBY" style="stroke: #A80036; stroke-width: 1.0;"/><polygon fill="#A80036" points="119.2128,162.971,126.4784,156.3219,121.2125,158.3883,119.1461,153.1224,119.2128,162.971" style="stroke: #A80036; stroke-width: 1.0;"/><text fill="#000000" font-family="sans-serif" font-size="11" lengthAdjust="spacingAndGlyphs" textLength="18" x="136" y="140.4189">yes</text><!--MD5=[2dd643066d5c0c08a55425614daf5b60]
link #17 to #22--><path d="M152.944,103.474 C163.747,117.621 189.553,151.414 202.819,168.786 " fill="none" id="#17-&gt;#22" style="stroke: #A80036; stroke-width: 1.0;"/><polygon fill="#A80036" points="205.904,172.827,203.6196,163.2467,202.8689,168.8535,197.2621,168.1028,205.904,172.827" style="stroke: #A80036; stroke-width: 1.0;"/><text fill="#000000" font-family="sans-serif" font-size="11" lengthAdjust="spacingAndGlyphs" textLength="12" x="183" y="140.4189">no</text><text fill="#000000" font-family="sans-serif" font-size="11" lengthAdjust="spacingAndGlyphs" textLength="137" x="230.8693" y="165.8299">Are we first in the node list?</text><!--MD5=[af98b53812fe47b22d83f2fc4a111349]
link #22 to Become a PRIMARY--><path d="M207.154,188.701 C200.282,201.568 185.651,228.962 175.337,248.274 " fill="none" id="#22-&gt;Become a PRIMARY" style="stroke: #A80036; stroke-width: 1.0;"/><polygon fill="#A80036" points="172.814,252.996,180.5819,246.9412,175.1692,248.5855,173.525,243.1728,172.814,252.996" style="stroke: #A80036; stroke-width: 1.0;"/><text fill="#000000" font-family="sans-serif" font-size="11" lengthAdjust="spacingAndGlyphs" textLength="18" x="192" y="230.4189">yes</text><!--MD5=[2c8cdb095b72717cc6c167f5ef029d6d]
link #22 to Wait 10 seconds--><path d="M216.943,187.005 C230.152,199.241 262.507,229.212 284.359,249.454 " fill="none" id="#22-&gt;Wait 10 seconds" style="stroke: #A80036; stroke-width: 1.0;"/><polygon fill="#A80036" points="288.041,252.864,284.1571,243.8133,284.3731,249.466,278.7203,249.682,288.041,252.864" style="stroke: #A80036; stroke-width: 1.0;"/><text fill="#000000" font-family="sans-serif" font-size="11" lengthAdjust="spacingAndGlyphs" textLength="12" x="265" y="230.4189">no</text><!--MD5=[50ce3bee0963402c0992b814da33073d]
link Wait 10 seconds to Search again for a PRIMARY node--><path d="M306,288.292 C306,298.794 306,312.429 306,323.754 " fill="none" id="Wait 10 seconds-&gt;Search again for a PRIMARY node" style="stroke: #A80036; stroke-width: 1.0;"/><polygon fill="#A80036" points="306,328.775,310,319.775,306,323.775,302,319.775,306,328.775" style="stroke: #A80036; stroke-width: 1.0;"/><!--MD5=[0f1d1a1050949bf3c851465339f1ba26]
link Search again for a PRIMARY node to #31--><path d="M306,364.082 C306,374.872 306,388.883 306,399.63 " fill="none" id="Search again for a PRIMARY node-&gt;#31" style="stroke: #A80036; stroke-width: 1.0;"/><polygon fill="#A80036" points="306,404.918,310,395.918,306,399.918,302,395.918,306,404.918" style="stroke: #A80036; stroke-width: 1.0;"/><text fill="#000000" font-family="sans-serif" font-size="11" lengthAdjust="spacingAndGlyphs" textLength="152" x="133.575" y="398.4554">Is there a PRIMARY node now?</text><!--MD5=[a01657d0075064e0cbb1d13fd49e6480]
link #31 to Now become a STANDBY--><path d="M300.095,423.4131 C287.725,434.7521 258.542,461.5028 238.042,480.2947 " fill="none" id="#31-&gt;Now become a STANDBY" style="stroke: #A80036; stroke-width: 1.0;"/><polygon fill="#A80036" points="234.321,483.7055,243.6583,480.5726,238.0068,480.3269,238.2525,474.6754,234.321,483.7055" style="stroke: #A80036; stroke-width: 1.0;"/><text fill="#000000" font-family="sans-serif" font-size="11" lengthAdjust="spacingAndGlyphs" textLength="18" x="272" y="461.4189">yes</text><!--MD5=[54d422ba95167a2778f13f8b083cbadb]
link #31 to Now become a PRIMARY--><path d="M311.905,423.4131 C324.275,434.7521 353.458,461.5028 373.958,480.2947 " fill="none" id="#31-&gt;Now become a PRIMARY" style="stroke: #A80036; stroke-width: 1.0;"/><polygon fill="#A80036" points="377.679,483.7055,373.7475,474.6754,373.9932,480.3269,368.3417,480.5726,377.679,483.7055" style="stroke: #A80036; stroke-width: 1.0;"/><text fill="#000000" font-family="sans-serif" font-size="11" lengthAdjust="spacingAndGlyphs" textLength="12" x="354" y="461.4189">no</text><!--MD5=[d5427ed0f888ddb1b36f66e244a3475f]
@startuml

"Start" - -> if "Is there a PRIMARY node?" then
    - ->[yes] "Become a STANDBY"
else
    - ->[no] if "Are we first in the node list?" then
        - ->[yes] "Become a PRIMARY"
    else
        - ->[no] "Wait 10 seconds"
        - -> "Search again for a PRIMARY node"
        if "Is there a PRIMARY node now?" then
            - ->[yes] "Now become a STANDBY"
        else
            - ->[no] "Now become a PRIMARY"
        endif
    endif
endif

@enduml

PlantUML version 1.2019.12(Sun Nov 03 05:24:54 EST 2019)
(APACHE source distribution)
Java Runtime: OpenJDK Runtime Environment
JVM: OpenJDK 64-Bit Server VM
Java Version: 13.0.1+9
Operating System: Windows 10
Default Encoding: Cp1252
Language: en
Country: US
--></g></svg>