<?xml version="1.0" encoding="UTF-8" standalone="no"?><svg xmlns="http://www.w3.org/2000/svg" xmlns:xlink="http://www.w3.org/1999/xlink" contentScriptType="application/ecmascript" contentStyleType="text/css" height="521px" preserveAspectRatio="none" style="width:522px;height:521px;" version="1.1" viewBox="0 0 522 521" width="522px" zoomAndPan="magnify"><defs><filter height="300%" id="fodo34qptg8da" width="300%" x="-1" y="-1"><feGaussianBlur result="blurOut" stdDeviation="2.0"/><feColorMatrix in="blurOut" result="blurOut2" type="matrix" values="0 0 0 0 0 0 0 0 0 0 0 0 0 0 0 0 0 0 .4 0"/><feOffset dx="4.0" dy="4.0" in="blurOut2" result="blurOut3"/><feBlend in="SourceGraphic" in2="blurOut3" mode="normal"/></filter></defs><g><rect fill="#FEFECE" filter="url(#fodo34qptg8da)" height="33.9688" rx="12.5" ry="12.5" style="stroke: #A80036; stroke-width: 1.5;" width="51" x="139.5" y="8"/><text fill="#000000" font-family="sans-serif" font-size="12" lengthAdjust="spacingAndGlyphs" textLength="31" x="149.5" y="29.1387">Start</text><polygon fill="#FEFECE" filter="url(#fodo34qptg8da)" points="165,83,177,95,165,107,153,95,165,83" style="stroke: #A80036; stroke-width: 1.5;"/><rect fill="#FEFECE" filter="url(#fodo34qptg8da)" height="33.9688" rx="12.5" ry="12.5" style="stroke: #A80036; stroke-width: 1.5;" width="142" x="57" y="161"/><text fill="#000000" font-family="sans-serif" font-size="12" lengthAdjust="spacingAndGlyphs" textLength="122" x="67" y="182.1387">Become a STANDBY</text><polygon fill="#FEFECE" filter="url(#fodo34qptg8da)" points="231,166,243,178,231,190,219,178,231,166" style="stroke: #A80036; stroke-width: 1.5;"/><rect fill="#FEFECE" filter="url(#fodo34qptg8da)" height="33.9688" rx="12.5" ry="12.5" style="stroke: #A80036; stroke-width: 1.5;" width="138" x="112" y="249"/><text fill="#000000" font-family="sans-serif" font-size="12" lengthAdjust="spacingAndGlyphs" textLength="118" x="122" y="270.1387">Become a PRIMARY</text><rect fill="#FEFECE" filter="url(#fodo34qptg8da)" height="33.9688" rx="12.5" ry="12.5" style="stroke: #A80036; stroke-width: 1.5;" width="124" x="270" y="249"/><text fill="#000000" font-family="sans-serif" font-size="12" lengthAdjust="spacingAndGlyphs" textLength="104" x="280" y="270.1387">Wait 10 seconds</text><rect fill="#FEFECE" filter="url(#fodo34qptg8da)" height="33.9688" rx="12.5" ry="12.5" style="stroke: #A80036; stroke-width: 1.5;" width="228" x="218" y="324"/><text fill="#000000" font-family="sans-serif" font-size="12" lengthAdjust="spacingAndGlyphs" textLength="208" x="228" y="345.1387">Search again for a PRIMARY node</text><polygon fill="#FEFECE" filter="url(#fodo34qptg8da)" points="332,399,344,411,332,423,320,411,332,399" style="stroke: #A80036; stroke-width: 1.5;"/><rect fill="#FEFECE" filter="url(#fodo34qptg8da)" height="33.9688" rx="12.5" ry="12.5" style="stroke: #A80036; stroke-width: 1.5;" width="172" x="151" y="477"/><text fill="#000000" font-family="sans-serif" font-size="12" lengthAdjust="spacingAndGlyphs" textLength="152" x="161" y="498.1387">Now become a STANDBY</text><rect fill="#FEFECE" filter="url(#fodo34qptg8da)" height="33.9688" rx="12.5" ry="12.5" style="stroke: #A80036; stroke-width: 1.5;" width="168" x="343" y="477"/><text fill="#000000" font-family="sans-serif" font-size="12" lengthAdjust="spacingAndGlyphs" textLength="148" x="353" y="498.1387">Now become a PRIMARY</text><!--MD5=[9dbd29cd41047fe61946eb497106ac0e]
link Start to #145--><path d="M165,42.3034 C165,53.1588 165,67.0963 165,77.9108 " fill="none" id="Start-&gt;#145" style="stroke: #A80036; stroke-width: 1.0;"/><polygon fill="#A80036" points="165,82.9417,169,73.9417,165,77.9417,161,73.9417,165,82.9417" style="stroke: #A80036; stroke-width: 1.0;"/><text fill="#000000" font-family="sans-serif" font-size="11" lengthAdjust="spacingAndGlyphs" textLength="144" x="0.75" y="76.1864">Is there a PRIMARY node?</text><!--MD5=[e49396910b740237f4f8aabec1d61702]
link #145 to Become a STANDBY--><path d="M161.1797,103.5698 C155.7116,115.8362 145.468,138.8151 137.803,156.0095 " fill="none" id="#145-&gt;Become a STANDBY" style="stroke: #A80036; stroke-width: 1.0;"/><polygon fill="#A80036" points="135.7156,160.692,143.0336,154.1005,137.7515,156.1252,135.7268,150.8431,135.7156,160.692" style="stroke: #A80036; stroke-width: 1.0;"/><text fill="#000000" font-family="sans-serif" font-size="11" lengthAdjust="spacingAndGlyphs" textLength="20" x="151" y="138.2104">yes</text><!--MD5=[0e6d56a016f1a6a4b8f1a1161223723d]
link #145 to #150--><path d="M170.4011,101.7922 C181.7536,116.0689 208.1869,149.3107 222.0894,166.7943 " fill="none" id="#145-&gt;#150" style="stroke: #A80036; stroke-width: 1.0;"/><polygon fill="#A80036" points="225.3372,170.8786,222.8663,161.3447,222.2252,166.9651,216.6048,166.324,225.3372,170.8786" style="stroke: #A80036; stroke-width: 1.0;"/><text fill="#000000" font-family="sans-serif" font-size="11" lengthAdjust="spacingAndGlyphs" textLength="14" x="201" y="138.2104">no</text><text fill="#000000" font-family="sans-serif" font-size="11" lengthAdjust="spacingAndGlyphs" textLength="161" x="251.0625" y="164.7169">Are we first in the node list?</text><!--MD5=[9045339e616c5e12fa211408ef06b480]
link #150 to Become a PRIMARY--><path d="M226.5628,185.8094 C219.2038,198.7613 204.2178,225.1367 193.4397,244.1062 " fill="none" id="#150-&gt;Become a PRIMARY" style="stroke: #A80036; stroke-width: 1.0;"/><polygon fill="#A80036" points="190.7973,248.7567,198.7212,242.9076,193.2673,244.4094,191.7655,238.9555,190.7973,248.7567" style="stroke: #A80036; stroke-width: 1.0;"/><text fill="#000000" font-family="sans-serif" font-size="11" lengthAdjust="spacingAndGlyphs" textLength="20" x="210" y="226.2104">yes</text><!--MD5=[4d8c9449703ed2354381d1fed2851efe]
link #150 to Wait 10 seconds--><path d="M237.6269,183.7739 C251.7322,196.0637 285.3176,225.3262 308.3676,245.4094 " fill="none" id="#150-&gt;Wait 10 seconds" style="stroke: #A80036; stroke-width: 1.0;"/><polygon fill="#A80036" points="312.2564,248.7976,308.0985,239.8694,308.4866,245.513,302.8431,245.9011,312.2564,248.7976" style="stroke: #A80036; stroke-width: 1.0;"/><text fill="#000000" font-family="sans-serif" font-size="11" lengthAdjust="spacingAndGlyphs" textLength="14" x="288" y="226.2104">no</text><!--MD5=[50ce3bee0963402c0992b814da33073d]
link Wait 10 seconds to Search again for a PRIMARY node--><path d="M332,283.0187 C332,293.5877 332,307.2879 332,318.7171 " fill="none" id="Wait 10 seconds-&gt;Search again for a PRIMARY node" style="stroke: #A80036; stroke-width: 1.0;"/><polygon fill="#A80036" points="332,323.7891,336,314.7891,332,318.7891,328,314.7891,332,323.7891" style="stroke: #A80036; stroke-width: 1.0;"/><!--MD5=[255bd74f27d71c20734318f1c5533d62]
link Search again for a PRIMARY node to #159--><path d="M332,358.3034 C332,369.1588 332,383.0963 332,393.9108 " fill="none" id="Search again for a PRIMARY node-&gt;#159" style="stroke: #A80036; stroke-width: 1.0;"/><polygon fill="#A80036" points="332,398.9417,336,389.9417,332,393.9417,328,389.9417,332,398.9417" style="stroke: #A80036; stroke-width: 1.0;"/><text fill="#000000" font-family="sans-serif" font-size="11" lengthAdjust="spacingAndGlyphs" textLength="171" x="141.2281" y="393.0692">Is there a PRIMARY node now?</text><!--MD5=[2dc85396a5ec59346535926ae0e6ff90]
link #159 to Now become a STANDBY--><path d="M325.4703,416.7049 C312.2893,428.2209 281.9317,454.7439 260.4656,473.4984 " fill="none" id="#159-&gt;Now become a STANDBY" style="stroke: #A80036; stroke-width: 1.0;"/><polygon fill="#A80036" points="256.5671,476.9046,265.9765,473.9955,260.3325,473.6149,260.713,467.9709,256.5671,476.9046" style="stroke: #A80036; stroke-width: 1.0;"/><text fill="#000000" font-family="sans-serif" font-size="11" lengthAdjust="spacingAndGlyphs" textLength="20" x="294" y="454.2104">yes</text><!--MD5=[2d7c1b3a7f6371e886275a7041df4a87]
link #159 to Now become a PRIMARY--><path d="M338.5297,416.7049 C351.7107,428.2209 382.0683,454.7439 403.5344,473.4984 " fill="none" id="#159-&gt;Now become a PRIMARY" style="stroke: #A80036; stroke-width: 1.0;"/><polygon fill="#A80036" points="407.4329,476.9046,403.287,467.9709,403.6675,473.6149,398.0235,473.9955,407.4329,476.9046" style="stroke: #A80036; stroke-width: 1.0;"/><text fill="#000000" font-family="sans-serif" font-size="11" lengthAdjust="spacingAndGlyphs" textLength="14" x="383" y="454.2104">no</text><!--MD5=[fd3481ee838e7064f5fcfe86dd321363]
@startuml

"Start" - -> if "Is there a PRIMARY node?" then
    - ->[yes] "Become a STANDBY"
else
    - ->[no] if "Are we first in the node list?" then
        - ->[yes] "Become a PRIMARY"
    else
        - ->[no] "Wait 10 seconds"
        - -> "Search again for a PRIMARY node"
        if "Is there a PRIMARY node now?" then
            - ->[yes] "Now become a STANDBY"
        else
            - ->[no] "Now become a PRIMARY"
        endif
    endif
endif

@enduml

PlantUML version 1.2020.06(Sun Apr 05 12:38:32 UTC 2020)
(APACHE source distribution)
Java Runtime: OpenJDK Runtime Environment
JVM: OpenJDK 64-Bit Server VM
Java Version: 11.0.7+10-post-Debian-3deb10u1
Operating System: Linux
Default Encoding: ANSI_X3.4-1968
Language: en
Country: US
--></g></svg>