<?xml version="1.0" encoding="UTF-8" standalone="no"?><svg xmlns="http://www.w3.org/2000/svg" xmlns:xlink="http://www.w3.org/1999/xlink" contentScriptType="application/ecmascript" contentStyleType="text/css" height="439px" preserveAspectRatio="none" style="width:654px;height:439px;" version="1.1" viewBox="0 0 654 439" width="654px" zoomAndPan="magnify"><defs><filter height="300%" id="f16i25lsxqck3" width="300%" x="-1" y="-1"><feGaussianBlur result="blurOut" stdDeviation="2.0"/><feColorMatrix in="blurOut" result="blurOut2" type="matrix" values="0 0 0 0 0 0 0 0 0 0 0 0 0 0 0 0 0 0 .4 0"/><feOffset dx="4.0" dy="4.0" in="blurOut2" result="blurOut3"/><feBlend in="SourceGraphic" in2="blurOut3" mode="normal"/></filter></defs><g><!--MD5=[1e3f95782aa025a0d60ac76fd50e5ec3]
entity machine1--><rect fill="#FEFECE" filter="url(#f16i25lsxqck3)" height="36.2969" style="stroke: #000000; stroke-width: 1.5;" width="137" x="256" y="8"/><text fill="#000000" font-family="sans-serif" font-size="14" lengthAdjust="spacingAndGlyphs" textLength="117" x="266" y="30.9951">Physical Machine</text><!--MD5=[d55a4441c2532ea01aee1c65284e9521]
entity hos--><rect fill="#FEFECE" filter="url(#f16i25lsxqck3)" height="36.2969" style="stroke: #000000; stroke-width: 1.5;" width="179" x="235" y="104"/><text fill="#000000" font-family="sans-serif" font-size="14" lengthAdjust="spacingAndGlyphs" textLength="159" x="245" y="126.9951">Host Operating System</text><!--MD5=[09c5b9f08ba8edaaf1572fde42fdca76]
entity vm1--><rect fill="#FEFECE" filter="url(#f16i25lsxqck3)" height="36.2969" style="stroke: #000000; stroke-width: 1.5;" width="137" x="58" y="200"/><text fill="#000000" font-family="sans-serif" font-size="14" lengthAdjust="spacingAndGlyphs" textLength="117" x="68" y="222.9951">Virtual Machine 1</text><!--MD5=[52c4dfb455d40dc24f53f503c3bc5701]
entity os1--><rect fill="#FEFECE" filter="url(#f16i25lsxqck3)" height="36.2969" style="stroke: #000000; stroke-width: 1.5;" width="189" x="6" y="296"/><text fill="#000000" font-family="sans-serif" font-size="14" lengthAdjust="spacingAndGlyphs" textLength="169" x="16" y="318.9951">Guest Operating System</text><!--MD5=[019f6774f902f72c488c9dcee70d4d6c]
entity app1--><rect fill="#FEFECE" filter="url(#f16i25lsxqck3)" height="36.2969" style="stroke: #000000; stroke-width: 1.5;" width="95" x="53" y="392"/><text fill="#000000" font-family="sans-serif" font-size="14" lengthAdjust="spacingAndGlyphs" textLength="75" x="63" y="414.9951">Application</text><!--MD5=[9d435489ff8c5ec1c515258ba349b06d]
entity vm2--><rect fill="#FEFECE" filter="url(#f16i25lsxqck3)" height="36.2969" style="stroke: #000000; stroke-width: 1.5;" width="137" x="256" y="200"/><text fill="#000000" font-family="sans-serif" font-size="14" lengthAdjust="spacingAndGlyphs" textLength="117" x="266" y="222.9951">Virtual Machine 2</text><!--MD5=[9c51130f65f42595ffedd3be347983ea]
entity os2--><rect fill="#FEFECE" filter="url(#f16i25lsxqck3)" height="36.2969" style="stroke: #000000; stroke-width: 1.5;" width="189" x="230" y="296"/><text fill="#000000" font-family="sans-serif" font-size="14" lengthAdjust="spacingAndGlyphs" textLength="169" x="240" y="318.9951">Guest Operating System</text><!--MD5=[81be28259591a23f63462d93727ccfe3]
entity app2--><rect fill="#FEFECE" filter="url(#f16i25lsxqck3)" height="36.2969" style="stroke: #000000; stroke-width: 1.5;" width="95" x="277" y="392"/><text fill="#000000" font-family="sans-serif" font-size="14" lengthAdjust="spacingAndGlyphs" textLength="75" x="287" y="414.9951">Application</text><!--MD5=[3e2588bee781c9fb96c797edaac63eb0]
entity vm3--><rect fill="#FEFECE" filter="url(#f16i25lsxqck3)" height="36.2969" style="stroke: #000000; stroke-width: 1.5;" width="137" x="454" y="200"/><text fill="#000000" font-family="sans-serif" font-size="14" lengthAdjust="spacingAndGlyphs" textLength="117" x="464" y="222.9951">Virtual Machine 3</text><!--MD5=[affb25e1df3a891aab812b5448c50144]
entity os3--><rect fill="#FEFECE" filter="url(#f16i25lsxqck3)" height="36.2969" style="stroke: #000000; stroke-width: 1.5;" width="189" x="454" y="296"/><text fill="#000000" font-family="sans-serif" font-size="14" lengthAdjust="spacingAndGlyphs" textLength="169" x="464" y="318.9951">Guest Operating System</text><!--MD5=[640bfebe45159a20e5557f42971d9afe]
entity app3--><rect fill="#FEFECE" filter="url(#f16i25lsxqck3)" height="36.2969" style="stroke: #000000; stroke-width: 1.5;" width="95" x="501" y="392"/><text fill="#000000" font-family="sans-serif" font-size="14" lengthAdjust="spacingAndGlyphs" textLength="75" x="511" y="414.9951">Application</text><!--MD5=[ce1599b41b40f9482de6222d4f81328f]
link machine1 to hos--><path d="M324.5,44.0569 C324.5,59.5126 324.5,81.8647 324.5,98.6731 " fill="none" id="machine1-&gt;hos" style="stroke: #A80036; stroke-width: 1.0;"/><polygon fill="#A80036" points="324.5,103.6977,328.5,94.6977,324.5,98.6977,320.5,94.6977,324.5,103.6977" style="stroke: #A80036; stroke-width: 1.0;"/><!--MD5=[4243e8d91449005821c56df788c24f2e]
link hos to vm1--><path d="M287.2577,140.0569 C253.4867,156.4307 203.7523,180.5444 168.5607,197.6069 " fill="none" id="hos-&gt;vm1" style="stroke: #A80036; stroke-width: 1.0;"/><polygon fill="#A80036" points="163.9114,199.8612,173.7548,199.5338,168.4104,197.6798,170.2645,192.3354,163.9114,199.8612" style="stroke: #A80036; stroke-width: 1.0;"/><!--MD5=[8b2559497dad8fcf90e4723147e5a5ac]
link hos to vm2--><path d="M324.5,140.0569 C324.5,155.5126 324.5,177.8647 324.5,194.6731 " fill="none" id="hos-&gt;vm2" style="stroke: #A80036; stroke-width: 1.0;"/><polygon fill="#A80036" points="324.5,199.6977,328.5,190.6977,324.5,194.6977,320.5,190.6977,324.5,199.6977" style="stroke: #A80036; stroke-width: 1.0;"/><!--MD5=[dbb22317fb1be0af124314b43e8ae59d]
link hos to vm3--><path d="M361.7423,140.0569 C395.5133,156.4307 445.2477,180.5444 480.4393,197.6069 " fill="none" id="hos-&gt;vm3" style="stroke: #A80036; stroke-width: 1.0;"/><polygon fill="#A80036" points="485.0886,199.8612,478.7355,192.3354,480.5896,197.6798,475.2452,199.5338,485.0886,199.8612" style="stroke: #A80036; stroke-width: 1.0;"/><!--MD5=[4569228769cc72833f3d3784d57aa43a]
link vm1 to os1--><path d="M121.6096,236.0569 C117.4237,251.5126 111.37,273.8647 106.8177,290.6731 " fill="none" id="vm1-&gt;os1" style="stroke: #A80036; stroke-width: 1.0;"/><polygon fill="#A80036" points="105.4569,295.6977,111.6706,288.0564,106.764,290.8716,103.9489,285.965,105.4569,295.6977" style="stroke: #A80036; stroke-width: 1.0;"/><!--MD5=[641fe3d1091a1cbbb7137f223ae08b7c]
link os1 to app1--><path d="M100.5,332.0569 C100.5,347.5126 100.5,369.8647 100.5,386.6731 " fill="none" id="os1-&gt;app1" style="stroke: #A80036; stroke-width: 1.0;"/><polygon fill="#A80036" points="100.5,391.6977,104.5,382.6977,100.5,386.6977,96.5,382.6977,100.5,391.6977" style="stroke: #A80036; stroke-width: 1.0;"/><!--MD5=[1d66145176cf8dd0eb4f90604ed993cf]
link vm2 to os2--><path d="M324.5,236.0569 C324.5,251.5126 324.5,273.8647 324.5,290.6731 " fill="none" id="vm2-&gt;os2" style="stroke: #A80036; stroke-width: 1.0;"/><polygon fill="#A80036" points="324.5,295.6977,328.5,286.6977,324.5,290.6977,320.5,286.6977,324.5,295.6977" style="stroke: #A80036; stroke-width: 1.0;"/><!--MD5=[eb2a3cc936125e7ecce1202ecaf3ecd0]
link os2 to app2--><path d="M324.5,332.0569 C324.5,347.5126 324.5,369.8647 324.5,386.6731 " fill="none" id="os2-&gt;app2" style="stroke: #A80036; stroke-width: 1.0;"/><polygon fill="#A80036" points="324.5,391.6977,328.5,382.6977,324.5,386.6977,320.5,382.6977,324.5,391.6977" style="stroke: #A80036; stroke-width: 1.0;"/><!--MD5=[f6c067282c7858c2ad73cd23b0a68e4d]
link vm3 to os3--><path d="M527.3904,236.0569 C531.5763,251.5126 537.63,273.8647 542.1823,290.6731 " fill="none" id="vm3-&gt;os3" style="stroke: #A80036; stroke-width: 1.0;"/><polygon fill="#A80036" points="543.5431,295.6977,545.0511,285.965,542.236,290.8716,537.3294,288.0564,543.5431,295.6977" style="stroke: #A80036; stroke-width: 1.0;"/><!--MD5=[73bb5331d45fec0ed55756e2d31b00f9]
link os3 to app3--><path d="M548.5,332.0569 C548.5,347.5126 548.5,369.8647 548.5,386.6731 " fill="none" id="os3-&gt;app3" style="stroke: #A80036; stroke-width: 1.0;"/><polygon fill="#A80036" points="548.5,391.6977,552.5,382.6977,548.5,386.6977,544.5,382.6977,548.5,391.6977" style="stroke: #A80036; stroke-width: 1.0;"/><!--MD5=[0386a1dee4627289be2b78fa4e06435c]
@startuml

rectangle machine1 as "Physical Machine"
rectangle hos as "Host Operating System"

rectangle vm1 as "Virtual Machine 1"
rectangle os1 as "Guest Operating System"
rectangle app1 as "Application"

rectangle vm2 as "Virtual Machine 2"
rectangle os2 as "Guest Operating System"
rectangle app2 as "Application"

rectangle vm3 as "Virtual Machine 3"
rectangle os3 as "Guest Operating System"
rectangle app3 as "Application"

machine1 - -> hos

hos - -> vm1
hos - -> vm2
hos - -> vm3

vm1 - -> os1
os1 - -> app1

vm2 - -> os2
os2 - -> app2

vm3 - -> os3
os3 - -> app3

@enduml

PlantUML version 1.2020.06(Sun Apr 05 12:38:32 UTC 2020)
(APACHE source distribution)
Java Runtime: OpenJDK Runtime Environment
JVM: OpenJDK 64-Bit Server VM
Java Version: 11.0.7+10-post-Debian-3deb10u1
Operating System: Linux
Default Encoding: ANSI_X3.4-1968
Language: en
Country: US
--></g></svg>