<?xml version="1.0" encoding="UTF-8" standalone="no"?><svg xmlns="http://www.w3.org/2000/svg" xmlns:xlink="http://www.w3.org/1999/xlink" contentScriptType="application/ecmascript" contentStyleType="text/css" height="113px" preserveAspectRatio="none" style="width:331px;height:113px;" version="1.1" viewBox="0 0 331 113" width="331px" zoomAndPan="magnify"><defs><filter height="300%" id="fxw2ikuk0o1qx" width="300%" x="-1" y="-1"><feGaussianBlur result="blurOut" stdDeviation="2.0"/><feColorMatrix in="blurOut" result="blurOut2" type="matrix" values="0 0 0 0 0 0 0 0 0 0 0 0 0 0 0 0 0 0 .4 0"/><feOffset dx="4.0" dy="4.0" in="blurOut2" result="blurOut3"/><feBlend in="SourceGraphic" in2="blurOut3" mode="normal"/></filter></defs><g><!--MD5=[51bd6bf392a46b13b08aa61c812e40c2]
cluster volume--><rect fill="#FFFFFF" filter="url(#fxw2ikuk0o1qx)" height="71" rx="35" ry="35" style="stroke: #000000; stroke-width: 1.5;" width="138" x="180" y="25.5"/><text fill="#000000" font-family="sans-serif" font-size="14" font-weight="bold" lengthAdjust="spacingAndGlyphs" textLength="59" x="219.5" y="45.4951">Volume</text><!--MD5=[ce5ccd5b359d4259c2ab78015c688698]
cluster container--><polygon fill="#FFFFFF" filter="url(#fxw2ikuk0o1qx)" points="14,26,24,16,167,16,167,91,157,101,14,101,14,26" style="stroke: #000000; stroke-width: 1.5;"/><line style="stroke: #000000; stroke-width: 1.5;" x1="157" x2="166" y1="26" y2="17"/><line style="stroke: #000000; stroke-width: 1.5;" x1="14" x2="157" y1="26" y2="26"/><line style="stroke: #000000; stroke-width: 1.5;" x1="157" x2="157" y1="26" y2="101"/><text fill="#000000" font-family="sans-serif" font-size="14" font-weight="bold" lengthAdjust="spacingAndGlyphs" textLength="77" x="48" y="41.9951">Container</text><!--MD5=[670a3f9e65a72764fa32683c3bb9488f]
entity dbfiles--><polygon fill="#FEFECE" filter="url(#fxw2ikuk0o1qx)" points="188.5,52.5,188.5,88.7969,309.5,88.7969,309.5,62.5,299.5,52.5,188.5,52.5" style="stroke: #000000; stroke-width: 1.5;"/><path d="M299.5,52.5 L299.5,62.5 L309.5,62.5 " fill="#FEFECE" style="stroke: #000000; stroke-width: 1.5;"/><text fill="#000000" font-family="sans-serif" font-size="14" lengthAdjust="spacingAndGlyphs" textLength="101" x="198.5" y="75.4951">Database Files</text><!--MD5=[c9cdec996607f0db33d5cd5e2148af87]
entity RDBMS--><path d="M81,58 C81,48 117,48 117,48 C117,48 153,48 153,58 L153,83.2969 C153,93.2969 117,93.2969 117,93.2969 C117,93.2969 81,93.2969 81,83.2969 L81,58 " fill="#FEFECE" filter="url(#fxw2ikuk0o1qx)" style="stroke: #000000; stroke-width: 1.5;"/><path d="M81,58 C81,68 117,68 117,68 C117,68 153,68 153,58 " fill="none" style="stroke: #000000; stroke-width: 1.5;"/><text fill="#000000" font-family="sans-serif" font-size="14" lengthAdjust="spacingAndGlyphs" textLength="52" x="91" y="84.9951">RDBMS</text><!--MD5=[82b937f93d22e711bc93b511c18dc3c7]
link RDBMS to dbfiles--><path d="M158.3211,70.5 C166.5991,70.5 174.8771,70.5 183.1551,70.5 " fill="none" id="RDBMS-dbfiles" style="stroke: #A80036; stroke-width: 1.0;"/><polygon fill="#A80036" points="188.3093,70.5,179.3093,66.5,183.3093,70.5,179.3093,74.5,188.3093,70.5" style="stroke: #A80036; stroke-width: 1.0;"/><polygon fill="#A80036" points="153.0938,70.5,162.0938,74.5,158.0938,70.5,162.0938,66.5,153.0938,70.5" style="stroke: #A80036; stroke-width: 1.0;"/><!--MD5=[be68521984e418aa9e7944e47a4784ec]
@startuml

storage volume as "Volume" {
    file dbfiles as "Database Files"
}
node container as "Container" {
    database RDBMS
}

RDBMS <-> dbfiles

@enduml

PlantUML version 1.2020.06(Sun Apr 05 12:38:32 UTC 2020)
(APACHE source distribution)
Java Runtime: OpenJDK Runtime Environment
JVM: OpenJDK 64-Bit Server VM
Java Version: 11.0.7+10-post-Debian-3deb10u1
Operating System: Linux
Default Encoding: ANSI_X3.4-1968
Language: en
Country: US
--></g></svg>