<?xml version="1.0" encoding="UTF-8" standalone="no"?><svg xmlns="http://www.w3.org/2000/svg" xmlns:xlink="http://www.w3.org/1999/xlink" contentScriptType="application/ecmascript" contentStyleType="text/css" height="140px" preserveAspectRatio="none" style="width:350px;height:140px;" version="1.1" viewBox="0 0 350 140" width="350px" zoomAndPan="magnify"><defs><filter height="300%" id="fxw2ikuk0o1qx" width="300%" x="-1" y="-1"><feGaussianBlur result="blurOut" stdDeviation="2.0"/><feColorMatrix in="blurOut" result="blurOut2" type="matrix" values="0 0 0 0 0 0 0 0 0 0 0 0 0 0 0 0 0 0 .4 0"/><feOffset dx="4.0" dy="4.0" in="blurOut2" result="blurOut3"/><feBlend in="SourceGraphic" in2="blurOut3" mode="normal"/></filter></defs><g><!--MD5=[51bd6bf392a46b13b08aa61c812e40c2]
cluster volume--><rect fill="#FFFFFF" filter="url(#fxw2ikuk0o1qx)" height="90" rx="35" ry="35" style="stroke: #000000; stroke-width: 1.5;" width="148" x="191" y="33.5"/><text fill="#000000" font-family="sans-serif" font-size="14" font-weight="bold" lengthAdjust="spacingAndGlyphs" textLength="52" x="239" y="55.0332">Volume</text><!--MD5=[ce5ccd5b359d4259c2ab78015c688698]
cluster container--><polygon fill="#FFFFFF" filter="url(#fxw2ikuk0o1qx)" points="22,34,32,24,167,24,167,118,157,128,22,128,22,34" style="stroke: #000000; stroke-width: 1.5;"/><line style="stroke: #000000; stroke-width: 1.5;" x1="157" x2="166" y1="34" y2="25"/><line style="stroke: #000000; stroke-width: 1.5;" x1="22" x2="157" y1="34" y2="34"/><line style="stroke: #000000; stroke-width: 1.5;" x1="157" x2="157" y1="34" y2="128"/><text fill="#000000" font-family="sans-serif" font-size="14" font-weight="bold" lengthAdjust="spacingAndGlyphs" textLength="69" x="56" y="51.5332">Container</text><!--MD5=[670a3f9e65a72764fa32683c3bb9488f]
entity dbfiles--><polygon fill="#FEFECE" filter="url(#fxw2ikuk0o1qx)" points="207.5,69.5,207.5,107.1094,322.5,107.1094,322.5,79.5,312.5,69.5,207.5,69.5" style="stroke: #000000; stroke-width: 1.5;"/><path d="M312.5,69.5 L312.5,79.5 L322.5,79.5 " fill="#FEFECE" style="stroke: #000000; stroke-width: 1.5;"/><text fill="#000000" font-family="sans-serif" font-size="14" lengthAdjust="spacingAndGlyphs" textLength="95" x="217.5" y="94.0332">Database Files</text><!--MD5=[c9cdec996607f0db33d5cd5e2148af87]
entity RDBMS--><path d="M81.5,75 C81.5,65 116,65 116,65 C116,65 150.5,65 150.5,75 L150.5,101.6094 C150.5,111.6094 116,111.6094 116,111.6094 C116,111.6094 81.5,111.6094 81.5,101.6094 L81.5,75 " fill="#FEFECE" filter="url(#fxw2ikuk0o1qx)" style="stroke: #000000; stroke-width: 1.5;"/><path d="M81.5,75 C81.5,85 116,85 116,85 C116,85 150.5,85 150.5,75 " fill="none" style="stroke: #000000; stroke-width: 1.5;"/><text fill="#000000" font-family="sans-serif" font-size="14" lengthAdjust="spacingAndGlyphs" textLength="49" x="91.5" y="103.5332">RDBMS</text><!--MD5=[82b937f93d22e711bc93b511c18dc3c7]
link RDBMS to dbfiles--><path d="M155.95,88.5 C171.349,88.5 186.748,88.5 202.146,88.5 " fill="none" id="RDBMS-dbfiles" style="stroke: #A80036; stroke-width: 1.0;"/><polygon fill="#A80036" points="207.369,88.5,198.369,84.5,202.369,88.5,198.369,92.5,207.369,88.5" style="stroke: #A80036; stroke-width: 1.0;"/><polygon fill="#A80036" points="150.631,88.5,159.631,92.5,155.631,88.5,159.631,84.5,150.631,88.5" style="stroke: #A80036; stroke-width: 1.0;"/><!--MD5=[6cf362f90738892c617d26d1eb29fad6]
@startuml

storage volume as "Volume" {
    file dbfiles as "Database Files"
}
node container as "Container" {
    database RDBMS
}

RDBMS <-> dbfiles

@enduml

PlantUML version 1.2019.12(Sun Nov 03 05:24:54 EST 2019)
(APACHE source distribution)
Java Runtime: OpenJDK Runtime Environment
JVM: OpenJDK 64-Bit Server VM
Java Version: 13.0.1+9
Operating System: Windows 10
Default Encoding: Cp1252
Language: en
Country: US
--></g></svg>