<?xml version="1.0" encoding="UTF-8" standalone="no"?><svg xmlns="http://www.w3.org/2000/svg" xmlns:xlink="http://www.w3.org/1999/xlink" contentScriptType="application/ecmascript" contentStyleType="text/css" height="240px" preserveAspectRatio="none" style="width:487px;height:240px;" version="1.1" viewBox="0 0 487 240" width="487px" zoomAndPan="magnify"><defs/><g><line style="stroke: #000000; stroke-width: 1.7;" x1="10" x2="10" y1="10" y2="208.5625"/><line style="stroke: #000000; stroke-width: 1.7;" x1="470" x2="470" y1="10" y2="208.5625"/><line style="stroke: #AAAAAA; stroke-width: 0.5; stroke-dasharray: 3.0,5.0;" x1="15" x2="15" y1="10" y2="208.5625"/><line style="stroke: #AAAAAA; stroke-width: 0.5; stroke-dasharray: 3.0,5.0;" x1="65" x2="65" y1="10" y2="208.5625"/><line style="stroke: #AAAAAA; stroke-width: 0.5; stroke-dasharray: 3.0,5.0;" x1="115" x2="115" y1="10" y2="208.5625"/><line style="stroke: #AAAAAA; stroke-width: 0.5; stroke-dasharray: 3.0,5.0;" x1="165" x2="165" y1="10" y2="208.5625"/><line style="stroke: #AAAAAA; stroke-width: 0.5; stroke-dasharray: 3.0,5.0;" x1="215" x2="215" y1="10" y2="208.5625"/><line style="stroke: #AAAAAA; stroke-width: 0.5; stroke-dasharray: 3.0,5.0;" x1="265" x2="265" y1="10" y2="208.5625"/><line style="stroke: #AAAAAA; stroke-width: 0.5; stroke-dasharray: 3.0,5.0;" x1="315" x2="315" y1="10" y2="208.5625"/><line style="stroke: #AAAAAA; stroke-width: 0.5; stroke-dasharray: 3.0,5.0;" x1="365" x2="365" y1="10" y2="208.5625"/><line style="stroke: #AAAAAA; stroke-width: 0.5; stroke-dasharray: 3.0,5.0;" x1="415" x2="415" y1="10" y2="208.5625"/><line style="stroke: #AAAAAA; stroke-width: 0.5; stroke-dasharray: 3.0,5.0;" x1="465" x2="465" y1="10" y2="208.5625"/><text fill="#000000" font-family="sans-serif" font-size="12" lengthAdjust="spacingAndGlyphs" textLength="40" x="15" y="22.457">Node 1</text><line style="stroke: #000000; stroke-width: 1.0;" x1="10" x2="56" y1="26.0938" y2="26.0938"/><line style="stroke: #000000; stroke-width: 1.0;" x1="56" x2="66" y1="26.0938" y2="10"/><polygon fill="#D7E0F2" points="27,34.1875,253,34.1875,265,46.1875,253,58.1875,27,58.1875,15,46.1875" style="stroke: #038048; stroke-width: 1.5;"/><polygon fill="#D7E0F2" points="277,34.1875,465,34.1875,465,58.1875,277,58.1875,265,46.1875" style="stroke: #D7E0F2; stroke-width: 1.5;"/><path d="M465,34.1875 L277,34.1875 L265,46.1875 L277,58.1875 L465,58.1875 " fill="#D7E0F2" style="stroke: #038048; stroke-width: 1.5;"/><text fill="#000000" font-family="sans-serif" font-size="12" lengthAdjust="spacingAndGlyphs" textLength="42" x="119" y="51.0977">Primary</text><text fill="#000000" font-family="sans-serif" font-size="12" lengthAdjust="spacingAndGlyphs" textLength="34" x="277" y="51.0977">Failed</text><line style="stroke: #000000; stroke-width: 1.7;" x1="10" x2="470" y1="10" y2="10"/><text fill="#000000" font-family="sans-serif" font-size="12" lengthAdjust="spacingAndGlyphs" textLength="40" x="15" y="88.6445">Node 2</text><line style="stroke: #000000; stroke-width: 1.0;" x1="10" x2="56" y1="92.2813" y2="92.2813"/><line style="stroke: #000000; stroke-width: 1.0;" x1="56" x2="66" y1="92.2813" y2="76.1875"/><polygon fill="#D7E0F2" points="27,100.375,153,100.375,165,112.375,153,124.375,27,124.375,15,112.375" style="stroke: #038048; stroke-width: 1.5;"/><polygon fill="#D7E0F2" points="177,100.375,203,100.375,215,112.375,203,124.375,177,124.375,165,112.375" style="stroke: #038048; stroke-width: 1.5;"/><polygon fill="#D7E0F2" points="227,100.375,303,100.375,315,112.375,303,124.375,227,124.375,215,112.375" style="stroke: #038048; stroke-width: 1.5;"/><polygon fill="#D7E0F2" points="327,100.375,353,100.375,365,112.375,353,124.375,327,124.375,315,112.375" style="stroke: #038048; stroke-width: 1.5;"/><polygon fill="#D7E0F2" points="377,100.375,465,100.375,465,124.375,377,124.375,365,112.375" style="stroke: #D7E0F2; stroke-width: 1.5;"/><path d="M465,100.375 L377,100.375 L365,112.375 L377,124.375 L465,124.375 " fill="#D7E0F2" style="stroke: #038048; stroke-width: 1.5;"/><text fill="#000000" font-family="sans-serif" font-size="12" lengthAdjust="spacingAndGlyphs" textLength="44" x="68" y="117.2852">Standby</text><text fill="#000000" font-family="sans-serif" font-size="12" lengthAdjust="spacingAndGlyphs" textLength="35" x="172.5" y="117.2852">Check</text><text fill="#000000" font-family="sans-serif" font-size="12" lengthAdjust="spacingAndGlyphs" textLength="44" x="243" y="117.2852">Standby</text><text fill="#000000" font-family="sans-serif" font-size="12" lengthAdjust="spacingAndGlyphs" textLength="35" x="322.5" y="117.2852">Check</text><text fill="#000000" font-family="sans-serif" font-size="12" lengthAdjust="spacingAndGlyphs" textLength="42" x="377" y="117.2852">Primary</text><line style="stroke: #000000; stroke-width: 1.7;" x1="10" x2="470" y1="76.1875" y2="76.1875"/><text fill="#000000" font-family="sans-serif" font-size="12" lengthAdjust="spacingAndGlyphs" textLength="40" x="15" y="154.832">Node 3</text><line style="stroke: #000000; stroke-width: 1.0;" x1="10" x2="56" y1="158.4688" y2="158.4688"/><line style="stroke: #000000; stroke-width: 1.0;" x1="56" x2="66" y1="158.4688" y2="142.375"/><polygon fill="#D7E0F2" points="27,166.5625,153,166.5625,165,178.5625,153,190.5625,27,190.5625,15,178.5625" style="stroke: #038048; stroke-width: 1.5;"/><polygon fill="#D7E0F2" points="177,166.5625,203,166.5625,215,178.5625,203,190.5625,177,190.5625,165,178.5625" style="stroke: #038048; stroke-width: 1.5;"/><polygon fill="#D7E0F2" points="227,166.5625,303,166.5625,315,178.5625,303,190.5625,227,190.5625,215,178.5625" style="stroke: #038048; stroke-width: 1.5;"/><polygon fill="#D7E0F2" points="327,166.5625,353,166.5625,365,178.5625,353,190.5625,327,190.5625,315,178.5625" style="stroke: #038048; stroke-width: 1.5;"/><polygon fill="#D7E0F2" points="377,166.5625,465,166.5625,465,190.5625,377,190.5625,365,178.5625" style="stroke: #D7E0F2; stroke-width: 1.5;"/><path d="M465,166.5625 L377,166.5625 L365,178.5625 L377,190.5625 L465,190.5625 " fill="#D7E0F2" style="stroke: #038048; stroke-width: 1.5;"/><text fill="#000000" font-family="sans-serif" font-size="12" lengthAdjust="spacingAndGlyphs" textLength="44" x="68" y="183.4727">Standby</text><text fill="#000000" font-family="sans-serif" font-size="12" lengthAdjust="spacingAndGlyphs" textLength="35" x="172.5" y="183.4727">Check</text><text fill="#000000" font-family="sans-serif" font-size="12" lengthAdjust="spacingAndGlyphs" textLength="44" x="243" y="183.4727">Standby</text><text fill="#000000" font-family="sans-serif" font-size="12" lengthAdjust="spacingAndGlyphs" textLength="35" x="322.5" y="183.4727">Check</text><text fill="#000000" font-family="sans-serif" font-size="12" lengthAdjust="spacingAndGlyphs" textLength="42" x="377" y="183.4727">Primary</text><line style="stroke: #000000; stroke-width: 1.7;" x1="10" x2="470" y1="142.375" y2="142.375"/><line style="stroke: #000000; stroke-width: 2.0;" x1="15" x2="15" y1="208.5625" y2="213.5625"/><line style="stroke: #000000; stroke-width: 2.0;" x1="65" x2="65" y1="208.5625" y2="213.5625"/><line style="stroke: #000000; stroke-width: 2.0;" x1="115" x2="115" y1="208.5625" y2="213.5625"/><line style="stroke: #000000; stroke-width: 2.0;" x1="165" x2="165" y1="208.5625" y2="213.5625"/><line style="stroke: #000000; stroke-width: 2.0;" x1="215" x2="215" y1="208.5625" y2="213.5625"/><line style="stroke: #000000; stroke-width: 2.0;" x1="265" x2="265" y1="208.5625" y2="213.5625"/><line style="stroke: #000000; stroke-width: 2.0;" x1="315" x2="315" y1="208.5625" y2="213.5625"/><line style="stroke: #000000; stroke-width: 2.0;" x1="365" x2="365" y1="208.5625" y2="213.5625"/><line style="stroke: #000000; stroke-width: 2.0;" x1="415" x2="415" y1="208.5625" y2="213.5625"/><line style="stroke: #000000; stroke-width: 2.0;" x1="465" x2="465" y1="208.5625" y2="213.5625"/><line style="stroke: #000000; stroke-width: 2.0;" x1="15" x2="465" y1="208.5625" y2="208.5625"/><text fill="#000000" font-family="sans-serif" font-size="12" lengthAdjust="spacingAndGlyphs" textLength="7" x="11.5" y="227.0195">0</text><text fill="#000000" font-family="sans-serif" font-size="12" lengthAdjust="spacingAndGlyphs" textLength="14" x="58" y="227.0195">10</text><text fill="#000000" font-family="sans-serif" font-size="12" lengthAdjust="spacingAndGlyphs" textLength="14" x="108" y="227.0195">20</text><text fill="#000000" font-family="sans-serif" font-size="12" lengthAdjust="spacingAndGlyphs" textLength="14" x="158" y="227.0195">30</text><text fill="#000000" font-family="sans-serif" font-size="12" lengthAdjust="spacingAndGlyphs" textLength="14" x="208" y="227.0195">40</text><text fill="#000000" font-family="sans-serif" font-size="12" lengthAdjust="spacingAndGlyphs" textLength="14" x="258" y="227.0195">50</text><text fill="#000000" font-family="sans-serif" font-size="12" lengthAdjust="spacingAndGlyphs" textLength="14" x="308" y="227.0195">60</text><text fill="#000000" font-family="sans-serif" font-size="12" lengthAdjust="spacingAndGlyphs" textLength="14" x="358" y="227.0195">70</text><text fill="#000000" font-family="sans-serif" font-size="12" lengthAdjust="spacingAndGlyphs" textLength="14" x="408" y="227.0195">80</text><!--MD5=[de054e2c44c193052e4ceede33a10d65]
@startuml
concise "Node 1" as N1
concise "Node 2" as N2
concise "Node 3" as N3

@0
N1 is Primary
N2 is Standby
N3 is Standby

@10

@20

@30
N2 is Check
N3 is Check

@40
N2 is Standby
N3 is Standby

@50
N1 is Failed

@60
N2 is Check
N3 is Check

@70
N2 is Primary
N3 is Primary

@80

@enduml

PlantUML version 1.2019.12(Sun Nov 03 05:24:54 EST 2019)
(APACHE source distribution)
Java Runtime: OpenJDK Runtime Environment
JVM: OpenJDK 64-Bit Server VM
Java Version: 13.0.1+9
Operating System: Windows 10
Default Encoding: Cp1252
Language: en
Country: US
--></g></svg>