<?xml version="1.0" encoding="UTF-8" standalone="no"?><svg xmlns="http://www.w3.org/2000/svg" xmlns:xlink="http://www.w3.org/1999/xlink" contentScriptType="application/ecmascript" contentStyleType="text/css" height="383px" preserveAspectRatio="none" style="width:729px;height:383px;" version="1.1" viewBox="0 0 729 383" width="729px" zoomAndPan="magnify"><defs><filter height="300%" id="f1jspe4pxbau6q" width="300%" x="-1" y="-1"><feGaussianBlur result="blurOut" stdDeviation="2.0"/><feColorMatrix in="blurOut" result="blurOut2" type="matrix" values="0 0 0 0 0 0 0 0 0 0 0 0 0 0 0 0 0 0 .4 0"/><feOffset dx="4.0" dy="4.0" in="blurOut2" result="blurOut3"/><feBlend in="SourceGraphic" in2="blurOut3" mode="normal"/></filter></defs><g><!--MD5=[23cbaadc18b1780d966e07254adaec4d]
cluster frontend--><rect fill="#FFFFFF" filter="url(#f1jspe4pxbau6q)" height="232" style="stroke: #000000; stroke-width: 1.5;" width="314" x="30" y="32"/><text fill="#000000" font-family="sans-serif" font-size="14" font-weight="bold" lengthAdjust="spacingAndGlyphs" textLength="69" x="152.5" y="48.5332">Front End</text><!--MD5=[4f96b4ca2c63f1a93e6dd3fb44a17ade]
cluster Messaging--><rect fill="#FFFFFF" filter="url(#f1jspe4pxbau6q)" height="224" style="stroke: #000000; stroke-width: 1.5;" width="334" x="384" y="148"/><text fill="#000000" font-family="sans-serif" font-size="14" font-weight="bold" lengthAdjust="spacingAndGlyphs" textLength="77" x="512.5" y="164.5332">Messaging</text><!--MD5=[ec6166a68167559d8766aee65d35c7b3]
entity front-end1--><polygon fill="#FEFECE" filter="url(#f1jspe4pxbau6q)" points="54,86,64,76,160,76,160,113.6094,150,123.6094,54,123.6094,54,86" style="stroke: #000000; stroke-width: 1.5;"/><line style="stroke: #000000; stroke-width: 1.5;" x1="150" x2="159" y1="86" y2="77"/><line style="stroke: #000000; stroke-width: 1.5;" x1="54" x2="150" y1="86" y2="86"/><line style="stroke: #000000; stroke-width: 1.5;" x1="150" x2="150" y1="86" y2="123.6094"/><text fill="#000000" font-family="sans-serif" font-size="14" lengthAdjust="spacingAndGlyphs" textLength="66" x="69" y="110.5332">front-end1</text><!--MD5=[b04a3668ca16c841885ddb34e11c43d6]
entity front-end2--><polygon fill="#FEFECE" filter="url(#f1jspe4pxbau6q)" points="195,86,205,76,301,76,301,113.6094,291,123.6094,195,123.6094,195,86" style="stroke: #000000; stroke-width: 1.5;"/><line style="stroke: #000000; stroke-width: 1.5;" x1="291" x2="300" y1="86" y2="77"/><line style="stroke: #000000; stroke-width: 1.5;" x1="195" x2="291" y1="86" y2="86"/><line style="stroke: #000000; stroke-width: 1.5;" x1="291" x2="291" y1="86" y2="123.6094"/><text fill="#000000" font-family="sans-serif" font-size="14" lengthAdjust="spacingAndGlyphs" textLength="66" x="210" y="110.5332">front-end2</text><!--MD5=[45fa7cb92a674dec43967ae9acaaf92d]
entity front-end3--><polygon fill="#FEFECE" filter="url(#f1jspe4pxbau6q)" points="54,202,64,192,160,192,160,229.6094,150,239.6094,54,239.6094,54,202" style="stroke: #000000; stroke-width: 1.5;"/><line style="stroke: #000000; stroke-width: 1.5;" x1="150" x2="159" y1="202" y2="193"/><line style="stroke: #000000; stroke-width: 1.5;" x1="54" x2="150" y1="202" y2="202"/><line style="stroke: #000000; stroke-width: 1.5;" x1="150" x2="150" y1="202" y2="239.6094"/><text fill="#000000" font-family="sans-serif" font-size="14" lengthAdjust="spacingAndGlyphs" textLength="66" x="69" y="226.5332">front-end3</text><!--MD5=[80b9f5d68bbf4c883d8d5fa324fdc9c1]
entity messaging1--><polygon fill="#FEFECE" filter="url(#f1jspe4pxbau6q)" points="427,202,437,192,543,192,543,229.6094,533,239.6094,427,239.6094,427,202" style="stroke: #000000; stroke-width: 1.5;"/><line style="stroke: #000000; stroke-width: 1.5;" x1="533" x2="542" y1="202" y2="193"/><line style="stroke: #000000; stroke-width: 1.5;" x1="427" x2="533" y1="202" y2="202"/><line style="stroke: #000000; stroke-width: 1.5;" x1="533" x2="533" y1="202" y2="239.6094"/><text fill="#000000" font-family="sans-serif" font-size="14" lengthAdjust="spacingAndGlyphs" textLength="76" x="442" y="226.5332">messaging1</text><!--MD5=[8c2622b20ad90ab48591eedd035c99f5]
entity messaging2--><polygon fill="#FEFECE" filter="url(#f1jspe4pxbau6q)" points="578,202,588,192,694,192,694,229.6094,684,239.6094,578,239.6094,578,202" style="stroke: #000000; stroke-width: 1.5;"/><line style="stroke: #000000; stroke-width: 1.5;" x1="684" x2="693" y1="202" y2="193"/><line style="stroke: #000000; stroke-width: 1.5;" x1="578" x2="684" y1="202" y2="202"/><line style="stroke: #000000; stroke-width: 1.5;" x1="684" x2="684" y1="202" y2="239.6094"/><text fill="#000000" font-family="sans-serif" font-size="14" lengthAdjust="spacingAndGlyphs" textLength="76" x="593" y="226.5332">messaging2</text><!--MD5=[51886323d88e0b4c566e02eee464786f]
entity messaging3--><polygon fill="#FEFECE" filter="url(#f1jspe4pxbau6q)" points="502,310,512,300,618,300,618,337.6094,608,347.6094,502,347.6094,502,310" style="stroke: #000000; stroke-width: 1.5;"/><line style="stroke: #000000; stroke-width: 1.5;" x1="608" x2="617" y1="310" y2="301"/><line style="stroke: #000000; stroke-width: 1.5;" x1="502" x2="608" y1="310" y2="310"/><line style="stroke: #000000; stroke-width: 1.5;" x1="608" x2="608" y1="310" y2="347.6094"/><text fill="#000000" font-family="sans-serif" font-size="14" lengthAdjust="spacingAndGlyphs" textLength="76" x="517" y="334.5332">messaging3</text><!--MD5=[f4e15d3e2fc8ba161938d9edcd59596e]
link messaging1 to messaging2--><path d="M548.271,216 C556.46,216 564.649,216 572.838,216 " fill="none" id="messaging1-messaging2" style="stroke: #A80036; stroke-width: 1.0;"/><polygon fill="#A80036" points="577.937,216,568.937,212,572.937,216,568.937,220,577.937,216" style="stroke: #A80036; stroke-width: 1.0;"/><polygon fill="#A80036" points="543.1,216,552.1,220,548.1,216,552.1,212,543.1,216" style="stroke: #A80036; stroke-width: 1.0;"/><!--MD5=[1049f7380ea4dd0291552ba8db783ecc]
link messaging1 to messaging3--><path d="M504.284,244.254 C515.381,259.938 529.289,279.595 540.434,295.346 " fill="none" id="messaging1-messaging3" style="stroke: #A80036; stroke-width: 1.0;"/><polygon fill="#A80036" points="543.499,299.6784,541.5657,290.0212,540.6109,295.5969,535.0352,294.6421,543.499,299.6784" style="stroke: #A80036; stroke-width: 1.0;"/><polygon fill="#A80036" points="501.274,240,503.2082,249.6571,504.1625,244.0813,509.7382,245.0355,501.274,240" style="stroke: #A80036; stroke-width: 1.0;"/><!--MD5=[95e8a1b99eacbd589c3f419c747f7ac1]
link messaging2 to messaging3--><path d="M616.459,244.254 C605.214,259.938 591.12,279.595 579.827,295.346 " fill="none" id="messaging2-messaging3" style="stroke: #A80036; stroke-width: 1.0;"/><polygon fill="#A80036" points="576.721,299.6784,585.2157,294.6945,579.6342,295.6148,578.7139,290.0333,576.721,299.6784" style="stroke: #A80036; stroke-width: 1.0;"/><polygon fill="#A80036" points="619.509,240,611.0138,244.9831,616.5954,244.0634,617.5152,249.6449,619.509,240" style="stroke: #A80036; stroke-width: 1.0;"/><!--MD5=[95bbacb8c3dbed73275bdc7c2fbb4927]
link frontend to Messaging--><path d="M344.0644,117.4165 C344.1415,117.5735 344.219,117.7313 344.2969,117.8899 C344.6086,118.5244 344.9269,119.1724 345.2514,119.833 C350.4437,130.4031 357.2274,144.2129 364.0104,158.021 C370.7933,171.8291 377.5755,185.6356 382.7646,196.1992 C383.089,196.8594 383.4071,197.507 383.7186,198.1411 C383.7964,198.2996 383.8739,198.4573 383.9509,198.6141 " fill="none" id="frontend-Messaging" style="stroke: #A80036; stroke-width: 1.0;"/><polygon fill="#A80036" points="383.9509,198.6141,383.573,188.7725,381.7464,194.1264,376.3926,192.2998,383.9509,198.6141" style="stroke: #A80036; stroke-width: 1.0;"/><polygon fill="#A80036" points="344.0644,117.4165,344.4423,127.2581,346.2689,121.9043,351.6227,123.7309,344.0644,117.4165" style="stroke: #A80036; stroke-width: 1.0;"/><!--MD5=[b476eca813c6df552937e2365ba56770]
link front-end1 to front-end2--><!--MD5=[5890f05cede89b9b920587d4a2cab253]
link front-end1 to front-end3--><!--MD5=[cac5e06a6a14506da56597f389871093]
@startuml
rectangle "Front End" as frontend {
    node "front-end1"
    node "front-end2"
    node "front-end3"
}

rectangle Messaging {
    node messaging1
    node messaging2
    node messaging3

    messaging1 <-> messaging2
    messaging1 <- -> messaging3
    messaging2 <- -> messaging3
}

frontend <- -> Messaging

@enduml

PlantUML version 1.2019.12(Sun Nov 03 05:24:54 EST 2019)
(APACHE source distribution)
Java Runtime: OpenJDK Runtime Environment
JVM: OpenJDK 64-Bit Server VM
Java Version: 13.0.1+9
Operating System: Windows 10
Default Encoding: Cp1252
Language: en
Country: US
--></g></svg>