<?xml version="1.0" encoding="UTF-8" standalone="no"?><svg xmlns="http://www.w3.org/2000/svg" xmlns:xlink="http://www.w3.org/1999/xlink" contentScriptType="application/ecmascript" contentStyleType="text/css" height="438px" preserveAspectRatio="none" style="width:734px;height:438px;" version="1.1" viewBox="0 0 734 438" width="734px" zoomAndPan="magnify"><defs><filter height="300%" id="fsfdtbi1dc6ni" width="300%" x="-1" y="-1"><feGaussianBlur result="blurOut" stdDeviation="2.0"/><feColorMatrix in="blurOut" result="blurOut2" type="matrix" values="0 0 0 0 0 0 0 0 0 0 0 0 0 0 0 0 0 0 .4 0"/><feOffset dx="4.0" dy="4.0" in="blurOut2" result="blurOut3"/><feBlend in="SourceGraphic" in2="blurOut3" mode="normal"/></filter></defs><g><!--MD5=[fee662a292a0353a69bd162820bae93b]
entity User--><ellipse cx="21" cy="21" fill="#FEFECE" filter="url(#fsfdtbi1dc6ni)" rx="8" ry="8" style="stroke: #A80036; stroke-width: 2.0;"/><path d="M21,29 L21,56 M8,37 L34,37 M21,56 L8,71 M21,56 L34,71 " fill="none" filter="url(#fsfdtbi1dc6ni)" style="stroke: #A80036; stroke-width: 2.0;"/><text fill="#000000" font-family="sans-serif" font-size="14" lengthAdjust="spacingAndGlyphs" textLength="29" x="6.5" y="92.5332">User</text><!--MD5=[37e4e73a15ca43d8be880fe1133d556d]
entity loadbalancer--><polygon fill="#FEFECE" filter="url(#fsfdtbi1dc6ni)" points="300,18,310,8,490,8,490,88.8281,480,98.8281,300,98.8281,300,18" style="stroke: #000000; stroke-width: 1.5;"/><line style="stroke: #000000; stroke-width: 1.5;" x1="480" x2="489" y1="18" y2="9"/><line style="stroke: #000000; stroke-width: 1.5;" x1="300" x2="480" y1="18" y2="18"/><line style="stroke: #000000; stroke-width: 1.5;" x1="480" x2="480" y1="18" y2="98.8281"/><text fill="#000000" font-family="sans-serif" font-size="14" font-weight="bold" lengthAdjust="spacingAndGlyphs" textLength="100" x="315" y="42.5332">Load Balancer</text><text fill="#000000" font-family="sans-serif" font-size="14" lengthAdjust="spacingAndGlyphs" textLength="150" x="315" y="60.1426">(NodePort for minikube)</text><line style="stroke: #000000; stroke-width: 1.0;" x1="300" x2="480" y1="63.2188" y2="63.2188"/><line style="stroke: #000000; stroke-width: 1.0;" x1="480" x2="490" y1="63.2188" y2="53.2188"/><text fill="#000000" font-family="sans-serif" font-size="14" lengthAdjust="spacingAndGlyphs" textLength="67" x="321" y="81.752">External IP</text><!--MD5=[38bfa9dc6018363cafe15f923a4b8db9]
entity service--><polygon fill="#FEFECE" filter="url(#fsfdtbi1dc6ni)" points="308,187,318,177,482,177,482,240.2188,472,250.2188,308,250.2188,308,187" style="stroke: #000000; stroke-width: 1.5;"/><line style="stroke: #000000; stroke-width: 1.5;" x1="472" x2="481" y1="187" y2="178"/><line style="stroke: #000000; stroke-width: 1.5;" x1="308" x2="472" y1="187" y2="187"/><line style="stroke: #000000; stroke-width: 1.5;" x1="472" x2="472" y1="187" y2="250.2188"/><text fill="#000000" font-family="sans-serif" font-size="14" font-weight="bold" lengthAdjust="spacingAndGlyphs" textLength="54" x="323" y="211.5332">Service</text><line style="stroke: #000000; stroke-width: 1.0;" x1="308" x2="472" y1="214.6094" y2="214.6094"/><line style="stroke: #000000; stroke-width: 1.0;" x1="472" x2="482" y1="214.6094" y2="204.6094"/><text fill="#000000" font-family="sans-serif" font-size="14" lengthAdjust="spacingAndGlyphs" textLength="122" x="329" y="233.1426">Cluster IP (internal)</text><!--MD5=[40736541fd2477c5b31be5f547fc8994]
entity pod1--><polygon fill="#FEFECE" filter="url(#fsfdtbi1dc6ni)" points="78,338,88,328,266,328,266,416.8281,256,426.8281,78,426.8281,78,338" style="stroke: #000000; stroke-width: 1.5;"/><line style="stroke: #000000; stroke-width: 1.5;" x1="256" x2="265" y1="338" y2="329"/><line style="stroke: #000000; stroke-width: 1.5;" x1="78" x2="256" y1="338" y2="338"/><line style="stroke: #000000; stroke-width: 1.5;" x1="256" x2="256" y1="338" y2="426.8281"/><text fill="#000000" font-family="sans-serif" font-size="14" font-weight="bold" lengthAdjust="spacingAndGlyphs" textLength="39" x="93" y="362.5332">Pod 1</text><line style="stroke: #000000; stroke-width: 1.0;" x1="78" x2="256" y1="365.6094" y2="365.6094"/><line style="stroke: #000000; stroke-width: 1.0;" x1="256" x2="266" y1="365.6094" y2="355.6094"/><text fill="#000000" font-family="sans-serif" font-size="14" lengthAdjust="spacingAndGlyphs" textLength="136" x="99" y="384.1426">Individual IP (internal)</text><line style="stroke: #000000; stroke-width: 1.0;" x1="78" x2="256" y1="391.2188" y2="391.2188"/><line style="stroke: #000000; stroke-width: 1.0;" x1="256" x2="266" y1="391.2188" y2="381.2188"/><text fill="#000000" font-family="sans-serif" font-size="14" lengthAdjust="spacingAndGlyphs" textLength="124" x="99" y="409.752">front-end Container</text><!--MD5=[d37a07cae63c66d574c99dd81b5a8fd3]
entity pod2--><polygon fill="#FEFECE" filter="url(#fsfdtbi1dc6ni)" points="301,338,311,328,489,328,489,416.8281,479,426.8281,301,426.8281,301,338" style="stroke: #000000; stroke-width: 1.5;"/><line style="stroke: #000000; stroke-width: 1.5;" x1="479" x2="488" y1="338" y2="329"/><line style="stroke: #000000; stroke-width: 1.5;" x1="301" x2="479" y1="338" y2="338"/><line style="stroke: #000000; stroke-width: 1.5;" x1="479" x2="479" y1="338" y2="426.8281"/><text fill="#000000" font-family="sans-serif" font-size="14" font-weight="bold" lengthAdjust="spacingAndGlyphs" textLength="39" x="316" y="362.5332">Pod 2</text><line style="stroke: #000000; stroke-width: 1.0;" x1="301" x2="479" y1="365.6094" y2="365.6094"/><line style="stroke: #000000; stroke-width: 1.0;" x1="479" x2="489" y1="365.6094" y2="355.6094"/><text fill="#000000" font-family="sans-serif" font-size="14" lengthAdjust="spacingAndGlyphs" textLength="136" x="322" y="384.1426">Individual IP (internal)</text><line style="stroke: #000000; stroke-width: 1.0;" x1="301" x2="479" y1="391.2188" y2="391.2188"/><line style="stroke: #000000; stroke-width: 1.0;" x1="479" x2="489" y1="391.2188" y2="381.2188"/><text fill="#000000" font-family="sans-serif" font-size="14" lengthAdjust="spacingAndGlyphs" textLength="124" x="322" y="409.752">front-end Container</text><!--MD5=[0804ee0615eac1828d8ea7d46b94a779]
entity pod3--><polygon fill="#FEFECE" filter="url(#fsfdtbi1dc6ni)" points="524,338,534,328,712,328,712,416.8281,702,426.8281,524,426.8281,524,338" style="stroke: #000000; stroke-width: 1.5;"/><line style="stroke: #000000; stroke-width: 1.5;" x1="702" x2="711" y1="338" y2="329"/><line style="stroke: #000000; stroke-width: 1.5;" x1="524" x2="702" y1="338" y2="338"/><line style="stroke: #000000; stroke-width: 1.5;" x1="702" x2="702" y1="338" y2="426.8281"/><text fill="#000000" font-family="sans-serif" font-size="14" font-weight="bold" lengthAdjust="spacingAndGlyphs" textLength="39" x="539" y="362.5332">Pod 3</text><line style="stroke: #000000; stroke-width: 1.0;" x1="524" x2="702" y1="365.6094" y2="365.6094"/><line style="stroke: #000000; stroke-width: 1.0;" x1="702" x2="712" y1="365.6094" y2="355.6094"/><text fill="#000000" font-family="sans-serif" font-size="14" lengthAdjust="spacingAndGlyphs" textLength="136" x="545" y="384.1426">Individual IP (internal)</text><line style="stroke: #000000; stroke-width: 1.0;" x1="524" x2="702" y1="391.2188" y2="391.2188"/><line style="stroke: #000000; stroke-width: 1.0;" x1="702" x2="712" y1="391.2188" y2="381.2188"/><text fill="#000000" font-family="sans-serif" font-size="14" lengthAdjust="spacingAndGlyphs" textLength="124" x="545" y="409.752">front-end Container</text><!--MD5=[e9a337ba36e4fa96040f4e8b3a47f029]
link User to loadbalancer--><path d="M36.1245,53.5 C79.0439,53.5 204.341,53.5 294.806,53.5 " fill="none" id="User-&gt;loadbalancer" style="stroke: #A80036; stroke-width: 1.0;"/><polygon fill="#A80036" points="299.899,53.5,290.899,49.5,294.899,53.5,290.899,57.5,299.899,53.5" style="stroke: #A80036; stroke-width: 1.0;"/><text fill="#000000" font-family="sans-serif" font-size="13" lengthAdjust="spacingAndGlyphs" textLength="227" x="54.5" y="46.9951">Port 80/443 (30000-32767 for minikube)</text><!--MD5=[8e7841402f10ed3e865225aa5d39983c]
link loadbalancer to service--><path d="M395,99.354 C395,122.074 395,149.461 395,171.599 " fill="none" id="loadbalancer-&gt;service" style="stroke: #A80036; stroke-width: 1.0;"/><polygon fill="#A80036" points="395,176.817,399,167.817,395,171.817,391,167.817,395,176.817" style="stroke: #A80036; stroke-width: 1.0;"/><text fill="#000000" font-family="sans-serif" font-size="13" lengthAdjust="spacingAndGlyphs" textLength="91" x="396" y="143.4951">Kubernetes API</text><!--MD5=[0c4bf8b026daabf6a55362ca6066d1f5]
link service to pod1--><path d="M346.062,250.052 C315.877,271.979 276.649,300.477 243.075,324.867 " fill="none" id="service-&gt;pod1" style="stroke: #A80036; stroke-width: 1.0;"/><polygon fill="#A80036" points="239.01,327.82,248.6426,325.7673,243.0555,324.8816,243.9411,319.2945,239.01,327.82" style="stroke: #A80036; stroke-width: 1.0;"/><text fill="#000000" font-family="sans-serif" font-size="13" lengthAdjust="spacingAndGlyphs" textLength="56" x="304" y="294.4951">Port 5000</text><!--MD5=[4ce32cdaa1abee3b5288d362d5579dd4]
link service to pod2--><path d="M395,250.052 C395,271.355 395,298.861 395,322.775 " fill="none" id="service-&gt;pod2" style="stroke: #A80036; stroke-width: 1.0;"/><polygon fill="#A80036" points="395,327.82,399,318.82,395,322.82,391,318.82,395,327.82" style="stroke: #A80036; stroke-width: 1.0;"/><text fill="#000000" font-family="sans-serif" font-size="13" lengthAdjust="spacingAndGlyphs" textLength="56" x="396" y="294.4951">Port 5000</text><!--MD5=[9134f748e4250ea0c0176b060fc05c6c]
link service to pod3--><path d="M443.938,250.052 C474.123,271.979 513.351,300.477 546.925,324.867 " fill="none" id="service-&gt;pod3" style="stroke: #A80036; stroke-width: 1.0;"/><polygon fill="#A80036" points="550.99,327.82,546.0589,319.2945,546.9445,324.8816,541.3574,325.7673,550.99,327.82" style="stroke: #A80036; stroke-width: 1.0;"/><text fill="#000000" font-family="sans-serif" font-size="13" lengthAdjust="spacingAndGlyphs" textLength="56" x="507" y="294.4951">Port 5000</text><!--MD5=[3b28aa92cfd2f87e69ca53737b819b79]
@startuml

actor User
node loadbalancer [
    <b>Load Balancer
    (NodePort for minikube)
    - - - -
    External IP
]
node service [
    <b>Service
    - - - -
    Cluster IP (internal)
]
node pod1 [
    <b>Pod 1
    - - - -
    Individual IP (internal)
    - - - -
    front-end Container
]
node pod2 [
    <b>Pod 2
    - - - -
    Individual IP (internal)
    - - - -
    front-end Container
]
node pod3 [
    <b>Pod 3
    - - - -
    Individual IP (internal)
    - - - -
    front-end Container
]

User -> loadbalancer: Port 80/443 (30000-32767 for minikube)
loadbalancer - -> service: Kubernetes API
service - -> pod1: Port 5000
service - -> pod2: Port 5000
service - -> pod3: Port 5000

@enduml

PlantUML version 1.2019.12(Sun Nov 03 05:24:54 EST 2019)
(APACHE source distribution)
Java Runtime: OpenJDK Runtime Environment
JVM: OpenJDK 64-Bit Server VM
Java Version: 13.0.1+9
Operating System: Windows 10
Default Encoding: Cp1252
Language: en
Country: US
--></g></svg>