<?xml version="1.0" encoding="UTF-8" standalone="no"?><svg xmlns="http://www.w3.org/2000/svg" xmlns:xlink="http://www.w3.org/1999/xlink" contentScriptType="application/ecmascript" contentStyleType="text/css" height="293px" preserveAspectRatio="none" style="width:349px;height:293px;" version="1.1" viewBox="0 0 349 293" width="349px" zoomAndPan="magnify"><defs><filter height="300%" id="f11aqdgatjow6v" width="300%" x="-1" y="-1"><feGaussianBlur result="blurOut" stdDeviation="2.0"/><feColorMatrix in="blurOut" result="blurOut2" type="matrix" values="0 0 0 0 0 0 0 0 0 0 0 0 0 0 0 0 0 0 .4 0"/><feOffset dx="4.0" dy="4.0" in="blurOut2" result="blurOut3"/><feBlend in="SourceGraphic" in2="blurOut3" mode="normal"/></filter></defs><g><!--MD5=[4f96b4ca2c63f1a93e6dd3fb44a17ade]
cluster Messaging--><polygon fill="#FFFFFF" filter="url(#f11aqdgatjow6v)" points="22,130,32,120,327,120,327,271,317,281,22,281,22,130" style="stroke: #000000; stroke-width: 1.5;"/><line style="stroke: #000000; stroke-width: 1.5;" x1="317" x2="326" y1="130" y2="121"/><line style="stroke: #000000; stroke-width: 1.5;" x1="22" x2="317" y1="130" y2="130"/><line style="stroke: #000000; stroke-width: 1.5;" x1="317" x2="317" y1="130" y2="281"/><text fill="#000000" font-family="sans-serif" font-size="14" font-weight="bold" lengthAdjust="spacingAndGlyphs" textLength="77" x="132" y="147.5332">Messaging</text><!--MD5=[bdd0a7256e0fdebb244694000bd48637]
entity requests--><path d="M43.5,199 L160.5,199 C165.5,199 165.5,212.8047 165.5,212.8047 C165.5,212.8047 165.5,226.6094 160.5,226.6094 L43.5,226.6094 C38.5,226.6094 38.5,212.8047 38.5,212.8047 C38.5,212.8047 38.5,199 43.5,199 " fill="#FEFECE" filter="url(#f11aqdgatjow6v)" style="stroke: #A80036; stroke-width: 1.5;"/><path d="M160.5,199 C155.5,199 155.5,212.8047 155.5,212.8047 C155.5,226.6094 160.5,226.6094 160.5,226.6094 " fill="none" style="stroke: #A80036; stroke-width: 1.5;"/><text fill="#000000" font-family="sans-serif" font-size="14" lengthAdjust="spacingAndGlyphs" textLength="107" x="43.5" y="218.5332">Requests Queue</text><!--MD5=[046b42bc0b06d01dbef506dc17768c5c]
entity replies--><path d="M206,161 L306,161 C311,161 311,213.2188 311,213.2188 C311,213.2188 311,265.4375 306,265.4375 L206,265.4375 C201,265.4375 201,213.2188 201,213.2188 C201,213.2188 201,161 206,161 " fill="#FEFECE" filter="url(#f11aqdgatjow6v)" style="stroke: #A80036; stroke-width: 1.5;"/><path d="M306,161 C301,161 301,213.2188 301,213.2188 C301,265.4375 306,265.4375 306,265.4375 " fill="none" style="stroke: #A80036; stroke-width: 1.5;"/><text fill="#000000" font-family="sans-serif" font-size="14" lengthAdjust="spacingAndGlyphs" textLength="90" x="206" y="180.5332">Reply Queues</text><line style="stroke: #A80036; stroke-width: 1.0;" x1="202" x2="302.8351" y1="183.6094" y2="183.6094"/><text fill="#000000" font-family="sans-serif" font-size="14" lengthAdjust="spacingAndGlyphs" textLength="48" x="212" y="202.1426">Client 1</text><line style="stroke: #A80036; stroke-width: 1.0; stroke-dasharray: 1.0,2.0;" x1="202" x2="300.383" y1="209.2188" y2="209.2188"/><text fill="#000000" font-family="sans-serif" font-size="14" lengthAdjust="spacingAndGlyphs" textLength="48" x="212" y="227.752">Client 2</text><line style="stroke: #A80036; stroke-width: 1.0; stroke-dasharray: 1.0,2.0;" x1="202" x2="302.0691" y1="234.8281" y2="234.8281"/><text fill="#000000" font-family="sans-serif" font-size="14" lengthAdjust="spacingAndGlyphs" textLength="20" x="212" y="253.3613">. . .</text><!--MD5=[b1e3d2dcb3697de9e6328d1cb436cbc4]
entity frontend--><polygon fill="#FEFECE" filter="url(#f11aqdgatjow6v)" points="53.5,18,63.5,8,156.5,8,156.5,45.6094,146.5,55.6094,53.5,55.6094,53.5,18" style="stroke: #000000; stroke-width: 1.5;"/><line style="stroke: #000000; stroke-width: 1.5;" x1="146.5" x2="155.5" y1="18" y2="9"/><line style="stroke: #000000; stroke-width: 1.5;" x1="53.5" x2="146.5" y1="18" y2="18"/><line style="stroke: #000000; stroke-width: 1.5;" x1="146.5" x2="146.5" y1="18" y2="55.6094"/><text fill="#000000" font-family="sans-serif" font-size="14" lengthAdjust="spacingAndGlyphs" textLength="63" x="68.5" y="42.5332">Front End</text><!--MD5=[4e8ecd94af36cce41665c9f079adf9fd]
entity backend--><polygon fill="#FEFECE" filter="url(#f11aqdgatjow6v)" points="204,18,214,8,304,8,304,45.6094,294,55.6094,204,55.6094,204,18" style="stroke: #000000; stroke-width: 1.5;"/><line style="stroke: #000000; stroke-width: 1.5;" x1="294" x2="303" y1="18" y2="9"/><line style="stroke: #000000; stroke-width: 1.5;" x1="204" x2="294" y1="18" y2="18"/><line style="stroke: #000000; stroke-width: 1.5;" x1="294" x2="294" y1="18" y2="55.6094"/><text fill="#000000" font-family="sans-serif" font-size="14" lengthAdjust="spacingAndGlyphs" textLength="60" x="219" y="42.5332">Back End</text><!--MD5=[9475d49310c01dd75f6996f0d8426dd9]
link frontend to requests--><path d="M76.0743,56.005 C67.6355,64.44 59.4834,74.714 55,86 C39.6813,124.561 68.2823,170.307 87.2063,194.677 " fill="none" id="frontend-&gt;requests" style="stroke: #A80036; stroke-width: 1.0;"/><polygon fill="#A80036" points="90.3831,198.6869,87.9282,189.1489,87.2776,194.7682,81.6583,194.1176,90.3831,198.6869" style="stroke: #A80036; stroke-width: 1.0;"/><text fill="#000000" font-family="sans-serif" font-size="13" lengthAdjust="spacingAndGlyphs" textLength="39" x="56" y="100.4951">AMQP</text><!--MD5=[5aa60fd262ff6a8be8c095be98e43864]
reverse link frontend to replies--><path d="M110.466,61.012 C114.851,76.007 122.58,93.501 136,104 C152.689,117.056 164.985,100.845 183,112 C202.098,123.825 217.768,142.659 229.626,160.809 " fill="none" id="frontend&lt;-replies" style="stroke: #A80036; stroke-width: 1.0;"/><polygon fill="#A80036" points="109.104,56.036,107.6218,65.7727,110.4239,60.8586,115.338,63.6608,109.104,56.036" style="stroke: #A80036; stroke-width: 1.0;"/><text fill="#000000" font-family="sans-serif" font-size="13" lengthAdjust="spacingAndGlyphs" textLength="39" x="137" y="100.4951">AMQP</text><!--MD5=[cb146785504cb2958527c0c97924b1ee]
reverse link backend to requests--><path d="M229.131,59.979 C215.345,75.105 198.008,94.414 183,112 C156.894,142.59 127.455,179.602 112.276,198.8808 " fill="none" id="backend&lt;-requests" style="stroke: #A80036; stroke-width: 1.0;"/><polygon fill="#A80036" points="232.555,56.227,223.5328,60.1767,229.1838,59.9196,229.4409,65.5706,232.555,56.227" style="stroke: #A80036; stroke-width: 1.0;"/><text fill="#000000" font-family="sans-serif" font-size="13" lengthAdjust="spacingAndGlyphs" textLength="39" x="206" y="100.4951">AMQP</text><!--MD5=[eb5d98fe8dc35b0ece900e5472bf18df]
link backend to replies--><path d="M258.261,56.134 C259.763,65.386 261.262,76.164 262,86 C263.707,108.745 263.032,133.838 261.63,155.604 " fill="none" id="backend-&gt;replies" style="stroke: #A80036; stroke-width: 1.0;"/><polygon fill="#A80036" points="261.28,160.771,265.8778,152.0612,261.6171,155.7824,257.896,151.5218,261.28,160.771" style="stroke: #A80036; stroke-width: 1.0;"/><text fill="#000000" font-family="sans-serif" font-size="13" lengthAdjust="spacingAndGlyphs" textLength="39" x="263" y="100.4951">AMQP</text><!--MD5=[8404a66a0d867265720f22701b6ff399]
@startuml

node frontend [
    Front End
]

node backend [
    Back End
]

node Messaging {
    queue requests [
        Requests Queue
    ]
    queue replies [
        Reply Queues
        - - - -
        Client 1
        ....
        Client 2
        ....
        . . .
    ]
}

frontend - -> requests : AMQP
frontend <- - replies : AMQP
backend <- - requests : AMQP
backend - -> replies : AMQP

@enduml

PlantUML version 1.2019.12(Sun Nov 03 05:24:54 EST 2019)
(APACHE source distribution)
Java Runtime: OpenJDK Runtime Environment
JVM: OpenJDK 64-Bit Server VM
Java Version: 13.0.1+9
Operating System: Windows 10
Default Encoding: Cp1252
Language: en
Country: US
--></g></svg>