<?xml version="1.0" encoding="UTF-8" standalone="no"?><svg xmlns="http://www.w3.org/2000/svg" xmlns:xlink="http://www.w3.org/1999/xlink" contentScriptType="application/ecmascript" contentStyleType="text/css" height="103px" preserveAspectRatio="none" style="width:587px;height:103px;" version="1.1" viewBox="0 0 587 103" width="587px" zoomAndPan="magnify"><defs><filter height="300%" id="f1afu9ol25u614" width="300%" x="-1" y="-1"><feGaussianBlur result="blurOut" stdDeviation="2.0"/><feColorMatrix in="blurOut" result="blurOut2" type="matrix" values="0 0 0 0 0 0 0 0 0 0 0 0 0 0 0 0 0 0 .4 0"/><feOffset dx="4.0" dy="4.0" in="blurOut2" result="blurOut3"/><feBlend in="SourceGraphic" in2="blurOut3" mode="normal"/></filter></defs><g><!--MD5=[feb5939ce823acf5a8245c3205b3c7a1]
entity Users--><ellipse cx="24" cy="18" fill="#FEFECE" filter="url(#f1afu9ol25u614)" rx="8" ry="8" style="stroke: #A80036; stroke-width: 2.0;"/><path d="M24,26 L24,53 M11,34 L37,34 M24,53 L11,68 M24,53 L37,68 " fill="none" filter="url(#f1afu9ol25u614)" style="stroke: #A80036; stroke-width: 2.0;"/><text fill="#000000" font-family="sans-serif" font-size="14" lengthAdjust="spacingAndGlyphs" textLength="36" x="6" y="89.5332">Users</text><!--MD5=[b1e3d2dcb3697de9e6328d1cb436cbc4]
entity frontend--><polygon fill="#FEFECE" filter="url(#f1afu9ol25u614)" points="77.5,36.5,87.5,26.5,180.5,26.5,180.5,64.1094,170.5,74.1094,77.5,74.1094,77.5,36.5" style="stroke: #000000; stroke-width: 1.5;"/><line style="stroke: #000000; stroke-width: 1.5;" x1="170.5" x2="179.5" y1="36.5" y2="27.5"/><line style="stroke: #000000; stroke-width: 1.5;" x1="77.5" x2="170.5" y1="36.5" y2="36.5"/><line style="stroke: #000000; stroke-width: 1.5;" x1="170.5" x2="170.5" y1="36.5" y2="74.1094"/><text fill="#000000" font-family="sans-serif" font-size="14" lengthAdjust="spacingAndGlyphs" textLength="63" x="92.5" y="61.0332">Front End</text><!--MD5=[4e8ecd94af36cce41665c9f079adf9fd]
entity backend--><polygon fill="#FEFECE" filter="url(#f1afu9ol25u614)" points="359,36.5,369,26.5,459,26.5,459,64.1094,449,74.1094,359,74.1094,359,36.5" style="stroke: #000000; stroke-width: 1.5;"/><line style="stroke: #000000; stroke-width: 1.5;" x1="449" x2="458" y1="36.5" y2="27.5"/><line style="stroke: #000000; stroke-width: 1.5;" x1="359" x2="449" y1="36.5" y2="36.5"/><line style="stroke: #000000; stroke-width: 1.5;" x1="449" x2="449" y1="36.5" y2="74.1094"/><text fill="#000000" font-family="sans-serif" font-size="14" lengthAdjust="spacingAndGlyphs" textLength="60" x="374" y="61.0332">Back End</text><!--MD5=[8e2e54331d73736ba4de0fe105a6947e]
entity Messaging--><polygon fill="#FEFECE" filter="url(#f1afu9ol25u614)" points="216,36.5,226,26.5,324,26.5,324,64.1094,314,74.1094,216,74.1094,216,36.5" style="stroke: #000000; stroke-width: 1.5;"/><line style="stroke: #000000; stroke-width: 1.5;" x1="314" x2="323" y1="36.5" y2="27.5"/><line style="stroke: #000000; stroke-width: 1.5;" x1="216" x2="314" y1="36.5" y2="36.5"/><line style="stroke: #000000; stroke-width: 1.5;" x1="314" x2="314" y1="36.5" y2="74.1094"/><text fill="#000000" font-family="sans-serif" font-size="14" lengthAdjust="spacingAndGlyphs" textLength="68" x="231" y="61.0332">Messaging</text><!--MD5=[fa1e3283224feb76407c84b7e90ed808]
entity Database--><path d="M494.5,37 C494.5,27 535,27 535,27 C535,27 575.5,27 575.5,37 L575.5,63.6094 C575.5,73.6094 535,73.6094 535,73.6094 C535,73.6094 494.5,73.6094 494.5,63.6094 L494.5,37 " fill="#FEFECE" filter="url(#f1afu9ol25u614)" style="stroke: #000000; stroke-width: 1.5;"/><path d="M494.5,37 C494.5,47 535,47 535,47 C535,47 575.5,47 575.5,37 " fill="none" style="stroke: #000000; stroke-width: 1.5;"/><text fill="#000000" font-family="sans-serif" font-size="14" lengthAdjust="spacingAndGlyphs" textLength="61" x="504.5" y="65.5332">Database</text><!--MD5=[e772470830576ac1d2edd3d054bb52a1]
link Users to frontend--><path d="M47.2904,50.5 C55.594,50.5 63.8977,50.5 72.2014,50.5 " fill="none" id="Users-frontend" style="stroke: #A80036; stroke-width: 1.0;"/><polygon fill="#A80036" points="77.3716,50.5,68.3716,46.5,72.3716,50.5,68.3716,54.5,77.3716,50.5" style="stroke: #A80036; stroke-width: 1.0;"/><polygon fill="#A80036" points="42.0469,50.5,51.0469,54.5,47.0469,50.5,51.0469,46.5,42.0469,50.5" style="stroke: #A80036; stroke-width: 1.0;"/><!--MD5=[95bbacb8c3dbed73275bdc7c2fbb4927]
link frontend to Messaging--><path d="M185.999,50.5 C194.274,50.5 202.549,50.5 210.824,50.5 " fill="none" id="frontend-Messaging" style="stroke: #A80036; stroke-width: 1.0;"/><polygon fill="#A80036" points="215.976,50.5,206.976,46.5,210.976,50.5,206.976,54.5,215.976,50.5" style="stroke: #A80036; stroke-width: 1.0;"/><polygon fill="#A80036" points="180.773,50.5,189.773,54.5,185.773,50.5,189.773,46.5,180.773,50.5" style="stroke: #A80036; stroke-width: 1.0;"/><!--MD5=[37274e5a84b1ae7806beb1faf01da85b]
link Messaging to backend--><path d="M329.199,50.5 C337.392,50.5 345.584,50.5 353.777,50.5 " fill="none" id="Messaging-backend" style="stroke: #A80036; stroke-width: 1.0;"/><polygon fill="#A80036" points="358.878,50.5,349.878,46.5,353.878,50.5,349.878,54.5,358.878,50.5" style="stroke: #A80036; stroke-width: 1.0;"/><polygon fill="#A80036" points="324.025,50.5,333.025,54.5,329.025,50.5,333.025,46.5,324.025,50.5" style="stroke: #A80036; stroke-width: 1.0;"/><!--MD5=[dff7704a7119f1c857bce85c3aee113d]
link backend to Database--><path d="M464.433,50.5 C472.715,50.5 480.998,50.5 489.28,50.5 " fill="none" id="backend-Database" style="stroke: #A80036; stroke-width: 1.0;"/><polygon fill="#A80036" points="494.437,50.5,485.437,46.5,489.437,50.5,485.437,54.5,494.437,50.5" style="stroke: #A80036; stroke-width: 1.0;"/><polygon fill="#A80036" points="459.203,50.5,468.203,54.5,464.203,50.5,468.203,46.5,459.203,50.5" style="stroke: #A80036; stroke-width: 1.0;"/><!--MD5=[0f898ac5331184af7e0f1ffa1d112ef4]
@startuml

actor Users

node frontend [
    Front End
]

node backend [
    Back End
]

node Messaging

database Database

Users <-> frontend
frontend <-> Messaging
Messaging <-> backend
backend <-> Database

@enduml

PlantUML version 1.2019.12(Sun Nov 03 05:24:54 EST 2019)
(APACHE source distribution)
Java Runtime: OpenJDK Runtime Environment
JVM: OpenJDK 64-Bit Server VM
Java Version: 13.0.1+9
Operating System: Windows 10
Default Encoding: Cp1252
Language: en
Country: US
--></g></svg>